<svg xmlns="http://www.w3.org/2000/svg" xmlns:xlink="http://www.w3.org/1999/xlink" width="546" zoomAndPan="magnify" viewBox="0 0 409.5 263.99999" height="352" preserveAspectRatio="xMidYMid meet" version="1.0"><defs><filter x="0%" y="0%" width="100%" height="100%" id="d51c3b3cea"><feColorMatrix values="0 0 0 0 1 0 0 0 0 1 0 0 0 0 1 0 0 0 1 0" color-interpolation-filters="sRGB"/></filter><clipPath id="6c535bda54"><path d="M 78 57 L 363 57 L 363 262.339844 L 78 262.339844 Z M 78 57 " clip-rule="nonzero"/></clipPath><clipPath id="ed125b307f"><path d="M 43.609375 71 L 322 71 L 322 262.339844 L 43.609375 262.339844 Z M 43.609375 71 " clip-rule="nonzero"/></clipPath><mask id="618155895d"><g filter="url(#d51c3b3cea)"><rect x="-40.95" width="491.4" fill="#000000" y="-26.399999" height="316.799987" fill-opacity="0.8"/></g></mask><clipPath id="b91b79b69c"><path d="M 1 0.132812 L 5.769531 0.132812 L 5.769531 46.875 L 1 46.875 Z M 1 0.132812 " clip-rule="nonzero"/></clipPath><clipPath id="fea0e71ae6"><rect x="0" width="6" y="0" height="47"/></clipPath><clipPath id="1ea332f9c8"><path d="M 43.609375 253 L 385 253 L 385 262.339844 L 43.609375 262.339844 Z M 43.609375 253 " clip-rule="nonzero"/></clipPath><clipPath id="7c688a6ff4"><path d="M 43.609375 252 L 385.191406 252 L 385.191406 254 L 43.609375 254 Z M 43.609375 252 " clip-rule="nonzero"/></clipPath><clipPath id="979817cd75"><path d="M 165 0.160156 L 251 0.160156 L 251 75 L 165 75 Z M 165 0.160156 " clip-rule="nonzero"/></clipPath><mask id="5ff63dd9d0"><g filter="url(#d51c3b3cea)"><rect x="-40.95" width="491.4" fill="#000000" y="-26.399999" height="316.799987" fill-opacity="0.8"/></g></mask><clipPath id="4eda9a7596"><path d="M 1 0.445312 L 43 0.445312 L 43 4 L 1 4 Z M 1 0.445312 " clip-rule="nonzero"/></clipPath><clipPath id="cd4f2fa517"><rect x="0" width="44" y="0" height="5"/></clipPath><mask id="8c9a6e4076"><g filter="url(#d51c3b3cea)"><rect x="-40.95" width="491.4" fill="#000000" y="-26.399999" height="316.799987" fill-opacity="0.8"/></g></mask><clipPath id="c53e638d0a"><path d="M 1 0.636719 L 43 0.636719 L 43 4.46875 L 1 4.46875 Z M 1 0.636719 " clip-rule="nonzero"/></clipPath><clipPath id="2714f0885e"><rect x="0" width="44" y="0" height="5"/></clipPath><clipPath id="2a3cbf5bff"><path d="M 43.609375 77 L 100 77 L 100 115 L 43.609375 115 Z M 43.609375 77 " clip-rule="nonzero"/></clipPath><mask id="b01db12d31"><g filter="url(#d51c3b3cea)"><rect x="-40.95" width="491.4" fill="#000000" y="-26.399999" height="316.799987" fill-opacity="0.8"/></g></mask><clipPath id="b8a29a3a94"><path d="M 0.132812 12 L 6 12 L 6 19.632812 L 0.132812 19.632812 Z M 0.132812 12 " clip-rule="nonzero"/></clipPath><clipPath id="a7273fd35d"><path d="M 9 5 L 15 5 L 15 19.632812 L 9 19.632812 Z M 9 5 " clip-rule="nonzero"/></clipPath><clipPath id="7d1d4c4ab3"><path d="M 18 8 L 24 8 L 24 19.632812 L 18 19.632812 Z M 18 8 " clip-rule="nonzero"/></clipPath><clipPath id="9b21be1cdd"><path d="M 27 0.695312 L 32.972656 0.695312 L 32.972656 19.632812 L 27 19.632812 Z M 27 0.695312 " clip-rule="nonzero"/></clipPath><clipPath id="d8911763f5"><rect x="0" width="33" y="0" height="20"/></clipPath></defs><path fill="#f20000" d="M 363.40625 231.289062 C 363.375 231.289062 363.339844 231.289062 363.308594 231.292969 L 363.589844 226.445312 L 338.933594 226.445312 L 340.121094 247.007812 C 340.34375 250.859375 343.535156 253.871094 347.394531 253.871094 L 355.128906 253.871094 C 358.988281 253.871094 362.175781 250.859375 362.402344 247.007812 L 362.675781 242.261719 C 362.914062 242.285156 363.160156 242.296875 363.40625 242.296875 C 367.003906 242.296875 369.933594 239.828125 369.933594 236.792969 C 369.933594 233.757812 367.003906 231.289062 363.40625 231.289062 Z M 363.40625 240.015625 C 363.199219 240.015625 363.003906 240.003906 362.808594 239.980469 L 363.179688 233.574219 C 363.253906 233.574219 363.328125 233.566406 363.40625 233.566406 C 365.746094 233.566406 367.652344 235.015625 367.652344 236.792969 C 367.652344 238.570312 365.746094 240.015625 363.40625 240.015625 Z M 363.40625 240.015625 " fill-opacity="1" fill-rule="nonzero"/><path fill="#ffffff" d="M 353.757812 224.578125 C 351.339844 224.265625 349.058594 222.863281 347.503906 220.863281 C 346.730469 219.859375 346.109375 218.703125 345.765625 217.449219 C 345.667969 217.136719 345.609375 216.820312 345.539062 216.5 C 345.496094 216.179688 345.433594 215.859375 345.417969 215.535156 C 345.347656 214.894531 345.375 214.246094 345.429688 213.601562 C 345.554688 212.320312 345.90625 211.0625 346.476562 209.90625 C 346.761719 209.324219 347.101562 208.773438 347.492188 208.261719 C 347.875 207.746094 348.339844 207.257812 348.773438 206.859375 C 349.210938 206.453125 349.628906 206.105469 349.984375 205.757812 C 350.167969 205.585938 350.335938 205.410156 350.480469 205.234375 C 350.628906 205.058594 350.757812 204.882812 350.851562 204.714844 C 351.058594 204.367188 351.183594 203.933594 351.195312 203.527344 C 351.210938 203.121094 351.113281 202.75 350.851562 202.441406 L 351.472656 201.535156 C 351.808594 201.703125 352.097656 201.972656 352.320312 202.285156 C 352.539062 202.597656 352.683594 202.953125 352.769531 203.308594 C 352.9375 204.027344 352.886719 204.75 352.671875 205.449219 C 352.179688 206.851562 351.246094 207.765625 350.550781 208.582031 C 350.195312 208.996094 349.90625 209.363281 349.648438 209.777344 C 349.511719 209.980469 349.398438 210.199219 349.277344 210.40625 C 349.171875 210.628906 349.050781 210.839844 348.960938 211.066406 C 348.566406 211.957031 348.324219 212.917969 348.214844 213.882812 C 348.007812 215.832031 348.429688 217.777344 349.46875 219.492188 C 350.515625 221.195312 352.09375 222.621094 354.046875 223.523438 Z M 353.757812 224.578125 " fill-opacity="1" fill-rule="nonzero"/><path fill="#ffffff" d="M 354.496094 218.808594 C 355.488281 217.929688 356.292969 216.980469 356.902344 215.941406 C 357.515625 214.910156 357.9375 213.800781 358.128906 212.671875 C 358.320312 211.542969 358.289062 210.363281 358.074219 209.1875 C 357.855469 208.007812 357.441406 206.84375 356.835938 205.65625 L 357.636719 204.90625 C 358.914062 205.722656 359.882812 207.023438 360.445312 208.480469 C 361.015625 209.9375 361.179688 211.582031 360.886719 213.164062 C 360.597656 214.742188 359.867188 216.214844 358.835938 217.382812 C 357.800781 218.546875 356.457031 219.4375 354.988281 219.789062 Z M 354.496094 218.808594 " fill-opacity="1" fill-rule="nonzero"/><g clip-path="url(#6c535bda54)"><path stroke-linecap="butt" transform="matrix(0.209752, 0, 0, 0.209752, -2.954999, -81.484913)" fill="none" stroke-linejoin="miter" d="M 776.259591 1622.154508 C 626.138279 1593.083752 520.116615 1505.610758 470.895597 1370.127251 C 392.603822 1154.620015 476.501169 836.908864 700.910276 767.109251 C 789.79863 739.472478 898.948986 788.972843 990.258351 788.30241 C 1118.497448 787.352628 1233.830693 708.651144 1361.231747 718.689028 C 1527.108255 731.743865 1648.345042 884.546913 1679.445724 1039.58474 C 1690.116796 1092.791116 1691.345924 1147.87843 1682.816516 1201.438645 C 1673.523558 1259.654651 1654.602425 1316.697398 1625.904132 1367.128922 C 1601.153949 1410.57676 1543.962217 1468.103708 1495.33714 1479.705939 C 1495.318517 1479.705939 776.259591 1622.154508 776.259591 1622.154508 Z M 776.259591 1622.154508 " stroke="#27005d" stroke-width="3.82" stroke-opacity="1" stroke-miterlimit="10"/></g><g clip-path="url(#ed125b307f)"><path stroke-linecap="butt" transform="matrix(0.209752, 0, 0, 0.209752, -2.954999, -81.484913)" fill="none" stroke-linejoin="miter" d="M 1178.054321 1598.093382 C 1326.406433 1561.461622 1439.765623 1450.821414 1478.855641 1324.258402 C 1541.03838 1122.904769 1432.781937 839.609222 1202.394794 791.356608 C 1155.61341 781.560825 1106.299276 784.037705 1058.810212 789.531538 C 981.263364 798.489279 901.705214 809.756293 823.543801 807.260789 C 747.542675 804.839778 673.832198 782.491983 597.235131 784.205314 C 344.053237 789.922625 192.442072 1031.68852 250.546339 1253.062052 C 264.271609 1305.393138 287.569186 1355.973647 320.196966 1399.905687 C 348.299318 1437.766577 410.016479 1486.205422 459.684453 1493.449832 C 459.703076 1493.431209 1178.054321 1598.093382 1178.054321 1598.093382 Z M 1178.054321 1598.093382 " stroke="#27005d" stroke-width="3.75" stroke-opacity="1" stroke-miterlimit="10"/></g><path fill="#ffffff" d="M 322.238281 203.050781 C 313.890625 227.203125 303.921875 251.054688 269.253906 260.261719 L 119.394531 258.671875 C 85.628906 242.722656 67.175781 211.230469 64.105469 177.253906 C 63.085938 166.023438 63.753906 154.519531 66.109375 143.222656 C 66.722656 140.246094 67.457031 137.285156 68.308594 134.351562 C 76.050781 107.660156 92.4375 82.496094 116.8125 68.300781 C 132.472656 59.179688 152.550781 62.191406 169.183594 66.871094 C 184.179688 71.09375 198.832031 77.003906 214.3125 78.785156 C 226.648438 80.199219 239.195312 78.945312 251.570312 79.429688 C 255.996094 79.605469 260.394531 80 264.761719 80.820312 C 283.453125 84.328125 300.023438 95.789062 311.390625 111.117188 C 315.308594 116.382812 318.609375 122.105469 321.171875 128.117188 C 331.183594 151.628906 330.585938 178.898438 322.238281 203.050781 Z M 322.238281 203.050781 " fill-opacity="1" fill-rule="nonzero"/><path fill="#ff5757" d="M 253.410156 239.914062 C 263.527344 242.507812 277.429688 244.832031 273 253.484375 L 247.792969 253.460938 Z M 253.410156 239.914062 " fill-opacity="1" fill-rule="nonzero"/><path fill="#040d12" d="M 148.757812 260.265625 L 124.378906 260.265625 C 116.050781 260.265625 109.304688 253.515625 109.304688 245.191406 L 109.304688 195.390625 C 109.304688 187.066406 116.050781 180.316406 124.378906 180.316406 L 148.757812 180.316406 C 157.085938 180.316406 163.835938 187.066406 163.835938 195.390625 L 163.835938 245.191406 C 163.835938 253.515625 157.085938 260.265625 148.757812 260.265625 Z M 148.757812 260.265625 " fill-opacity="1" fill-rule="nonzero"/><g mask="url(#618155895d)"><g transform="matrix(1, 0, 0, 1, 116, 187)"><g clip-path="url(#fea0e71ae6)"><g clip-path="url(#b91b79b69c)"><path fill="#ffffff" d="M 5.445312 0.691406 C 4.53125 0.929688 3.910156 1.765625 3.5 2.617188 C 3.074219 3.488281 2.8125 4.4375 2.601562 5.394531 C 2.1875 7.308594 1.992188 9.277344 1.882812 11.246094 C 1.683594 15.1875 1.765625 19.152344 2.007812 23.097656 C 2.230469 27.050781 2.59375 30.992188 3.070312 34.921875 C 3.300781 36.890625 3.566406 38.851562 3.871094 40.808594 C 4.160156 42.765625 4.488281 44.722656 4.886719 46.660156 L 4.601562 46.722656 C 4.125 44.792969 3.722656 42.847656 3.355469 40.894531 C 3.007812 38.9375 2.699219 36.976562 2.425781 35.003906 C 1.894531 31.070312 1.503906 27.109375 1.269531 23.140625 C 1.070312 19.171875 0.96875 15.1875 1.257812 11.207031 C 1.410156 9.222656 1.636719 7.230469 2.113281 5.277344 C 2.363281 4.308594 2.667969 3.339844 3.144531 2.4375 C 3.382812 1.992188 3.667969 1.554688 4.035156 1.1875 C 4.398438 0.816406 4.859375 0.519531 5.378906 0.40625 Z M 5.445312 0.691406 " fill-opacity="1" fill-rule="nonzero"/></g></g></g></g><path fill="#040d12" d="M 142.949219 176.980469 C 136.28125 173.355469 134.449219 164.367188 139.320312 158.527344 C 139.789062 157.964844 140.308594 157.398438 140.886719 156.824219 C 148.328125 149.414062 143.691406 141.996094 142.652344 124.945312 C 141.613281 107.90625 160.589844 103.253906 160.628906 103.246094 C 161.523438 103.027344 163.253906 100.472656 163.988281 99.839844 C 172.554688 92.410156 184.839844 92.957031 194.230469 98.613281 C 198.699219 101.300781 203.195312 105.445312 205.613281 110.199219 C 209.445312 117.734375 210.140625 127.667969 216.597656 133.535156 C 225.804688 141.902344 236.015625 149.007812 235.601562 162.503906 C 235.457031 167.296875 234.257812 172.363281 231.335938 176.203125 C 228.789062 179.554688 224.910156 181.800781 221.410156 183.96875 C 215.71875 187.488281 209.710938 190.601562 203.359375 192.691406 C 197.210938 194.71875 190.992188 196.539062 184.753906 198.273438 C 184.164062 198.4375 183.574219 198.601562 182.984375 198.761719 Z M 142.949219 176.980469 " fill-opacity="1" fill-rule="nonzero"/><path fill="#f20000" d="M 186.347656 169.617188 C 208.640625 161.960938 220.746094 186.910156 237.394531 235.589844 L 253.410156 239.914062 L 251.550781 257.25 L 245.703125 258.46875 L 197.984375 258.667969 Z M 186.347656 169.617188 " fill-opacity="1" fill-rule="nonzero"/><g clip-path="url(#1ea332f9c8)"><path fill="#ffffff" d="M 384.875 253.117188 L 43.609375 253.117188 L 43.609375 262.089844 L 384.875 262.089844 Z M 384.875 253.117188 " fill-opacity="1" fill-rule="nonzero"/></g><g clip-path="url(#7c688a6ff4)"><path stroke-linecap="butt" transform="matrix(0.209752, 0, 0, 0.209752, -2.954999, -81.484913)" fill="none" stroke-linejoin="miter" d="M 221.997031 1595.281285 L 1848.990995 1595.281285 " stroke="#040d12" stroke-width="6" stroke-opacity="1" stroke-miterlimit="10"/></g><path fill="#f20000" d="M 154.945312 165.988281 L 204.792969 178.464844 L 225.738281 241.222656 L 155.773438 243.351562 L 151.144531 196.949219 Z M 154.945312 165.988281 " fill-opacity="1" fill-rule="nonzero"/><path fill="#040d12" d="M 199.730469 238.152344 C 200.085938 237.59375 207.585938 236.105469 208.433594 236.21875 C 211.222656 236.601562 212.746094 238.785156 213.417969 240.457031 L 202.320312 246.3125 Z M 199.730469 238.152344 " fill-opacity="1" fill-rule="nonzero"/><path fill="#040d12" d="M 208.03125 192.902344 L 209.320312 195.835938 C 209.746094 196.816406 210.140625 197.808594 210.550781 198.792969 C 211.339844 200.78125 212.105469 202.777344 212.820312 204.789062 C 214.269531 208.808594 215.550781 212.886719 216.757812 216.988281 C 217.9375 221.09375 219.003906 225.234375 219.941406 229.402344 C 220.394531 231.492188 220.835938 233.582031 221.222656 235.679688 C 221.605469 237.785156 221.929688 239.898438 222.210938 242.015625 L 221.933594 242.054688 C 221.585938 239.953125 221.183594 237.859375 220.734375 235.777344 C 220.308594 233.691406 219.828125 231.613281 219.335938 229.542969 C 218.351562 225.398438 217.265625 221.277344 216.078125 217.183594 C 214.914062 213.082031 213.617188 209.023438 212.253906 204.988281 C 211.578125 202.964844 210.84375 200.96875 210.101562 198.96875 C 209.722656 197.972656 209.359375 196.972656 208.96875 195.980469 L 207.777344 193.011719 Z M 208.03125 192.902344 " fill-opacity="1" fill-rule="nonzero"/><path fill="#ffffff" d="M 247.878906 248.742188 C 247.878906 248.742188 245.78125 251.222656 239.160156 248.804688 C 236.039062 249.167969 230.238281 248.890625 219.203125 247.089844 C 219.203125 247.089844 223.210938 249.890625 232.273438 250.375 C 232.273438 250.375 231.882812 253.042969 227.109375 252.921875 C 221.359375 252.777344 220.695312 252.433594 215.457031 252.652344 C 214.386719 252.695312 212.058594 252.644531 209.53125 252.566406 C 205.128906 252.421875 200.125 252.1875 200.125 252.1875 L 195.761719 244.386719 L 204.46875 240.214844 C 207.140625 239.167969 208.476562 238.808594 209.777344 238.625 C 215.398438 237.828125 218.949219 237.191406 222.980469 237.886719 C 227.460938 238.65625 241.144531 243.191406 247.878906 248.742188 Z M 247.878906 248.742188 " fill-opacity="1" fill-rule="nonzero"/><path fill="#ff5757" d="M 209.777344 252.433594 L 209.53125 252.566406 C 205.128906 252.421875 200.125 252.1875 200.125 252.1875 L 195.761719 244.386719 L 204.46875 240.214844 C 207.140625 239.167969 208.476562 238.808594 209.777344 238.625 C 206.574219 239.929688 203.953125 243.351562 209.777344 252.433594 Z M 209.777344 252.433594 " fill-opacity="1" fill-rule="nonzero"/><path fill="#f20000" d="M 175.492188 169.53125 C 164.164062 167.210938 136.550781 165.277344 128.835938 179.574219 C 122.484375 191.339844 138.40625 230.753906 145.300781 244.613281 C 148.140625 250.316406 156.386719 253.140625 159.589844 253.164062 L 205.113281 252.898438 C 202.050781 252.1875 198.125 235.753906 208.433594 236.21875 L 170.730469 230.96875 C 169.261719 230.761719 167.949219 229.941406 167.132812 228.707031 C 166.585938 227.878906 165.953125 226.839844 165.628906 225.65625 L 154.929688 186.457031 Z M 175.492188 169.53125 " fill-opacity="1" fill-rule="nonzero"/><path fill="#040d12" d="M 276.222656 253.164062 L 231.804688 253.132812 L 231.804688 248.945312 L 276.480469 248.945312 Z M 276.222656 253.164062 " fill-opacity="1" fill-rule="nonzero"/><path fill="#040d12" d="M 313.75 253.164062 L 260.171875 253.144531 L 279.714844 196 L 333.292969 196.015625 Z M 313.75 253.164062 " fill-opacity="1" fill-rule="nonzero"/><path fill="#ffffff" d="M 301.046875 227.632812 C 299.40625 230.253906 296.335938 231.328125 293.996094 230.179688 C 293.855469 230.113281 293.722656 230.042969 293.589844 229.957031 C 291.203125 228.46875 290.679688 225.007812 292.417969 222.234375 C 294.15625 219.457031 297.492188 218.414062 299.875 219.90625 C 300.597656 220.359375 301.140625 220.984375 301.511719 221.71875 C 302.367188 223.417969 302.257812 225.695312 301.046875 227.632812 Z M 301.046875 227.632812 " fill-opacity="1" fill-rule="nonzero"/><path fill="#f20000" d="M 301.046875 227.632812 C 299.40625 230.253906 295.371094 232.160156 292.542969 229.039062 C 298.675781 229.597656 300.742188 225.578125 300.628906 220.5 C 302.726562 222.820312 302.257812 225.695312 301.046875 227.632812 Z M 301.046875 227.632812 " fill-opacity="1" fill-rule="nonzero"/><path fill="#040d12" d="M 223.007812 237.742188 C 225.285156 238.078125 227.488281 238.714844 229.671875 239.390625 C 231.855469 240.078125 234.003906 240.878906 236.113281 241.765625 C 238.234375 242.628906 240.300781 243.625 242.308594 244.730469 C 244.308594 245.855469 246.25 247.101562 247.972656 248.632812 L 247.785156 248.855469 C 246.875 248.179688 245.9375 247.546875 244.964844 246.964844 C 244 246.371094 243.007812 245.824219 242 245.304688 C 239.992188 244.257812 237.933594 243.296875 235.828125 242.445312 C 233.75 241.527344 231.613281 240.75 229.472656 239.988281 C 228.402344 239.609375 227.324219 239.253906 226.238281 238.925781 C 225.15625 238.585938 224.058594 238.273438 222.957031 238.027344 Z M 223.007812 237.742188 " fill-opacity="1" fill-rule="nonzero"/><path fill="#040d12" d="M 222.121094 248.316406 L 224.519531 249.003906 C 225.320312 249.214844 226.121094 249.402344 226.925781 249.566406 C 227.734375 249.730469 228.546875 249.859375 229.363281 249.972656 C 230.179688 250.082031 231 250.164062 231.824219 250.246094 L 232.097656 250.273438 L 232.117188 250.507812 C 232.148438 250.832031 232.113281 251.105469 232.03125 251.394531 C 231.941406 251.675781 231.78125 251.953125 231.550781 252.148438 C 231.316406 252.34375 231.042969 252.46875 230.769531 252.527344 C 230.632812 252.5625 230.496094 252.570312 230.359375 252.585938 L 229.957031 252.578125 L 229.957031 252.285156 L 230.320312 252.230469 C 230.433594 252.199219 230.550781 252.179688 230.65625 252.136719 C 230.871094 252.058594 231.058594 251.933594 231.199219 251.785156 C 231.339844 251.632812 231.433594 251.449219 231.480469 251.242188 C 231.523438 251.039062 231.527344 250.792969 231.496094 250.613281 L 231.792969 250.875 C 230.105469 250.84375 228.421875 250.644531 226.777344 250.261719 C 225.953125 250.074219 225.140625 249.832031 224.347656 249.546875 C 223.550781 249.277344 222.78125 248.941406 222.019531 248.589844 Z M 222.121094 248.316406 " fill-opacity="1" fill-rule="nonzero"/><path fill="#040d12" d="M 220.09375 242.542969 C 222.019531 242.789062 223.957031 242.980469 225.894531 243.175781 C 227.832031 243.390625 229.773438 243.578125 231.710938 243.882812 C 233.636719 244.191406 235.554688 244.542969 237.472656 244.890625 C 239.386719 245.242188 241.304688 245.59375 243.214844 245.976562 L 243.667969 246.070312 L 243.472656 246.488281 C 243.347656 246.765625 243.226562 247.179688 242.980469 247.519531 C 242.875 247.703125 242.710938 247.84375 242.570312 248 C 242.40625 248.121094 242.242188 248.257812 242.070312 248.355469 C 241.367188 248.765625 240.613281 248.902344 239.878906 249.050781 C 238.402344 249.289062 236.929688 249.28125 235.464844 249.230469 C 234.734375 249.203125 234.003906 249.171875 233.277344 249.109375 C 232.546875 249.054688 231.820312 249 231.097656 248.910156 C 229.644531 248.757812 228.203125 248.550781 226.761719 248.34375 L 226.800781 248.054688 C 228.25 248.171875 229.691406 248.332031 231.140625 248.417969 C 231.863281 248.476562 232.585938 248.519531 233.308594 248.550781 C 234.035156 248.597656 234.753906 248.609375 235.476562 248.617188 C 236.917969 248.625 238.371094 248.601562 239.765625 248.367188 C 240.449219 248.230469 241.152344 248.085938 241.707031 247.746094 C 241.851562 247.664062 241.964844 247.558594 242.09375 247.46875 C 242.191406 247.351562 242.316406 247.257812 242.386719 247.121094 C 242.570312 246.867188 242.648438 246.570312 242.816406 246.183594 L 243.078125 246.691406 C 239.253906 245.972656 235.429688 245.199219 231.601562 244.539062 C 229.699219 244.1875 227.765625 243.957031 225.832031 243.699219 C 223.90625 243.429688 221.96875 243.183594 220.046875 242.828125 Z M 220.09375 242.542969 " fill-opacity="1" fill-rule="nonzero"/><path fill="#040d12" d="M 169.917969 184.382812 C 171.5625 185.503906 173.398438 186.320312 175.3125 186.769531 C 177.226562 187.210938 179.222656 187.328125 181.152344 186.996094 C 183.082031 186.6875 184.945312 185.941406 186.507812 184.773438 C 188.085938 183.621094 189.339844 182.042969 190.222656 180.261719 L 190.488281 180.375 C 190.28125 180.839844 190.070312 181.304688 189.851562 181.765625 C 189.601562 182.210938 189.308594 182.632812 189.039062 183.066406 C 188.734375 183.484375 188.375 183.855469 188.046875 184.25 C 187.691406 184.621094 187.285156 184.941406 186.902344 185.289062 C 185.28125 186.574219 183.308594 187.390625 181.273438 187.722656 C 179.234375 188.035156 177.136719 187.925781 175.160156 187.378906 C 173.179688 186.84375 171.316406 185.902344 169.742188 184.613281 Z M 169.917969 184.382812 " fill-opacity="1" fill-rule="nonzero"/><path fill="#040d12" d="M 156.835938 192.917969 L 159.324219 201.367188 L 161.769531 209.828125 L 164.191406 218.296875 L 165.996094 224.648438 C 166.203125 225.355469 166.371094 226.078125 166.652344 226.691406 C 167.195312 227.972656 168.300781 228.917969 169.546875 229.570312 C 170.8125 230.21875 172.210938 230.617188 173.625 230.929688 C 175.046875 231.234375 176.488281 231.441406 177.945312 231.632812 L 182.308594 232.21875 L 191.03125 233.429688 L 199.75 234.683594 L 199.710938 234.957031 L 190.964844 233.921875 L 182.226562 232.835938 L 177.859375 232.28125 C 176.40625 232.101562 174.933594 231.898438 173.484375 231.59375 C 172.035156 231.277344 170.585938 230.875 169.226562 230.191406 C 167.890625 229.507812 166.617188 228.4375 166.007812 226.984375 C 165.917969 226.808594 165.855469 226.625 165.796875 226.441406 C 165.734375 226.257812 165.667969 226.070312 165.621094 225.898438 L 165.324219 224.835938 L 164.734375 222.714844 L 163.546875 218.476562 L 161.191406 209.992188 L 158.859375 201.5 L 156.570312 192.996094 Z M 156.835938 192.917969 " fill-opacity="1" fill-rule="nonzero"/><path fill="#ffffff" d="M 185.152344 151.804688 L 187.382812 171.023438 C 188.046875 176.742188 182.019531 181.539062 175.90625 179.953125 C 172.414062 179.042969 168.773438 176.628906 165.003906 172.992188 C 164.230469 172.246094 163.761719 171.277344 163.65625 170.25 L 161.273438 147.085938 Z M 185.152344 151.804688 " fill-opacity="1" fill-rule="nonzero"/><path fill="#040d12" d="M 185.453125 154.417969 L 186.671875 164.882812 C 181.730469 165.65625 174.769531 162.882812 167.707031 153.507812 Z M 185.453125 154.417969 " fill-opacity="1" fill-rule="nonzero"/><path fill="#ffffff" d="M 197.632812 137.96875 C 197.347656 141.453125 196.796875 145.097656 195.820312 148.367188 C 194.167969 153.867188 191.285156 158.300781 186.347656 159.121094 C 171.8125 161.535156 161.277344 147.085938 161.277344 147.085938 L 159.585938 127.421875 L 168.359375 112.242188 L 188.003906 111.675781 L 197.585938 123.007812 C 197.585938 123.007812 198.28125 130.074219 197.632812 137.96875 Z M 197.632812 137.96875 " fill-opacity="1" fill-rule="nonzero"/><path fill="#040d12" d="M 159.117188 134.894531 C 166.921875 134.308594 168.714844 127.714844 169.25 119.167969 C 169.25 119.167969 190.386719 113.933594 197.890625 128.957031 L 203.578125 129.574219 L 186.347656 106.699219 L 159.566406 109.894531 L 154.328125 127.277344 Z M 159.117188 134.894531 " fill-opacity="1" fill-rule="nonzero"/><path fill="#ffffff" d="M 163.246094 132.332031 C 162.328125 131.320312 160.957031 130.804688 159.597656 130.96875 C 154.414062 131.597656 153.515625 138.460938 154.699219 141.382812 C 156.472656 145.753906 161.277344 147.085938 161.277344 147.085938 L 165.402344 142.71875 C 165.734375 138.175781 165.214844 134.503906 163.246094 132.332031 Z M 163.246094 132.332031 " fill-opacity="1" fill-rule="nonzero"/><path fill="#040d12" d="M 161.277344 147.085938 C 164.039062 152.328125 171.761719 178.277344 158.605469 176.777344 C 152.261719 176.054688 150.707031 168.414062 141.511719 170.207031 Z M 161.277344 147.085938 " fill-opacity="1" fill-rule="nonzero"/><path fill="#040d12" d="M 161.726562 137.082031 C 161.75 136.476562 161.554688 135.917969 161.253906 135.445312 C 160.949219 134.976562 160.519531 134.585938 160.039062 134.375 C 159.554688 134.152344 159.03125 134.113281 158.535156 134.292969 C 158.035156 134.46875 157.585938 134.863281 157.148438 135.320312 L 156.832031 135.128906 C 157.082031 134.503906 157.511719 133.882812 158.195312 133.53125 C 158.367188 133.445312 158.539062 133.355469 158.734375 133.328125 C 158.925781 133.28125 159.117188 133.242188 159.3125 133.257812 L 159.605469 133.269531 L 159.890625 133.328125 C 160.082031 133.359375 160.257812 133.429688 160.433594 133.511719 C 161.121094 133.839844 161.660156 134.394531 161.96875 135.058594 C 162.285156 135.714844 162.347656 136.503906 162.089844 137.164062 Z M 161.726562 137.082031 " fill-opacity="1" fill-rule="nonzero"/><path fill="#040d12" d="M 189.539062 134.152344 C 189.585938 135.492188 190.367188 136.546875 191.28125 136.515625 C 192.191406 136.484375 192.894531 135.375 192.847656 134.039062 C 192.800781 132.703125 192.023438 131.644531 191.109375 131.675781 C 190.195312 131.707031 189.492188 132.816406 189.539062 134.152344 Z M 189.539062 134.152344 " fill-opacity="1" fill-rule="nonzero"/><path fill="#040d12" d="M 175.128906 134.660156 C 175.175781 135.996094 175.953125 137.050781 176.867188 137.019531 C 177.78125 136.988281 178.484375 135.878906 178.4375 134.542969 C 178.390625 133.207031 177.609375 132.148438 176.699219 132.179688 C 175.785156 132.210938 175.082031 133.324219 175.128906 134.660156 Z M 175.128906 134.660156 " fill-opacity="1" fill-rule="nonzero"/><path fill="#040d12" d="M 189.359375 147.757812 C 188.730469 148.550781 187.96875 149.292969 186.980469 149.785156 C 185.988281 150.261719 184.765625 150.324219 183.71875 150.015625 C 182.660156 149.714844 181.761719 149.140625 180.953125 148.503906 C 180.136719 147.871094 179.4375 147.125 178.804688 146.335938 L 179.105469 146.027344 C 179.925781 146.59375 180.699219 147.203125 181.515625 147.714844 C 182.324219 148.230469 183.15625 148.710938 184.023438 148.960938 C 184.890625 149.21875 185.765625 149.203125 186.617188 148.914062 C 187.460938 148.601562 188.257812 148.039062 189.054688 147.453125 Z M 189.359375 147.757812 " fill-opacity="1" fill-rule="nonzero"/><path fill="#040d12" d="M 194.417969 130.023438 C 193.777344 129.582031 193.175781 129.160156 192.566406 128.886719 C 191.953125 128.625 191.363281 128.488281 190.757812 128.558594 C 190.148438 128.617188 189.527344 128.828125 188.882812 129.109375 C 188.234375 129.390625 187.601562 129.769531 186.871094 130.09375 L 186.671875 129.882812 C 187.070312 129.1875 187.589844 128.5625 188.253906 128.0625 C 188.914062 127.570312 189.730469 127.1875 190.644531 127.117188 C 191.558594 127.03125 192.503906 127.359375 193.179688 127.890625 C 193.867188 128.417969 194.351562 129.101562 194.644531 129.847656 Z M 194.417969 130.023438 " fill-opacity="1" fill-rule="nonzero"/><path fill="#040d12" d="M 179.980469 130.53125 C 179.285156 130.039062 178.605469 129.664062 177.898438 129.4375 C 177.191406 129.222656 176.476562 129.136719 175.761719 129.222656 C 175.042969 129.300781 174.328125 129.503906 173.609375 129.796875 C 172.894531 130.09375 172.1875 130.480469 171.402344 130.855469 L 171.203125 130.644531 C 171.652344 129.886719 172.269531 129.226562 173.019531 128.710938 C 173.765625 128.195312 174.667969 127.847656 175.625 127.761719 C 176.574219 127.667969 177.570312 127.878906 178.386719 128.359375 C 179.207031 128.824219 179.859375 129.535156 180.207031 130.355469 Z M 179.980469 130.53125 " fill-opacity="1" fill-rule="nonzero"/><path fill="#040d12" d="M 184.398438 132.71875 C 184.660156 133.847656 185.175781 134.875 185.800781 135.835938 C 186.429688 136.800781 187.167969 137.699219 187.910156 138.640625 C 188.101562 138.875 188.28125 139.121094 188.457031 139.382812 C 188.636719 139.648438 188.8125 139.917969 188.949219 140.289062 C 189.015625 140.476562 189.078125 140.707031 189.019531 141.003906 C 188.9375 141.347656 188.796875 141.460938 188.683594 141.621094 C 188.4375 141.898438 188.179688 142.097656 187.914062 142.277344 C 186.855469 142.984375 185.730469 143.421875 184.566406 143.78125 L 184.402344 143.382812 C 184.910156 143.082031 185.429688 142.796875 185.921875 142.476562 C 186.414062 142.167969 186.90625 141.847656 187.335938 141.5 C 187.546875 141.324219 187.746094 141.144531 187.886719 140.964844 C 187.945312 140.882812 188.011719 140.765625 187.984375 140.808594 C 187.984375 140.816406 187.972656 140.746094 187.9375 140.652344 C 187.78125 140.257812 187.386719 139.773438 187.042969 139.3125 C 186.324219 138.378906 185.570312 137.410156 184.992188 136.316406 C 184.402344 135.238281 183.992188 134.011719 183.96875 132.769531 Z M 184.398438 132.71875 " fill-opacity="1" fill-rule="nonzero"/><path fill="#ffffff" d="M 156.65625 148.523438 C 156.324219 149.261719 156.214844 150.078125 156.265625 150.882812 C 156.320312 151.691406 156.53125 152.488281 156.832031 153.246094 C 157.46875 154.75 158.320312 156.226562 159.070312 157.746094 C 159.832031 159.261719 160.5 160.871094 160.808594 162.601562 C 160.953125 163.464844 161 164.351562 160.933594 165.234375 C 160.875 165.675781 160.832031 166.113281 160.714844 166.558594 C 160.589844 166.996094 160.445312 167.429688 160.226562 167.832031 C 159.816406 168.648438 159.191406 169.371094 158.394531 169.871094 C 157.601562 170.382812 156.621094 170.597656 155.6875 170.503906 C 154.742188 170.386719 153.949219 170.042969 153.15625 169.726562 C 152.367188 169.398438 151.597656 169.054688 150.832031 168.710938 C 149.304688 168.035156 147.757812 167.382812 146.152344 167.082031 C 145.351562 166.933594 144.535156 166.886719 143.773438 167.085938 C 143.398438 167.191406 143.042969 167.359375 142.730469 167.59375 C 142.414062 167.828125 142.160156 168.136719 141.933594 168.46875 L 141.613281 168.28125 C 141.832031 167.898438 142.09375 167.53125 142.441406 167.234375 C 142.789062 166.945312 143.191406 166.722656 143.621094 166.578125 C 144.488281 166.300781 145.394531 166.308594 146.253906 166.425781 C 147.984375 166.691406 149.589844 167.316406 151.15625 167.945312 L 153.488281 168.914062 C 154.253906 169.21875 155.042969 169.527344 155.777344 169.605469 C 156.519531 169.667969 157.269531 169.492188 157.894531 169.082031 C 158.527344 168.683594 159.035156 168.078125 159.394531 167.398438 C 159.582031 167.0625 159.707031 166.691406 159.820312 166.320312 C 159.917969 165.953125 159.960938 165.546875 160.023438 165.152344 C 160.089844 164.355469 160.054688 163.546875 159.929688 162.75 C 159.664062 161.148438 159.039062 159.605469 158.347656 158.089844 C 157.65625 156.5625 156.847656 155.09375 156.226562 153.46875 C 155.949219 152.644531 155.761719 151.78125 155.746094 150.902344 C 155.726562 150.027344 155.90625 149.132812 156.328125 148.355469 Z M 156.65625 148.523438 " fill-opacity="1" fill-rule="nonzero"/><path fill="#ffffff" d="M 156.925781 104.347656 C 158.347656 103.703125 159.839844 103.242188 161.34375 102.847656 C 162.84375 102.449219 164.371094 102.148438 165.90625 101.910156 C 167.441406 101.679688 168.992188 101.515625 170.550781 101.472656 C 171.328125 101.453125 172.109375 101.453125 172.890625 101.492188 C 173.667969 101.542969 174.449219 101.632812 175.21875 101.792969 L 175.167969 102.160156 C 174.402344 102.136719 173.644531 102.109375 172.882812 102.15625 C 172.121094 102.171875 171.359375 102.226562 170.597656 102.296875 C 169.078125 102.4375 167.558594 102.621094 166.046875 102.84375 C 164.53125 103.066406 163.027344 103.339844 161.523438 103.628906 C 160.769531 103.773438 160.023438 103.941406 159.277344 104.121094 C 158.527344 104.28125 157.796875 104.492188 157.054688 104.691406 Z M 156.925781 104.347656 " fill-opacity="1" fill-rule="nonzero"/><path stroke-linecap="butt" transform="matrix(0.209752, 0, 0, 0.209752, -2.954999, -81.484913)" fill-opacity="1" fill="#ffffff" fill-rule="nonzero" stroke-linejoin="miter" d="M 1512.787043 1225.648756 L 1436.80454 1225.648756 C 1424.382891 1225.648756 1414.214644 1215.499133 1414.214644 1203.05886 L 1414.214644 1134.655985 C 1414.214644 1122.215712 1424.382891 1112.066089 1436.80454 1112.066089 L 1512.787043 1112.066089 C 1525.208692 1112.066089 1535.376939 1122.215712 1535.376939 1134.655985 L 1535.376939 1203.05886 C 1535.376939 1215.499133 1525.208692 1225.648756 1512.787043 1225.648756 Z M 1512.787043 1225.648756 " stroke="#040d12" stroke-width="3.75" stroke-opacity="1" stroke-miterlimit="10"/><path fill="#040d12" d="M 306.386719 180.308594 L 301.765625 175.597656 L 311.007812 175.597656 Z M 306.386719 180.308594 " fill-opacity="1" fill-rule="nonzero"/><path fill="#040d12" d="M 305.980469 170.4375 C 305.734375 170.4375 305.5 170.328125 305.339844 170.140625 L 300.71875 164.707031 C 300.414062 164.351562 300.460938 163.820312 300.816406 163.519531 C 301.167969 163.214844 301.703125 163.261719 302.003906 163.613281 L 305.832031 168.117188 L 311.800781 157.367188 C 312.027344 156.960938 312.539062 156.816406 312.945312 157.039062 C 313.351562 157.265625 313.5 157.78125 313.273438 158.1875 L 306.71875 170 C 306.585938 170.242188 306.339844 170.40625 306.066406 170.433594 C 306.039062 170.4375 306.007812 170.4375 305.980469 170.4375 Z M 305.980469 170.4375 " fill-opacity="1" fill-rule="nonzero"/><path fill="#ff5757" d="M 301.710938 113.039062 L 310.089844 113.039062 L 303.398438 69.714844 L 295.015625 69.714844 Z M 301.710938 113.039062 " fill-opacity="1" fill-rule="nonzero"/><path fill="#f20000" d="M 310.097656 113.039062 L 318.476562 113.039062 L 311.785156 69.714844 L 303.40625 69.714844 Z M 310.097656 113.039062 " fill-opacity="1" fill-rule="nonzero"/><path fill="#ff5757" d="M 352.558594 93.136719 L 321.628906 93.136719 L 321.628906 113.035156 L 352.558594 113.035156 Z M 352.558594 93.136719 " fill-opacity="1" fill-rule="nonzero"/><path fill="#ffffff" d="M 343.632812 99.601562 L 330.554688 99.601562 L 330.554688 103.085938 L 343.632812 103.085938 Z M 343.632812 99.601562 " fill-opacity="1" fill-rule="nonzero"/><path fill="#f20000" d="M 295.015625 56.621094 L 280.464844 56.621094 L 280.464844 113.035156 L 295.015625 113.035156 Z M 295.015625 56.621094 " fill-opacity="1" fill-rule="nonzero"/><path fill="#ff5757" d="M 359.726562 113.035156 L 272.625 113.035156 L 272.625 119.296875 L 359.726562 119.296875 Z M 359.726562 113.035156 " fill-opacity="1" fill-rule="nonzero"/><path fill="#ffffff" d="M 227.699219 51.324219 C 238.636719 40.390625 238.636719 22.660156 227.699219 11.726562 C 216.765625 0.792969 199.039062 0.792969 188.105469 11.726562 C 177.171875 22.660156 177.171875 40.390625 188.105469 51.324219 C 199.039062 62.257812 216.765625 62.257812 227.699219 51.324219 Z M 227.699219 51.324219 " fill-opacity="1" fill-rule="nonzero"/><g clip-path="url(#979817cd75)"><path stroke-linecap="butt" transform="matrix(0.209752, 0, 0, 0.209752, -2.954999, -81.484913)" fill="none" stroke-linejoin="miter" d="M 1099.650807 633.171466 C 1151.795662 581.045235 1151.795662 496.5147 1099.650807 444.388469 C 1047.524576 392.262237 963.012664 392.262237 910.886433 444.388469 C 858.760201 496.5147 858.760201 581.045235 910.886433 633.171466 C 963.012664 685.297698 1047.524576 685.297698 1099.650807 633.171466 Z M 1099.650807 633.171466 " stroke="#040d12" stroke-width="5" stroke-opacity="1" stroke-miterlimit="10"/></g><path stroke-linecap="butt" transform="matrix(0.209752, 0, 0, 0.209752, -2.954999, -81.484913)" fill-opacity="1" fill="#040d12" fill-rule="nonzero" stroke-linejoin="miter" d="M 1059.4434 562.459319 L 1057.841808 565.830111 L 1001.935074 539.254858 L 1063.317017 485.173194 L 1065.775275 487.985292 L 1009.198107 537.802252 L 1008.639412 538.305077 L 1009.328469 538.640294 Z M 1059.4434 562.459319 " stroke="#040d12" stroke-width="1" stroke-opacity="1" stroke-miterlimit="4"/><path fill="#f20000" d="M 118.921875 83.589844 L 75.300781 83.589844 C 71.921875 83.589844 69.179688 80.847656 69.179688 77.464844 L 69.179688 52.941406 C 69.179688 49.5625 71.921875 46.820312 75.300781 46.820312 L 118.921875 46.820312 C 122.300781 46.820312 125.042969 49.5625 125.042969 52.941406 L 125.042969 77.464844 C 125.042969 80.847656 122.300781 83.589844 118.921875 83.589844 Z M 118.921875 83.589844 " fill-opacity="1" fill-rule="nonzero"/><path fill="#ff5757" d="M 117.976562 56.046875 L 76.246094 56.046875 L 76.246094 59.523438 L 117.976562 59.523438 Z M 117.976562 56.046875 " fill-opacity="1" fill-rule="nonzero"/><g mask="url(#5ff63dd9d0)"><g transform="matrix(1, 0, 0, 1, 75, 63)"><g clip-path="url(#cd4f2fa517)"><g clip-path="url(#4eda9a7596)"><path fill="#ffffff" d="M 42.976562 0.46875 L 1.246094 0.46875 L 1.246094 3.941406 L 42.976562 3.941406 Z M 42.976562 0.46875 " fill-opacity="1" fill-rule="nonzero"/></g></g></g></g><g mask="url(#8c9a6e4076)"><g transform="matrix(1, 0, 0, 1, 75, 70)"><g clip-path="url(#2714f0885e)"><g clip-path="url(#c53e638d0a)"><path fill="#ffffff" d="M 42.976562 0.886719 L 1.246094 0.886719 L 1.246094 4.359375 L 42.976562 4.359375 Z M 42.976562 0.886719 " fill-opacity="1" fill-rule="nonzero"/></g></g></g></g><path fill="#ff5757" d="M 83.296875 120.796875 L 75.367188 114.59375 L 91.230469 114.59375 Z M 83.296875 120.796875 " fill-opacity="1" fill-rule="nonzero"/><g clip-path="url(#2a3cbf5bff)"><path fill="#ff5757" d="M 93.367188 114.597656 L 49.75 114.597656 C 46.367188 114.597656 43.625 111.855469 43.625 108.476562 L 43.625 83.953125 C 43.625 80.570312 46.367188 77.832031 49.75 77.832031 L 93.367188 77.832031 C 96.75 77.832031 99.488281 80.570312 99.488281 83.953125 L 99.488281 108.476562 C 99.488281 111.855469 96.75 114.597656 93.367188 114.597656 Z M 93.367188 114.597656 " fill-opacity="1" fill-rule="nonzero"/></g><g mask="url(#b01db12d31)"><g transform="matrix(1, 0, 0, 1, 55, 86)"><g clip-path="url(#d8911763f5)"><g clip-path="url(#b8a29a3a94)"><path fill="#ffffff" d="M 5.851562 12.8125 L 0.441406 12.8125 L 0.441406 19.496094 L 5.851562 19.496094 Z M 5.851562 12.8125 " fill-opacity="1" fill-rule="nonzero"/></g><g clip-path="url(#a7273fd35d)"><path fill="#ffffff" d="M 14.535156 5.371094 L 9.125 5.371094 L 9.125 19.496094 L 14.535156 19.496094 Z M 14.535156 5.371094 " fill-opacity="1" fill-rule="nonzero"/></g><g clip-path="url(#7d1d4c4ab3)"><path fill="#ffffff" d="M 23.605469 8.578125 L 18.195312 8.578125 L 18.195312 19.496094 L 23.605469 19.496094 Z M 23.605469 8.578125 " fill-opacity="1" fill-rule="nonzero"/></g><g clip-path="url(#9b21be1cdd)"><path fill="#ffffff" d="M 32.671875 0.933594 L 27.265625 0.933594 L 27.265625 19.496094 L 32.671875 19.496094 Z M 32.671875 0.933594 " fill-opacity="1" fill-rule="nonzero"/></g></g></g></g></svg>