<svg xmlns="http://www.w3.org/2000/svg" xmlns:xlink="http://www.w3.org/1999/xlink" width="310" zoomAndPan="magnify" viewBox="0 0 232.5 299.999988" height="400" preserveAspectRatio="xMidYMid meet" version="1.0"><defs><filter x="0%" y="0%" width="100%" height="100%" id="d2b10b543c"><feColorMatrix values="0 0 0 0 1 0 0 0 0 1 0 0 0 0 1 0 0 0 1 0" color-interpolation-filters="sRGB"/></filter><clipPath id="7e0bc4e29a"><path d="M 0 14 L 70.59375 14 L 70.59375 47.671875 L 0 47.671875 Z M 0 14 " clip-rule="nonzero"/></clipPath><clipPath id="cb64f7437b"><path d="M 0 253 L 232 253 L 232 299.675781 L 0 299.675781 Z M 0 253 " clip-rule="nonzero"/></clipPath><mask id="ebf29c2a51"><g filter="url(#d2b10b543c)"><rect x="-23.25" width="279" fill="#000000" y="-29.999999" height="359.999986" fill-opacity="0.11"/></g></mask><clipPath id="739843df3e"><path d="M 0.71875 2 L 231.742188 2 L 231.742188 46.675781 L 0.71875 46.675781 Z M 0.71875 2 " clip-rule="nonzero"/></clipPath><clipPath id="e024299893"><rect x="0" width="232" y="0" height="47"/></clipPath></defs><g clip-path="url(#7e0bc4e29a)"><path fill="#ff443a" d="M 70.59375 30.800781 C 70.59375 39.976562 63.152344 47.382812 53.925781 47.382812 L -7.78125 47.382812 C -17.007812 47.445312 -24.449219 39.976562 -24.449219 30.800781 C -24.449219 21.625 -17.007812 14.21875 -7.78125 14.21875 L 53.863281 14.21875 C 63.152344 14.21875 70.59375 21.625 70.59375 30.800781 Z M 70.59375 30.800781 " fill-opacity="1" fill-rule="nonzero"/></g><g clip-path="url(#cb64f7437b)"><g mask="url(#ebf29c2a51)"><g transform="matrix(1, 0, 0, 1, 0, 253)"><g clip-path="url(#e024299893)"><g clip-path="url(#739843df3e)"><path fill="#ff4a17" d="M 0.875 2.636719 L 0.875 108.757812 L 231.554688 108.757812 L 231.554688 9.148438 C 228.589844 11.167969 225.964844 13.328125 223.804688 15.585938 C 191.667969 49.351562 134.433594 40.808594 97.183594 22.882812 C 69.164062 9.390625 33.742188 -0.0898438 0.875 2.636719 Z M 0.875 2.636719 " fill-opacity="1" fill-rule="evenodd"/></g></g></g></g></g></svg>