<svg xmlns="http://www.w3.org/2000/svg" xmlns:xlink="http://www.w3.org/1999/xlink" width="40" zoomAndPan="magnify" viewBox="0 0 30 30.000001" height="40" preserveAspectRatio="xMidYMid meet" version="1.0"><defs><g/><clipPath id="f84d655c82"><path d="M 1.269531 0.859375 L 28.78125 0.859375 L 28.78125 28.160156 L 1.269531 28.160156 Z M 1.269531 0.859375 " clip-rule="nonzero"/></clipPath><clipPath id="e0ed2b3882"><path d="M 5.621094 0.859375 L 24.378906 0.859375 C 25.53125 0.859375 26.640625 1.320312 27.457031 2.136719 C 28.273438 2.953125 28.730469 4.0625 28.730469 5.214844 L 28.730469 23.804688 C 28.730469 26.210938 26.78125 28.160156 24.378906 28.160156 L 5.621094 28.160156 C 3.21875 28.160156 1.269531 26.210938 1.269531 23.804688 L 1.269531 5.214844 C 1.269531 2.8125 3.21875 0.859375 5.621094 0.859375 Z M 5.621094 0.859375 " clip-rule="nonzero"/></clipPath><clipPath id="50f88d1a1b"><path d="M 1.269531 0.863281 L 28.75 0.863281 L 28.75 28.210938 L 1.269531 28.210938 Z M 1.269531 0.863281 " clip-rule="nonzero"/></clipPath><clipPath id="608091c640"><path d="M 5.621094 0.863281 L 24.371094 0.863281 C 25.523438 0.863281 26.632812 1.324219 27.449219 2.140625 C 28.265625 2.957031 28.722656 4.0625 28.722656 5.21875 L 28.722656 23.800781 C 28.722656 26.207031 26.773438 28.15625 24.371094 28.15625 L 5.621094 28.15625 C 3.21875 28.15625 1.269531 26.207031 1.269531 23.800781 L 1.269531 5.21875 C 1.269531 2.8125 3.21875 0.863281 5.621094 0.863281 Z M 5.621094 0.863281 " clip-rule="nonzero"/></clipPath></defs><g clip-path="url(#f84d655c82)"><g clip-path="url(#e0ed2b3882)"><path fill="#fe2424" d="M 1.269531 0.859375 L 28.78125 0.859375 L 28.78125 28.160156 L 1.269531 28.160156 Z M 1.269531 0.859375 " fill-opacity="1" fill-rule="nonzero"/></g></g><g clip-path="url(#50f88d1a1b)"><g clip-path="url(#608091c640)"><path stroke-linecap="butt" transform="matrix(0.725806, 0, 0, 0.725806, 1.267741, 0.864135)" fill="none" stroke-linejoin="miter" d="M 5.997952 -0.0011762 L 31.831286 -0.0011762 C 33.418959 -0.0011762 34.947432 0.633893 36.072258 1.75872 C 37.197084 2.883546 37.826772 4.406636 37.826772 5.999692 L 37.826772 31.601602 C 37.826772 34.91688 35.141182 37.60247 31.831286 37.60247 L 5.997952 37.60247 C 2.688056 37.60247 0.00246602 34.91688 0.00246602 31.601602 L 0.00246602 5.999692 C 0.00246602 2.684414 2.688056 -0.0011762 5.997952 -0.0011762 Z M 5.997952 -0.0011762 " stroke="#000000" stroke-width="2" stroke-opacity="1" stroke-miterlimit="4"/></g></g><g fill="#ffffff" fill-opacity="1"><g transform="translate(1.551814, 22.052334)"><g><path d="M 7 0.234375 C 5.84375 0.234375 4.816406 -0.00390625 3.921875 -0.484375 C 3.023438 -0.972656 2.328125 -1.6875 1.828125 -2.625 C 1.328125 -3.5625 1.078125 -4.6875 1.078125 -6 C 1.078125 -7.320312 1.328125 -8.453125 1.828125 -9.390625 C 2.328125 -10.328125 3.019531 -11.035156 3.90625 -11.515625 C 4.789062 -12.003906 5.804688 -12.25 6.953125 -12.25 C 9.484375 -12.25 11.109375 -11.328125 11.828125 -9.484375 L 9.75 -8 L 9.515625 -8 C 9.273438 -8.570312 8.957031 -8.992188 8.5625 -9.265625 C 8.164062 -9.546875 7.628906 -9.6875 6.953125 -9.6875 C 6.078125 -9.6875 5.394531 -9.382812 4.90625 -8.78125 C 4.425781 -8.175781 4.1875 -7.25 4.1875 -6 C 4.1875 -4.769531 4.429688 -3.847656 4.921875 -3.234375 C 5.421875 -2.628906 6.113281 -2.328125 7 -2.328125 C 7.65625 -2.328125 8.207031 -2.503906 8.65625 -2.859375 C 9.113281 -3.210938 9.441406 -3.71875 9.640625 -4.375 L 9.875 -4.40625 L 12.015625 -3.21875 C 11.710938 -2.207031 11.148438 -1.378906 10.328125 -0.734375 C 9.503906 -0.0859375 8.394531 0.234375 7 0.234375 Z M 7 0.234375 "/></g></g></g><g fill="#ffffff" fill-opacity="1"><g transform="translate(13.938686, 22.052334)"><g><path d="M 8.40625 0.234375 C 6.863281 0.234375 5.722656 -0.34375 4.984375 -1.5 L 4.75 -1.453125 L 4.75 0 L 1.734375 0 L 1.734375 -16.84375 L 4.75 -16.84375 L 4.75 -10.59375 L 4.984375 -10.5625 C 5.390625 -11.132812 5.875 -11.554688 6.4375 -11.828125 C 7 -12.109375 7.675781 -12.25 8.46875 -12.25 C 9.4375 -12.25 10.285156 -12.019531 11.015625 -11.5625 C 11.742188 -11.101562 12.3125 -10.40625 12.71875 -9.46875 C 13.125 -8.539062 13.328125 -7.382812 13.328125 -6 C 13.328125 -4.632812 13.113281 -3.484375 12.6875 -2.546875 C 12.269531 -1.617188 11.691406 -0.921875 10.953125 -0.453125 C 10.210938 0.00390625 9.363281 0.234375 8.40625 0.234375 Z M 7.484375 -2.328125 C 8.367188 -2.328125 9.039062 -2.625 9.5 -3.21875 C 9.96875 -3.8125 10.203125 -4.738281 10.203125 -6 C 10.203125 -7.269531 9.96875 -8.203125 9.5 -8.796875 C 9.039062 -9.390625 8.367188 -9.6875 7.484375 -9.6875 C 6.628906 -9.6875 5.953125 -9.378906 5.453125 -8.765625 C 4.960938 -8.160156 4.71875 -7.238281 4.71875 -6 C 4.71875 -4.769531 4.960938 -3.847656 5.453125 -3.234375 C 5.953125 -2.628906 6.628906 -2.328125 7.484375 -2.328125 Z M 7.484375 -2.328125 "/></g></g></g></svg>