<svg xmlns="http://www.w3.org/2000/svg" xmlns:xlink="http://www.w3.org/1999/xlink" width="80" zoomAndPan="magnify" viewBox="0 0 60 60" height="80" preserveAspectRatio="xMidYMid meet" version="1.0"><defs><clipPath id="958dd115f5"><path d="M 24 3.828125 L 34 3.828125 L 34 13 L 24 13 Z M 24 3.828125 " clip-rule="nonzero"/></clipPath><clipPath id="be946b0e46"><path d="M 5.386719 46 L 24 46 L 24 56.328125 L 5.386719 56.328125 Z M 5.386719 46 " clip-rule="nonzero"/></clipPath><clipPath id="f97d56ca84"><path d="M 35 46 L 54 46 L 54 56.328125 L 35 56.328125 Z M 35 46 " clip-rule="nonzero"/></clipPath></defs><path fill="#fe2424" d="M 37.640625 21.582031 L 20.386719 21.582031 C 20.046875 21.582031 19.773438 21.3125 19.773438 20.96875 L 19.773438 18.253906 C 19.773438 15.085938 22.253906 12.453125 25.417969 12.265625 C 25.714844 12.253906 25.980469 12.445312 26.050781 12.734375 C 26.816406 15.867188 31.25 15.808594 31.980469 12.734375 C 32.046875 12.445312 32.316406 12.246094 32.613281 12.265625 C 35.777344 12.453125 38.257812 15.085938 38.257812 18.253906 L 38.257812 20.96875 C 38.253906 21.3125 37.980469 21.582031 37.640625 21.582031 Z M 37.640625 21.582031 " fill-opacity="1" fill-rule="evenodd"/><g clip-path="url(#958dd115f5)"><path fill="#fe2424" d="M 29.011719 12.378906 C 26.65625 12.378906 24.738281 10.464844 24.738281 8.105469 C 24.738281 5.746094 26.652344 3.828125 29.011719 3.828125 C 31.367188 3.828125 33.289062 5.746094 33.289062 8.105469 C 33.289062 10.464844 31.367188 12.378906 29.011719 12.378906 Z M 29.011719 12.378906 " fill-opacity="1" fill-rule="evenodd"/></g><path fill="#fe2424" d="M 29.015625 31.6875 L 16.007812 31.6875 L 16.007812 34.988281 C 16.007812 36.46875 13.757812 36.46875 13.757812 34.988281 L 13.757812 30.566406 C 13.757812 29.945312 14.261719 29.441406 14.882812 29.441406 L 27.890625 29.441406 L 27.890625 24.238281 C 27.890625 22.753906 30.140625 22.753906 30.140625 24.238281 L 30.140625 29.441406 L 44.078125 29.441406 C 44.699219 29.441406 45.203125 29.945312 45.203125 30.566406 L 45.203125 34.988281 C 45.203125 36.46875 42.953125 36.46875 42.953125 34.988281 L 42.953125 31.6875 Z M 29.015625 31.6875 " fill-opacity="1" fill-rule="evenodd"/><g clip-path="url(#be946b0e46)"><path fill="#fe2424" d="M 23.238281 56.164062 L 5.996094 56.164062 C 5.65625 56.164062 5.382812 55.886719 5.382812 55.550781 L 5.382812 52.832031 C 5.382812 49.664062 7.859375 47.039062 11.023438 46.851562 C 11.320312 46.832031 11.585938 47.027344 11.65625 47.320312 C 12.421875 50.445312 16.851562 50.390625 17.578125 47.320312 C 17.644531 47.03125 17.917969 46.832031 18.210938 46.851562 C 21.371094 47.039062 23.851562 49.664062 23.851562 52.832031 L 23.851562 55.550781 C 23.851562 55.886719 23.578125 56.164062 23.238281 56.164062 Z M 23.238281 56.164062 " fill-opacity="1" fill-rule="evenodd"/></g><path fill="#fe2424" d="M 14.613281 46.96875 C 12.257812 46.96875 10.339844 45.054688 10.339844 42.699219 C 10.339844 40.34375 12.257812 38.425781 14.613281 38.425781 C 16.96875 38.425781 18.886719 40.34375 18.886719 42.699219 C 18.886719 45.054688 16.96875 46.96875 14.613281 46.96875 Z M 14.613281 46.96875 " fill-opacity="1" fill-rule="evenodd"/><g clip-path="url(#f97d56ca84)"><path fill="#fe2424" d="M 53.378906 56.164062 L 36.140625 56.164062 C 35.804688 56.164062 35.527344 55.886719 35.527344 55.550781 L 35.527344 52.832031 C 35.527344 49.664062 38.007812 47.039062 41.167969 46.851562 C 41.46875 46.824219 41.726562 47.027344 41.800781 47.320312 C 42.5625 50.445312 46.992188 50.390625 47.71875 47.320312 C 47.789062 47.03125 48.054688 46.828125 48.355469 46.851562 C 51.515625 47.039062 53.992188 49.664062 53.992188 52.832031 L 53.992188 55.550781 C 53.992188 55.886719 53.714844 56.164062 53.378906 56.164062 Z M 53.378906 56.164062 " fill-opacity="1" fill-rule="evenodd"/></g><path fill="#fe2424" d="M 44.757812 46.96875 C 42.402344 46.96875 40.484375 45.054688 40.484375 42.699219 C 40.484375 40.34375 42.402344 38.425781 44.757812 38.425781 C 47.113281 38.425781 49.027344 40.34375 49.027344 42.699219 C 49.027344 45.054688 47.113281 46.96875 44.757812 46.96875 Z M 44.757812 46.96875 " fill-opacity="1" fill-rule="evenodd"/></svg>