<svg xmlns="http://www.w3.org/2000/svg" xmlns:xlink="http://www.w3.org/1999/xlink" width="80" zoomAndPan="magnify" viewBox="0 0 60 60" height="80" preserveAspectRatio="xMidYMid meet" version="1.0"><defs><clipPath id="07eda69918"><path d="M 3.472656 6 L 56.722656 6 L 56.722656 55.5 L 3.472656 55.5 Z M 3.472656 6 " clip-rule="nonzero"/></clipPath></defs><g clip-path="url(#07eda69918)"><path fill="#fe2424" d="M 5.984375 8.320312 L 54.003906 8.320312 C 54.238281 8.320312 54.429688 8.503906 54.429688 8.738281 L 54.429688 41.238281 C 54.429688 41.46875 54.238281 41.652344 54.003906 41.652344 L 5.984375 41.652344 C 5.753906 41.652344 5.5625 41.46875 5.5625 41.238281 L 5.5625 8.738281 C 5.5625 8.503906 5.753906 8.320312 5.984375 8.320312 Z M 4.523438 6.226562 C 3.945312 6.226562 3.472656 6.695312 3.472656 7.273438 L 3.472656 42.710938 C 3.472656 43.289062 3.945312 43.753906 4.519531 43.753906 C 4.523438 43.753906 4.523438 43.753906 4.523438 43.753906 L 24.691406 43.753906 C 25.269531 43.753906 25.742188 44.226562 25.742188 44.804688 L 25.742188 46.707031 C 25.742188 50.179688 22.925781 52.996094 19.453125 52.996094 L 18.957031 52.996094 L 18.957031 55.144531 L 41.039062 55.144531 L 41.039062 52.996094 L 40.542969 52.996094 C 37.074219 52.996094 34.257812 50.179688 34.257812 46.707031 L 34.257812 44.804688 C 34.257812 44.226562 34.726562 43.753906 35.304688 43.753906 L 55.476562 43.753906 C 56.054688 43.753906 56.523438 43.289062 56.523438 42.710938 L 56.523438 7.273438 C 56.523438 6.695312 56.054688 6.226562 55.476562 6.226562 L 4.523438 6.226562 " fill-opacity="1" fill-rule="nonzero"/></g><path fill="#fe2424" d="M 12.496094 34.015625 C 12.164062 34.019531 11.898438 34.292969 11.902344 34.628906 C 11.910156 34.953125 12.171875 35.214844 12.496094 35.222656 L 23.5 35.222656 C 23.832031 35.214844 24.097656 34.941406 24.09375 34.613281 C 24.085938 34.285156 23.824219 34.019531 23.5 34.015625 L 12.496094 34.015625 " fill-opacity="1" fill-rule="nonzero"/><path fill="#fe2424" d="M 12.496094 31.46875 C 12.164062 31.472656 11.898438 31.746094 11.902344 32.078125 C 11.910156 32.402344 12.171875 32.667969 12.496094 32.671875 L 23.5 32.671875 C 23.832031 32.667969 24.097656 32.394531 24.09375 32.066406 C 24.085938 31.734375 23.824219 31.472656 23.5 31.46875 L 12.496094 31.46875 " fill-opacity="1" fill-rule="nonzero"/><path fill="#fe2424" d="M 18.601562 13.066406 L 18.601562 20.355469 L 24.910156 23.996094 C 26.730469 20.179688 25.113281 15.609375 21.292969 13.792969 C 20.445312 13.386719 19.535156 13.140625 18.601562 13.066406 " fill-opacity="1" fill-rule="nonzero"/><path fill="#fe2424" d="M 17.394531 13.066406 L 17.394531 21.050781 L 24.308594 25.042969 C 21.910156 28.527344 17.144531 29.410156 13.660156 27.011719 C 10.175781 24.613281 9.289062 19.847656 11.6875 16.363281 C 12.996094 14.460938 15.09375 13.25 17.394531 13.066406 " fill-opacity="1" fill-rule="nonzero"/><path fill="#fe2424" d="M 40.910156 22.574219 L 38.28125 18.410156 C 37.929688 17.847656 37.183594 17.679688 36.621094 18.035156 C 36.511719 18.101562 36.417969 18.183594 36.335938 18.285156 L 32.945312 22.367188 L 32.015625 21.59375 L 35.410156 17.511719 C 36.261719 16.488281 37.785156 16.347656 38.804688 17.203125 C 39 17.359375 39.167969 17.554688 39.304688 17.765625 L 41.933594 21.929688 C 42.289062 22.496094 43.03125 22.664062 43.59375 22.304688 C 43.722656 22.226562 43.832031 22.128906 43.914062 22.011719 L 47.816406 16.800781 L 47.234375 16.367188 L 49.441406 15.632812 L 49.355469 17.960938 L 48.78125 17.527344 L 44.882812 22.730469 C 44.085938 23.800781 42.574219 24.015625 41.507812 23.21875 C 41.273438 23.042969 41.070312 22.824219 40.914062 22.574219 L 40.910156 22.574219 " fill-opacity="1" fill-rule="nonzero"/><path fill="#fe2424" d="M 46.675781 22.242188 L 48.972656 22.242188 L 48.972656 33.175781 L 46.675781 33.175781 L 46.675781 22.242188 " fill-opacity="1" fill-rule="nonzero"/><path fill="#fe2424" d="M 41.347656 33.175781 L 41.347656 26.957031 L 43.652344 26.957031 L 43.652344 33.175781 L 41.347656 33.175781 " fill-opacity="1" fill-rule="nonzero"/><path fill="#fe2424" d="M 36.023438 33.175781 L 36.023438 20.859375 L 38.324219 20.859375 L 38.324219 33.175781 L 36.023438 33.175781 " fill-opacity="1" fill-rule="nonzero"/><path fill="#fe2424" d="M 33 33.175781 L 30.699219 33.175781 L 30.699219 24.332031 L 33 24.332031 L 33 33.175781 " fill-opacity="1" fill-rule="nonzero"/></svg>