<svg xmlns="http://www.w3.org/2000/svg" xmlns:xlink="http://www.w3.org/1999/xlink" width="40" zoomAndPan="magnify" viewBox="0 0 30 30.000001" height="40" preserveAspectRatio="xMidYMid meet" version="1.0"><defs><g/><clipPath id="d7beca85c5"><path d="M 1.269531 0.859375 L 28.78125 0.859375 L 28.78125 28.160156 L 1.269531 28.160156 Z M 1.269531 0.859375 " clip-rule="nonzero"/></clipPath><clipPath id="6e98581b3f"><path d="M 5.621094 0.859375 L 24.378906 0.859375 C 25.53125 0.859375 26.640625 1.320312 27.457031 2.136719 C 28.273438 2.953125 28.730469 4.0625 28.730469 5.214844 L 28.730469 23.804688 C 28.730469 26.210938 26.78125 28.160156 24.378906 28.160156 L 5.621094 28.160156 C 3.21875 28.160156 1.269531 26.210938 1.269531 23.804688 L 1.269531 5.214844 C 1.269531 2.8125 3.21875 0.859375 5.621094 0.859375 Z M 5.621094 0.859375 " clip-rule="nonzero"/></clipPath><clipPath id="419b5b10c9"><path d="M 1.269531 0.863281 L 28.75 0.863281 L 28.75 28.210938 L 1.269531 28.210938 Z M 1.269531 0.863281 " clip-rule="nonzero"/></clipPath><clipPath id="488a84464b"><path d="M 5.621094 0.863281 L 24.371094 0.863281 C 25.523438 0.863281 26.632812 1.324219 27.449219 2.140625 C 28.265625 2.957031 28.722656 4.0625 28.722656 5.21875 L 28.722656 23.800781 C 28.722656 26.207031 26.773438 28.15625 24.371094 28.15625 L 5.621094 28.15625 C 3.21875 28.15625 1.269531 26.207031 1.269531 23.800781 L 1.269531 5.21875 C 1.269531 2.8125 3.21875 0.863281 5.621094 0.863281 Z M 5.621094 0.863281 " clip-rule="nonzero"/></clipPath></defs><g clip-path="url(#d7beca85c5)"><g clip-path="url(#6e98581b3f)"><path fill="#fe2424" d="M 1.269531 0.859375 L 28.78125 0.859375 L 28.78125 28.160156 L 1.269531 28.160156 Z M 1.269531 0.859375 " fill-opacity="1" fill-rule="nonzero"/></g></g><g clip-path="url(#419b5b10c9)"><g clip-path="url(#488a84464b)"><path stroke-linecap="butt" transform="matrix(0.725806, 0, 0, 0.725806, 1.267741, 0.86414)" fill="none" stroke-linejoin="miter" d="M 5.997952 -0.00118269 L 31.831286 -0.00118269 C 33.418959 -0.00118269 34.947432 0.633887 36.072258 1.758713 C 37.197084 2.88354 37.826772 4.40663 37.826772 5.999685 L 37.826772 31.601595 C 37.826772 34.916873 35.141182 37.602463 31.831286 37.602463 L 5.997952 37.602463 C 2.688056 37.602463 0.00246602 34.916873 0.00246602 31.601595 L 0.00246602 5.999685 C 0.00246602 2.684408 2.688056 -0.00118269 5.997952 -0.00118269 Z M 5.997952 -0.00118269 " stroke="#000000" stroke-width="2" stroke-opacity="1" stroke-miterlimit="4"/></g></g><g fill="#ffffff" fill-opacity="1"><g transform="translate(3.098026, 19.720676)"><g><path d="M 1.40625 0 L 1.40625 -6.40625 L 0.265625 -6.40625 L 0.265625 -8.015625 L 1.40625 -8.015625 C 1.320312 -8.347656 1.28125 -8.660156 1.28125 -8.953125 C 1.28125 -9.460938 1.394531 -9.894531 1.625 -10.25 C 1.851562 -10.613281 2.1875 -10.890625 2.625 -11.078125 C 3.0625 -11.273438 3.578125 -11.375 4.171875 -11.375 C 5.054688 -11.375 5.71875 -11.21875 6.15625 -10.90625 L 5.6875 -9.4375 L 5.53125 -9.40625 C 5.238281 -9.613281 4.851562 -9.71875 4.375 -9.71875 C 4.019531 -9.71875 3.75 -9.628906 3.5625 -9.453125 C 3.382812 -9.273438 3.296875 -9.035156 3.296875 -8.734375 C 3.296875 -8.609375 3.300781 -8.488281 3.3125 -8.375 C 3.332031 -8.269531 3.363281 -8.148438 3.40625 -8.015625 L 5.703125 -8.015625 L 5.703125 -6.40625 L 3.40625 -6.40625 L 3.40625 0 Z M 1.40625 0 "/></g></g></g><g fill="#ffffff" fill-opacity="1"><g transform="translate(8.873754, 19.720676)"><g><path d="M 5.078125 0.15625 C 4.273438 0.15625 3.5625 -0.0234375 2.9375 -0.390625 C 2.3125 -0.765625 1.8125 -1.351562 1.4375 -2.15625 C 1.070312 -2.957031 0.890625 -3.972656 0.890625 -5.203125 C 0.890625 -6.460938 1.082031 -7.503906 1.46875 -8.328125 C 1.851562 -9.160156 2.378906 -9.773438 3.046875 -10.171875 C 3.722656 -10.566406 4.492188 -10.765625 5.359375 -10.765625 C 6.078125 -10.765625 6.695312 -10.660156 7.21875 -10.453125 C 7.738281 -10.242188 8.144531 -9.9375 8.4375 -9.53125 L 7.40625 -8.203125 L 7.21875 -8.203125 C 6.78125 -8.734375 6.160156 -9 5.359375 -9 C 3.847656 -9 3.078125 -7.894531 3.046875 -5.6875 L 3.203125 -5.625 C 3.441406 -6.082031 3.765625 -6.429688 4.171875 -6.671875 C 4.578125 -6.910156 5.085938 -7.03125 5.703125 -7.03125 C 6.359375 -7.03125 6.925781 -6.890625 7.40625 -6.609375 C 7.882812 -6.335938 8.25 -5.941406 8.5 -5.421875 C 8.757812 -4.898438 8.890625 -4.285156 8.890625 -3.578125 C 8.890625 -2.804688 8.734375 -2.140625 8.421875 -1.578125 C 8.117188 -1.015625 7.679688 -0.582031 7.109375 -0.28125 C 6.535156 0.0078125 5.859375 0.15625 5.078125 0.15625 Z M 5.03125 -1.640625 C 5.570312 -1.640625 6 -1.800781 6.3125 -2.125 C 6.625 -2.445312 6.78125 -2.894531 6.78125 -3.46875 C 6.78125 -4.050781 6.625 -4.503906 6.3125 -4.828125 C 6 -5.148438 5.570312 -5.3125 5.03125 -5.3125 C 4.664062 -5.3125 4.347656 -5.234375 4.078125 -5.078125 C 3.816406 -4.929688 3.613281 -4.71875 3.46875 -4.4375 C 3.320312 -4.164062 3.25 -3.84375 3.25 -3.46875 C 3.25 -2.90625 3.40625 -2.457031 3.71875 -2.125 C 4.039062 -1.800781 4.476562 -1.640625 5.03125 -1.640625 Z M 5.03125 -1.640625 "/></g></g></g><g fill="#ffffff" fill-opacity="1"><g transform="translate(18.509643, 19.720676)"><g><path d="M 3.75 0.15625 C 3.195312 0.15625 2.691406 0.09375 2.234375 -0.03125 C 1.785156 -0.164062 1.398438 -0.34375 1.078125 -0.5625 C 0.753906 -0.789062 0.515625 -1.050781 0.359375 -1.34375 L 1.484375 -2.546875 L 1.625 -2.546875 C 1.894531 -2.191406 2.210938 -1.921875 2.578125 -1.734375 C 2.941406 -1.554688 3.335938 -1.46875 3.765625 -1.46875 C 4.148438 -1.46875 4.441406 -1.535156 4.640625 -1.671875 C 4.835938 -1.816406 4.9375 -2.019531 4.9375 -2.28125 C 4.9375 -2.488281 4.863281 -2.660156 4.71875 -2.796875 C 4.582031 -2.929688 4.351562 -3.039062 4.03125 -3.125 L 2.96875 -3.375 C 2.175781 -3.5625 1.597656 -3.847656 1.234375 -4.234375 C 0.867188 -4.628906 0.6875 -5.125 0.6875 -5.71875 C 0.6875 -6.21875 0.8125 -6.648438 1.0625 -7.015625 C 1.320312 -7.390625 1.679688 -7.671875 2.140625 -7.859375 C 2.609375 -8.054688 3.148438 -8.15625 3.765625 -8.15625 C 4.484375 -8.15625 5.078125 -8.050781 5.546875 -7.84375 C 6.023438 -7.632812 6.394531 -7.359375 6.65625 -7.015625 L 5.59375 -5.84375 L 5.4375 -5.84375 C 5.21875 -6.09375 4.96875 -6.273438 4.6875 -6.390625 C 4.414062 -6.515625 4.109375 -6.578125 3.765625 -6.578125 C 2.960938 -6.578125 2.5625 -6.328125 2.5625 -5.828125 C 2.5625 -5.617188 2.632812 -5.445312 2.78125 -5.3125 C 2.9375 -5.1875 3.195312 -5.082031 3.5625 -5 L 4.5625 -4.78125 C 5.375 -4.613281 5.96875 -4.335938 6.34375 -3.953125 C 6.71875 -3.566406 6.90625 -3.050781 6.90625 -2.40625 C 6.90625 -1.894531 6.773438 -1.445312 6.515625 -1.0625 C 6.265625 -0.675781 5.898438 -0.375 5.421875 -0.15625 C 4.953125 0.0507812 4.394531 0.15625 3.75 0.15625 Z M 3.75 0.15625 "/></g></g></g></svg>