<svg xmlns="http://www.w3.org/2000/svg" xmlns:xlink="http://www.w3.org/1999/xlink" width="40" zoomAndPan="magnify" viewBox="0 0 30 30.000001" height="40" preserveAspectRatio="xMidYMid meet" version="1.0"><defs><clipPath id="d4d5b6c9ac"><path d="M 1.269531 0.859375 L 28.78125 0.859375 L 28.78125 28.160156 L 1.269531 28.160156 Z M 1.269531 0.859375 " clip-rule="nonzero"/></clipPath><clipPath id="51e1d53fec"><path d="M 5.621094 0.859375 L 24.378906 0.859375 C 25.53125 0.859375 26.640625 1.320312 27.457031 2.136719 C 28.273438 2.953125 28.730469 4.0625 28.730469 5.214844 L 28.730469 23.804688 C 28.730469 26.210938 26.78125 28.160156 24.378906 28.160156 L 5.621094 28.160156 C 3.21875 28.160156 1.269531 26.210938 1.269531 23.804688 L 1.269531 5.214844 C 1.269531 2.8125 3.21875 0.859375 5.621094 0.859375 Z M 5.621094 0.859375 " clip-rule="nonzero"/></clipPath><clipPath id="d5db17aa8f"><path d="M 1.269531 0.863281 L 28.75 0.863281 L 28.75 28.210938 L 1.269531 28.210938 Z M 1.269531 0.863281 " clip-rule="nonzero"/></clipPath><clipPath id="e7186843ba"><path d="M 5.621094 0.863281 L 24.371094 0.863281 C 25.523438 0.863281 26.632812 1.324219 27.449219 2.140625 C 28.265625 2.957031 28.722656 4.0625 28.722656 5.21875 L 28.722656 23.800781 C 28.722656 26.207031 26.773438 28.15625 24.371094 28.15625 L 5.621094 28.15625 C 3.21875 28.15625 1.269531 26.207031 1.269531 23.800781 L 1.269531 5.21875 C 1.269531 2.8125 3.21875 0.863281 5.621094 0.863281 Z M 5.621094 0.863281 " clip-rule="nonzero"/></clipPath><clipPath id="6b1b3edbeb"><path d="M 9.011719 2.902344 L 19.898438 2.902344 L 19.898438 25.402344 L 9.011719 25.402344 Z M 9.011719 2.902344 " clip-rule="nonzero"/></clipPath></defs><g clip-path="url(#d4d5b6c9ac)"><g clip-path="url(#51e1d53fec)"><path fill="#fe2424" d="M 1.269531 0.859375 L 28.78125 0.859375 L 28.78125 28.160156 L 1.269531 28.160156 Z M 1.269531 0.859375 " fill-opacity="1" fill-rule="nonzero"/></g></g><g clip-path="url(#d5db17aa8f)"><g clip-path="url(#e7186843ba)"><path stroke-linecap="butt" transform="matrix(0.725806, 0, 0, 0.725806, 1.267741, 0.86414)" fill="none" stroke-linejoin="miter" d="M 5.997952 -0.00118269 L 31.831286 -0.00118269 C 33.418959 -0.00118269 34.947432 0.633887 36.072258 1.758713 C 37.197084 2.88354 37.826772 4.40663 37.826772 5.999685 L 37.826772 31.601595 C 37.826772 34.916873 35.141182 37.602463 31.831286 37.602463 L 5.997952 37.602463 C 2.688056 37.602463 0.00246602 34.916873 0.00246602 31.601595 L 0.00246602 5.999685 C 0.00246602 2.684408 2.688056 -0.00118269 5.997952 -0.00118269 Z M 5.997952 -0.00118269 " stroke="#000000" stroke-width="2" stroke-opacity="1" stroke-miterlimit="4"/></g></g><g clip-path="url(#6b1b3edbeb)"><path fill="#ffffff" d="M 17.386719 6.636719 L 19.898438 6.636719 L 19.898438 2.9375 L 16.691406 2.9375 L 16.691406 2.949219 C 12.472656 3.101562 11.605469 5.410156 11.53125 7.847656 L 11.523438 7.847656 L 11.523438 10.414062 L 9.011719 10.414062 L 9.011719 14.117188 L 11.523438 14.117188 L 11.523438 25.371094 L 16.027344 25.371094 L 16.027344 14.117188 L 19.257812 14.117188 L 19.898438 10.414062 L 16.027344 10.414062 L 16.027344 8.117188 C 16.027344 7.300781 16.589844 6.636719 17.386719 6.636719 Z M 17.386719 6.636719 " fill-opacity="1" fill-rule="nonzero"/></g></svg>