<svg xmlns="http://www.w3.org/2000/svg" xmlns:xlink="http://www.w3.org/1999/xlink" width="546" zoomAndPan="magnify" viewBox="0 0 409.5 263.99999" height="352" preserveAspectRatio="xMidYMid meet" version="1.0"><path stroke-linecap="round" transform="matrix(0.306472, 0, 0, 0.306472, 151.560856, 23.714675)" fill-opacity="1" fill="#fffbfb" fill-rule="nonzero" stroke-linejoin="round" d="M 0.00536399 -51.913374 C 28.670824 -51.913374 51.906544 -28.664909 51.906544 0.000551159 C 51.906544 28.666011 28.670824 51.914477 0.00536399 51.914477 C -28.672842 51.914477 -51.908561 28.666011 -51.908561 0.000551159 C -51.908561 -28.664909 -28.672842 -51.913374 0.00536399 -51.913374 Z M 0.00536399 -51.913374 " stroke="#f20000" stroke-width="6" stroke-opacity="1" stroke-miterlimit="4"/><path stroke-linecap="round" transform="matrix(0.306472, 0, 0, 0.306472, 156.539493, 17.945344)" fill="none" stroke-linejoin="round" d="M -35.664347 13.510518 C -35.664347 13.510518 -16.239642 33.088173 -16.239642 33.088173 C -16.239642 33.088173 35.661538 -33.08838 35.661538 -33.08838 " stroke="#f20000" stroke-width="6" stroke-opacity="1" stroke-miterlimit="4"/><path fill="#f20000" d="M 302.785156 34.964844 C 301.011719 35.40625 299.183594 35.527344 297.296875 35.328125 C 295.410156 35.132812 293.597656 34.578125 291.863281 33.671875 C 291.863281 33.671875 294.269531 28.753906 294.269531 28.753906 C 295.460938 29.3125 296.710938 29.699219 298.019531 29.914062 C 299.328125 30.128906 300.625 30.078125 301.910156 29.753906 C 303.199219 29.433594 304.085938 28.988281 304.566406 28.410156 C 305.050781 27.835938 305.207031 27.210938 305.042969 26.539062 C 304.929688 26.085938 304.738281 25.726562 304.472656 25.464844 C 304.210938 25.203125 303.871094 24.996094 303.464844 24.839844 C 303.054688 24.683594 302.570312 24.566406 302.007812 24.476562 C 301.441406 24.390625 300.820312 24.289062 300.136719 24.175781 C 300.136719 24.175781 296.394531 23.566406 296.394531 23.566406 C 295.605469 23.480469 294.8125 23.308594 294.023438 23.046875 C 293.230469 22.789062 292.507812 22.4375 291.855469 21.988281 C 291.203125 21.539062 290.625 20.96875 290.128906 20.28125 C 289.628906 19.59375 289.257812 18.765625 289.015625 17.800781 C 288.75 16.730469 288.730469 15.65625 288.964844 14.589844 C 289.195312 13.519531 289.644531 12.523438 290.3125 11.601562 C 290.980469 10.683594 291.855469 9.871094 292.933594 9.175781 C 294.015625 8.480469 295.265625 7.953125 296.6875 7.597656 C 298.296875 7.199219 299.925781 7.105469 301.574219 7.320312 C 303.222656 7.535156 304.792969 8.058594 306.277344 8.882812 C 306.277344 8.882812 304.195312 13.375 304.195312 13.375 C 303.117188 12.933594 302.074219 12.644531 301.074219 12.507812 C 300.070312 12.375 298.925781 12.46875 297.640625 12.789062 C 296.644531 13.035156 295.898438 13.4375 295.394531 13.988281 C 294.890625 14.542969 294.738281 15.207031 294.933594 15.984375 C 295.125 16.761719 295.671875 17.261719 296.566406 17.480469 C 297.460938 17.699219 298.609375 17.875 300.007812 18.007812 C 300.007812 18.007812 303.527344 18.585938 303.527344 18.585938 C 305.429688 18.792969 307.027344 19.335938 308.3125 20.210938 C 309.601562 21.085938 310.472656 22.449219 310.9375 24.300781 C 311.210938 25.402344 311.242188 26.496094 311.03125 27.589844 C 310.816406 28.683594 310.375 29.703125 309.699219 30.65625 C 309.027344 31.609375 308.113281 32.460938 306.960938 33.21875 C 305.8125 33.976562 304.417969 34.558594 302.785156 34.964844 Z M 302.785156 34.964844 " fill-opacity="1" fill-rule="nonzero"/><path fill="#f20000" d="M 293.84375 5.324219 C 293.84375 5.324219 296.355469 4.695312 296.355469 4.695312 C 296.355469 4.695312 304.46875 37.234375 304.46875 37.234375 C 304.46875 37.234375 301.957031 37.859375 301.957031 37.859375 C 301.957031 37.859375 293.84375 5.324219 293.84375 5.324219 Z M 293.84375 5.324219 " fill-opacity="1" fill-rule="nonzero"/><path fill="#000001" d="M 198.234375 109.949219 C 198.296875 110.671875 192.136719 114.125 192.136719 114.125 C 192.136719 114.125 188.210938 159.8125 188.210938 159.8125 C 188.210938 159.8125 216.269531 172.296875 216.269531 172.296875 C 216.269531 172.296875 220.902344 150.445312 228.699219 145.570312 C 228.699219 145.570312 235.207031 152.238281 235.207031 177.332031 C 235.207031 177.332031 256.0625 187.902344 256.0625 187.902344 C 256.0625 187.902344 262.488281 137.847656 251.773438 110.804688 C 251.773438 110.804688 239.011719 107.460938 239.011719 107.460938 C 239.011719 107.460938 198.234375 109.945312 198.234375 109.945312 C 198.234375 109.945312 198.234375 109.949219 198.234375 109.949219 Z M 198.234375 109.949219 " fill-opacity="1" fill-rule="nonzero"/><path fill="#000001" d="M 202.332031 41.109375 C 202.332031 41.109375 195.015625 34.316406 196.515625 27.753906 C 196.515625 27.753906 199.273438 21.195312 206.53125 17.4375 C 211.417969 14.910156 215.507812 15.199219 219.789062 18.703125 C 223.765625 21.964844 225.792969 25.796875 223.273438 30.734375 C 223.273438 30.734375 220.503906 40.800781 220.503906 40.800781 C 220.503906 40.800781 202.335938 41.113281 202.335938 41.113281 " fill-opacity="1" fill-rule="nonzero"/><path fill="#fffbfb" d="M 259.367188 48.339844 C 246.667969 41.109375 235.148438 38.464844 225.097656 38.449219 C 229.109375 44.570312 229.203125 60.65625 229.203125 60.65625 C 224.097656 62.53125 217.34375 57.335938 217.34375 57.335938 C 217.34375 57.335938 208.785156 65.742188 208.785156 65.742188 C 202.378906 57.765625 200.15625 49.585938 199.394531 44.457031 C 188.023438 50.011719 181.636719 57.40625 181.636719 57.40625 C 181.636719 71.578125 189.757812 92.980469 189.757812 92.980469 C 189.757812 92.980469 192.546875 114.074219 192.546875 114.074219 C 222.011719 141.0625 252.175781 110.753906 252.175781 110.753906 C 248.542969 81.804688 259.367188 48.339844 259.367188 48.339844 Z M 259.367188 48.339844 " fill-opacity="1" fill-rule="nonzero"/><path fill="#fde6cb" d="M 223.855469 38.464844 C 224.964844 52.542969 216.304688 54.671875 212.488281 54.933594 C 213.933594 55.914062 215.546875 56.742188 217.34375 57.335938 C 217.34375 57.335938 224.625 51.953125 225.097656 38.453125 C 224.679688 38.453125 224.265625 38.460938 223.855469 38.46875 C 223.855469 38.46875 223.855469 38.464844 223.855469 38.464844 Z M 223.855469 38.464844 " fill-opacity="1" fill-rule="nonzero"/><path fill="#000001" d="M 217.34375 57.335938 C 217.34375 57.335938 212.34375 58.691406 212.34375 58.691406 C 212.34375 58.691406 217.34375 66.953125 217.34375 66.953125 C 217.34375 66.953125 220.5 66.953125 220.5 66.953125 C 220.5 66.953125 223.273438 57.335938 223.273438 57.335938 C 223.273438 57.335938 217.34375 57.335938 217.34375 57.335938 Z M 217.34375 57.335938 " fill-opacity="1" fill-rule="nonzero"/><path fill="#000001" d="M 218.417969 62.710938 C 218.417969 62.710938 217.34375 66.949219 217.34375 66.949219 C 215.792969 77.921875 214.574219 86.839844 217.082031 97.761719 C 217.082031 97.761719 220.5 127.855469 220.5 127.855469 C 220.5 127.855469 223.171875 133.726562 229.203125 135.351562 C 229.203125 135.351562 232.648438 134.242188 234.289062 126.210938 C 232.03125 113.359375 230.132812 100.4375 227.566406 87.636719 C 226.683594 83.234375 225.367188 79.253906 223.765625 75.066406 C 222.917969 72.847656 222.042969 70.636719 221.109375 68.453125 C 220.503906 67.039062 218.414062 64.191406 218.414062 62.710938 C 218.414062 62.710938 218.417969 62.710938 218.417969 62.710938 Z M 218.417969 62.710938 " fill-opacity="1" fill-rule="nonzero"/><path stroke-linecap="round" transform="matrix(0.306472, 0, 0, 0.306472, 218.921843, 66.951715)" fill="none" stroke-linejoin="round" d="M -5.149227 0.00460012 C -5.149227 0.00460012 5.149435 0.00460012 5.149435 0.00460012 " stroke="#000001" stroke-width="6" stroke-opacity="1" stroke-miterlimit="4"/><path fill="#fffbfb" d="M 217.34375 57.335938 C 209.824219 54.847656 205.515625 48.347656 203.125 42.785156 C 201.828125 43.316406 200.585938 43.878906 199.394531 44.460938 C 200.15625 49.589844 202.378906 57.769531 208.785156 65.746094 C 208.785156 65.746094 217.34375 57.335938 217.34375 57.335938 Z M 217.34375 57.335938 " fill-opacity="1" fill-rule="nonzero"/><path fill="#fffbfb" d="M 229.203125 60.65625 C 229.203125 60.65625 229.109375 44.570312 225.097656 38.449219 C 224.625 51.949219 217.34375 57.335938 217.34375 57.335938 C 217.34375 57.335938 224.097656 62.53125 229.203125 60.65625 Z M 229.203125 60.65625 " fill-opacity="1" fill-rule="nonzero"/><path stroke-linecap="round" transform="matrix(0.306472, 0, 0, 0.306472, 194.597784, 57.907738)" fill="none" stroke-linejoin="round" d="M 5.595021 -38.62484 C 5.595021 -38.62484 -12.593335 3.755175 -2.587827 38.627874 " stroke="#000001" stroke-width="6" stroke-opacity="1" stroke-miterlimit="4"/><path stroke-linecap="round" transform="matrix(0.306472, 0, 0, 0.306472, 201.281629, 61.551687)" fill="none" stroke-linejoin="round" d="M 8.627717 55.785713 C -17.565044 9.059357 -6.170237 -55.77888 -6.170237 -55.77888 " stroke="#000001" stroke-width="6" stroke-opacity="1" stroke-miterlimit="4"/><path stroke-linecap="round" transform="matrix(0.306472, 0, 0, 0.306472, 232.254903, 47.13219)" fill="none" stroke-linejoin="round" d="M -23.353684 -28.332036 C -23.353684 -28.332036 7.096198 -24.673972 23.359927 28.336098 " stroke="#000001" stroke-width="6" stroke-opacity="1" stroke-miterlimit="4"/><path stroke-linecap="round" transform="matrix(0.306472, 0, 0, 0.306472, 214.295655, 52.095502)" fill="none" stroke-linejoin="round" d="M -48.634256 -24.923893 C -48.634256 -24.923893 -42.949599 19.559191 -17.993187 44.528349 C -17.993187 44.528349 9.933013 17.099238 9.933013 17.099238 C 9.933013 17.099238 28.376286 34.165957 48.629472 27.933227 C 48.629472 27.933227 47.074476 -32.686127 35.233563 -44.527039 " stroke="#000001" stroke-width="6" stroke-opacity="1" stroke-miterlimit="4"/><path fill="#000001" d="M 223.855469 38.464844 C 215.957031 38.621094 208.996094 40.386719 203.125 42.785156 C 204.941406 47.019531 207.875 51.792969 212.488281 54.933594 C 216.304688 54.671875 224.964844 52.542969 223.855469 38.464844 Z M 223.855469 38.464844 " fill-opacity="1" fill-rule="nonzero"/><path fill="#fde6cb" d="M 206.191406 27.253906 C 206.191406 27.253906 208.164062 26.761719 208.164062 26.761719 C 213.441406 25.445312 218.789062 28.65625 220.105469 33.9375 C 220.105469 33.9375 221.957031 41.355469 221.957031 41.355469 C 223.273438 46.632812 220.058594 51.980469 214.777344 53.296875 C 214.777344 53.296875 212.808594 53.789062 212.808594 53.789062 C 207.527344 55.105469 202.179688 51.894531 200.863281 46.613281 C 200.863281 46.613281 199.015625 39.195312 199.015625 39.195312 C 197.699219 33.917969 200.910156 28.570312 206.191406 27.253906 Z M 206.191406 27.253906 " fill-opacity="1" fill-rule="nonzero"/><path fill="#fffbfb" d="M 214.347656 42.996094 C 211.710938 44.742188 208.371094 46.753906 205.054688 45.316406 C 201.75 44.996094 202.761719 47.347656 202.761719 47.347656 C 203.570312 50.589844 208.308594 51.199219 211.019531 50.621094 C 214.128906 49.964844 217.597656 47.050781 217.324219 43.714844 C 217.324219 43.714844 217.113281 41.167969 214.34375 42.996094 C 214.34375 42.996094 214.347656 42.996094 214.347656 42.996094 Z M 214.347656 42.996094 " fill-opacity="1" fill-rule="nonzero"/><path fill="#000001" d="M 199.390625 28.441406 C 199.390625 28.441406 198.621094 31.871094 198.621094 31.871094 C 198.621094 31.871094 198.722656 36.679688 198.722656 36.679688 C 198.722656 36.679688 198.652344 29.710938 212.234375 29.707031 C 216.21875 29.707031 217.148438 33.792969 218.328125 36.675781 C 218.949219 38.1875 220.472656 40.90625 221.3125 37.84375 C 222.378906 33.980469 221.3125 37.84375 221.3125 37.84375 C 221.3125 37.84375 221.785156 28.4375 221.785156 28.4375 C 221.785156 28.4375 215.164062 21.941406 215.164062 21.941406 C 215.164062 21.941406 199.390625 28.4375 199.390625 28.4375 C 199.390625 28.4375 199.390625 28.441406 199.390625 28.441406 Z M 199.390625 28.441406 " fill-opacity="1" fill-rule="nonzero"/><path fill="#000001" d="M 213.273438 37.058594 C 213.972656 36.921875 214.648438 37.378906 214.785156 38.074219 C 214.917969 38.773438 214.464844 39.449219 213.765625 39.585938 C 213.066406 39.71875 212.390625 39.265625 212.257812 38.566406 C 212.121094 37.867188 212.578125 37.191406 213.273438 37.058594 Z M 213.273438 37.058594 " fill-opacity="1" fill-rule="nonzero"/><path fill="#000001" d="M 203.332031 39.535156 C 204.03125 39.402344 204.707031 39.855469 204.84375 40.554688 C 204.976562 41.253906 204.523438 41.929688 203.824219 42.0625 C 203.125 42.199219 202.449219 41.742188 202.316406 41.046875 C 202.179688 40.347656 202.632812 39.671875 203.332031 39.535156 Z M 203.332031 39.535156 " fill-opacity="1" fill-rule="nonzero"/><path stroke-linecap="round" transform="matrix(0.306472, 0, 0, 0.306472, 202.697211, 36.962842)" fill="none" stroke-linejoin="round" d="M -7.513511 2.8871 C -7.513511 2.8871 -2.721064 -7.016441 7.513869 -0.872932 " stroke="#000001" stroke-width="4" stroke-opacity="1" stroke-miterlimit="4"/><path stroke-linecap="round" transform="matrix(0.306472, 0, 0, 0.306472, 212.344946, 34.557034)" fill="none" stroke-linejoin="round" d="M -7.511218 2.885656 C -7.511218 2.885656 -2.718772 -7.017885 7.516161 -0.86163 " stroke="#000001" stroke-width="4" stroke-opacity="1" stroke-miterlimit="4"/><path fill="#fffbfb" d="M 250.683594 50.816406 C 250.683594 50.816406 259.367188 48.339844 259.367188 48.339844 C 259.367188 48.339844 280.539062 78.109375 291.347656 111.207031 C 291.347656 111.207031 273.230469 117.390625 273.230469 117.390625 C 273.230469 117.390625 257.644531 91.765625 250.683594 68.664062 C 250.683594 68.664062 250.683594 50.816406 250.683594 50.816406 Z M 250.683594 50.816406 " fill-opacity="1" fill-rule="nonzero"/><path stroke-linecap="round" transform="matrix(0.306472, 0, 0, 0.306472, 255.433358, 65.036267)" fill="none" stroke-linejoin="round" d="M 7.278662 -35.143985 C 7.278662 -35.143985 -2.841559 -3.661688 -7.277121 35.149484 " stroke="#000001" stroke-width="6" stroke-opacity="1" stroke-miterlimit="4"/><path fill="#f20000" d="M 123.207031 79.328125 C 123.207031 79.328125 128.601562 75.054688 128.601562 75.054688 C 128.601562 75.054688 146.152344 95.148438 158.730469 123.800781 C 158.730469 123.800781 154.691406 138.703125 140.523438 129.933594 C 140.523438 129.933594 123.207031 104.894531 123.207031 104.894531 C 123.207031 104.894531 123.207031 79.332031 123.207031 79.332031 C 123.207031 79.332031 123.207031 79.328125 123.207031 79.328125 Z M 123.207031 79.328125 " fill-opacity="1" fill-rule="nonzero"/><path fill="#f20000" d="M 128.601562 75.054688 C 122.28125 71.78125 115.835938 69.960938 109.566406 69.136719 C 108.761719 76.210938 102.945312 81.117188 102.945312 81.117188 C 102.945312 81.117188 99.480469 81.117188 99.480469 81.117188 C 93.476562 77.65625 90.894531 73.097656 89.808594 69.46875 C 73.761719 71.917969 62.03125 78.652344 62.03125 78.652344 C 73.277344 97.988281 62.03125 153.523438 62.03125 153.523438 C 62.03125 153.523438 109.015625 153.523438 109.015625 153.523438 C 139.808594 96.371094 128.601562 75.058594 128.601562 75.058594 C 128.601562 75.058594 128.601562 75.054688 128.601562 75.054688 Z M 128.601562 75.054688 " fill-opacity="1" fill-rule="nonzero"/><path stroke-linecap="round" transform="matrix(0.306472, 0, 0, 0.306472, 128.883483, 96.674896)" fill="none" stroke-linejoin="round" d="M 5.580503 -45.05376 C 5.580503 -45.05376 9.009142 -0.430472 -5.916271 45.059535 " stroke="#000001" stroke-width="6" stroke-opacity="1" stroke-miterlimit="4"/><path fill="#fffbfb" d="M 99.480469 81.113281 C 99.480469 81.113281 95.230469 81.855469 95.230469 81.855469 C 95.230469 81.855469 99.074219 89.097656 99.074219 89.097656 C 99.074219 89.097656 105.125 89.097656 105.125 89.097656 C 105.125 89.097656 107.730469 85.304688 107.730469 81.855469 C 107.730469 81.855469 102.945312 81.113281 102.945312 81.113281 C 102.945312 81.113281 99.480469 81.113281 99.480469 81.113281 Z M 99.480469 81.113281 " fill-opacity="1" fill-rule="nonzero"/><path fill="#fffbfb" d="M 101.480469 85.105469 C 101.480469 85.105469 99.074219 89.101562 99.074219 89.101562 C 99.074219 89.101562 95.230469 95.882812 95.230469 95.882812 C 95.230469 95.882812 93.898438 97.703125 92.785156 108.433594 C 92.785156 108.433594 89.808594 140.714844 89.808594 140.714844 C 89.808594 140.714844 89.296875 147.046875 91.871094 151.304688 C 91.871094 151.304688 94.585938 153.582031 98.964844 142.902344 C 98.964844 142.902344 106.308594 102.605469 106.308594 102.605469 C 106.308594 102.605469 107.300781 94.652344 105.125 89.101562 C 105.125 89.101562 101.480469 85.105469 101.480469 85.105469 Z M 101.480469 85.105469 " fill-opacity="1" fill-rule="nonzero"/><path stroke-linecap="round" transform="matrix(0.306472, 0, 0, 0.306472, 102.099379, 89.100443)" fill="none" stroke-linejoin="round" d="M -9.870926 0.00365402 C -9.870926 0.00365402 9.872426 0.00365402 9.872426 0.00365402 " stroke="#000001" stroke-width="6" stroke-opacity="1" stroke-miterlimit="4"/><path fill="#f20000" d="M 100.824219 60.65625 C 100.824219 60.65625 92.855469 60.65625 92.855469 60.65625 C 92.855469 60.65625 92.585938 64.945312 84.808594 70.390625 C 84.808594 70.390625 83.476562 85.71875 92.816406 90.964844 C 92.816406 90.964844 91.976562 85.976562 99.480469 81.117188 C 99.480469 81.117188 100.820312 60.65625 100.820312 60.65625 C 100.820312 60.65625 100.824219 60.65625 100.824219 60.65625 Z M 100.824219 60.65625 " fill-opacity="1" fill-rule="nonzero"/><path fill="#f20000" d="M 103.539062 61.171875 C 103.539062 61.171875 102.945312 81.113281 102.945312 81.113281 C 102.945312 81.113281 108.074219 83.769531 109.566406 89.097656 C 109.566406 89.097656 112.386719 69.03125 106.480469 60.859375 C 106.480469 60.859375 103.539062 61.171875 103.539062 61.171875 Z M 103.539062 61.171875 " fill-opacity="1" fill-rule="nonzero"/><path stroke-linecap="round" transform="matrix(0.306472, 0, 0, 0.306472, 97.776587, 80.050336)" fill="none" stroke-linejoin="round" d="M -42.313815 -31.519083 C -42.313815 -31.519083 -49.12011 14.264079 -16.184783 35.61341 C -16.184783 35.61341 -18.84867 19.222222 5.55967 3.481074 C 5.55967 3.481074 16.865256 3.481074 16.865256 3.481074 C 16.865256 3.481074 35.5507 13.295393 38.469504 29.533631 C 38.469504 29.533631 48.436774 -17.294693 38.469504 -35.610507 " stroke="#000001" stroke-width="6" stroke-opacity="1" stroke-miterlimit="4"/><path fill="#000001" d="M 106.941406 61.550781 C 106.941406 61.550781 92.859375 60.652344 92.859375 60.652344 C 92.859375 64.492188 89.808594 69.460938 89.808594 69.460938 C 89.921875 69.839844 90.050781 70.226562 90.203125 70.625 C 91.144531 72.351562 94.03125 76.113281 101.332031 76.113281 C 101.332031 76.113281 105.34375 76.058594 108.539062 73.171875 C 109.027344 71.933594 109.40625 70.578125 109.566406 69.128906 C 109.566406 69.128906 106.941406 61.546875 106.941406 61.546875 C 106.941406 61.546875 106.941406 61.550781 106.941406 61.550781 Z M 106.941406 61.550781 " fill-opacity="1" fill-rule="nonzero"/><path fill="#fde6cb" d="M 90.199219 70.625 C 91.472656 74.035156 94.101562 78.011719 99.480469 81.113281 C 99.480469 81.113281 102.949219 81.113281 102.949219 81.113281 C 102.949219 81.113281 106.628906 78.007812 108.539062 73.175781 C 105.34375 76.0625 101.332031 76.117188 101.332031 76.117188 C 94.03125 76.117188 91.144531 72.355469 90.203125 70.625 C 90.203125 70.625 90.199219 70.625 90.199219 70.625 Z M 90.199219 70.625 " fill-opacity="1" fill-rule="nonzero"/><path fill="#000001" d="M 91.453125 59.882812 C 91.703125 56.488281 91.285156 53.367188 89.992188 50.222656 C 89.019531 47.863281 89.4375 45.675781 90.636719 43.523438 C 90.636719 43.523438 93.351562 38.527344 97.789062 40.28125 C 97.789062 40.28125 98.5 36.140625 104.761719 37.035156 C 108.148438 37.515625 108.148438 40.125 110.261719 42.035156 C 112.289062 43.871094 115.414062 43.054688 117.832031 43.800781 C 122.105469 45.125 122.453125 50.453125 119.796875 53.394531 C 116.609375 56.917969 111.824219 56.660156 107.730469 54.933594 C 107.730469 54.933594 91.457031 59.886719 91.457031 59.886719 C 91.457031 59.886719 91.453125 59.882812 91.453125 59.882812 Z M 91.453125 59.882812 " fill-opacity="1" fill-rule="nonzero"/><path fill="#fde6cb" d="M 98.507812 74.167969 C 98.507812 74.167969 96.535156 73.679688 96.535156 73.679688 C 91.253906 72.363281 88.042969 67.015625 89.359375 61.734375 C 89.359375 61.734375 91.207031 54.316406 91.207031 54.316406 C 92.523438 49.039062 97.871094 45.824219 103.152344 47.140625 C 103.152344 47.140625 105.125 47.632812 105.125 47.632812 C 110.402344 48.949219 113.617188 54.296875 112.300781 59.578125 C 112.300781 59.578125 110.453125 66.992188 110.453125 66.992188 C 109.132812 72.273438 103.789062 75.488281 98.507812 74.167969 Z M 98.507812 74.167969 " fill-opacity="1" fill-rule="nonzero"/><path fill="#fffbfb" d="M 96.960938 63.371094 C 99.59375 65.117188 102.9375 67.128906 106.253906 65.6875 C 109.554688 65.371094 108.542969 67.722656 108.542969 67.722656 C 107.734375 70.964844 102.996094 71.574219 100.289062 70.996094 C 97.175781 70.339844 93.707031 67.425781 93.984375 64.089844 C 93.984375 64.089844 94.195312 61.542969 96.964844 63.371094 C 96.964844 63.371094 96.960938 63.371094 96.960938 63.371094 Z M 96.960938 63.371094 " fill-opacity="1" fill-rule="nonzero"/><path fill="#000001" d="M 116.011719 51.828125 C 116.011719 51.828125 114.261719 59.496094 106.59375 51.828125 C 106.59375 51.828125 96.878906 45.445312 93.96875 53.53125 C 93.96875 53.53125 92.472656 59.984375 89.808594 59.984375 C 89.808594 59.984375 87.058594 59.492188 89.992188 50.222656 C 89.992188 50.222656 95.761719 43.410156 95.761719 43.410156 C 95.761719 43.410156 110.445312 46.933594 110.445312 46.933594 C 110.445312 46.933594 116.011719 51.828125 116.011719 51.828125 Z M 116.011719 51.828125 " fill-opacity="1" fill-rule="nonzero"/><path fill="#000001" d="M 97.789062 57.40625 C 98.5 57.40625 99.074219 57.980469 99.074219 58.691406 C 99.074219 59.402344 98.5 59.980469 97.789062 59.980469 C 97.078125 59.980469 96.5 59.402344 96.5 58.691406 C 96.5 57.980469 97.078125 57.40625 97.789062 57.40625 Z M 97.789062 57.40625 " fill-opacity="1" fill-rule="nonzero"/><path fill="#000001" d="M 107.730469 59.882812 C 108.441406 59.882812 109.015625 60.460938 109.015625 61.171875 C 109.015625 61.882812 108.441406 62.457031 107.730469 62.457031 C 107.019531 62.457031 106.441406 61.882812 106.441406 61.171875 C 106.441406 60.460938 107.019531 59.882812 107.730469 59.882812 Z M 107.730469 59.882812 " fill-opacity="1" fill-rule="nonzero"/><path stroke-linecap="round" transform="matrix(0.306472, 0, 0, 0.306472, 108.610364, 57.334023)" fill="none" stroke-linejoin="round" d="M 7.516834 2.886814 C 7.516834 2.886814 2.724387 -7.016726 -7.510546 -0.873217 " stroke="#000001" stroke-width="4" stroke-opacity="1" stroke-miterlimit="4"/><path stroke-linecap="round" transform="matrix(0.306472, 0, 0, 0.306472, 98.962637, 54.931285)" fill="none" stroke-linejoin="round" d="M 7.514518 2.888098 C 7.514518 2.888098 2.722071 -7.015442 -7.512862 -0.871933 " stroke="#000001" stroke-width="4" stroke-opacity="1" stroke-miterlimit="4"/><path fill="#000001" d="M 259.992188 195.976562 C 259.992188 195.976562 262.933594 186.316406 262.933594 186.316406 C 262.933594 186.316406 314.617188 181.097656 314.617188 181.097656 C 314.617188 181.097656 321.148438 186.316406 321.148438 186.316406 C 321.148438 186.316406 323.496094 223.976562 323.496094 223.976562 C 323.496094 223.976562 259.992188 195.976562 259.992188 195.976562 Z M 259.992188 195.976562 " fill-opacity="1" fill-rule="nonzero"/><path fill="#fde6cb" d="M 238.441406 170.457031 C 238.441406 170.457031 248.828125 164.941406 259.429688 173.636719 C 259.429688 173.636719 260.675781 188.269531 249.980469 195.265625 C 249.980469 195.265625 232.925781 183.007812 232.925781 183.007812 C 232.925781 183.007812 238.441406 170.460938 238.441406 170.460938 C 238.441406 170.460938 238.441406 170.457031 238.441406 170.457031 Z M 238.441406 170.457031 " fill-opacity="1" fill-rule="nonzero"/><path fill="#000001" d="M 258.316406 115.75 C 258.316406 115.75 251.707031 114.789062 251.707031 114.789062 C 251.707031 114.789062 239.023438 133.984375 241.988281 172.359375 C 241.988281 172.359375 257.46875 183.386719 257.46875 183.386719 C 257.46875 183.386719 262.027344 180.671875 262.027344 180.671875 C 262.027344 180.671875 250.605469 123.460938 258.316406 115.75 Z M 258.316406 115.75 " fill-opacity="1" fill-rule="nonzero"/><path fill="#000001" d="M 268.703125 96.8125 C 268.703125 96.8125 262.097656 100.523438 260.988281 92.984375 C 260.988281 92.984375 255.003906 93.972656 256.808594 87.496094 C 256.808594 87.496094 253.09375 85.585938 255.8125 82.867188 C 255.8125 82.867188 247.691406 75.984375 258.375 69.75 C 258.375 69.75 258.726562 65.515625 262.9375 66.953125 C 262.9375 66.953125 263.054688 59.53125 273.234375 62.144531 C 273.234375 62.144531 279.578125 59.070312 279.578125 64.4375 C 279.578125 64.4375 282.027344 60.925781 285.699219 64.597656 C 285.699219 64.597656 290.574219 63.421875 289.28125 68.589844 C 289.28125 68.589844 296.039062 66.566406 294.9375 75.058594 C 294.9375 75.058594 298.175781 76.386719 295.058594 79.5 C 295.058594 79.5 302.691406 85.191406 291.347656 90.96875 C 291.347656 90.96875 293.179688 97.945312 284.738281 98.882812 C 284.738281 98.882812 268.699219 96.816406 268.699219 96.816406 C 268.699219 96.816406 268.703125 96.8125 268.703125 96.8125 Z M 268.703125 96.8125 " fill-opacity="1" fill-rule="nonzero"/><path fill="#000001" d="M 280.480469 104.894531 C 262.222656 107.046875 251.707031 114.792969 251.707031 114.792969 C 246.484375 136.980469 262.933594 186.320312 262.933594 186.320312 C 266.792969 188.210938 270.757812 189.550781 274.710938 190.464844 C 273.746094 150.335938 277.910156 119.632812 280.480469 104.894531 Z M 280.480469 104.894531 " fill-opacity="1" fill-rule="nonzero"/><path stroke-linecap="round" transform="matrix(0.306472, 0, 0, 0.306472, 256.807873, 157.086622)" fill="none" stroke-linejoin="round" d="M -19.983171 -95.379574 C -19.983171 -95.379574 -7.415744 19.945051 19.987875 95.375105 " stroke="#000001" stroke-width="6" stroke-opacity="1" stroke-miterlimit="4"/><path fill="#000001" d="M 283.9375 90.964844 C 283.9375 90.964844 266.015625 92.800781 267.503906 123.34375 C 267.503906 123.34375 273.230469 125.816406 273.230469 125.816406 C 273.230469 125.816406 267.417969 129.902344 267.417969 129.902344 C 267.417969 129.902344 274.714844 190.464844 274.714844 190.464844 C 274.714844 190.464844 274.167969 115.59375 283.941406 90.96875 C 283.941406 90.96875 283.9375 90.964844 283.9375 90.964844 Z M 283.9375 90.964844 " fill-opacity="1" fill-rule="nonzero"/><path stroke-linecap="round" transform="matrix(0.306472, 0, 0, 0.306472, 271.064956, 148.939062)" fill="none" stroke-linejoin="round" d="M -6.686851 -135.493687 C -6.686851 -135.493687 -12.001878 -110.473545 -11.619502 -83.516032 C -11.619502 -83.516032 7.065942 -75.447897 7.065942 -75.447897 C 7.065942 -75.447897 -11.899911 -62.115717 -11.899911 -62.115717 C -11.899911 -62.115717 4.835415 78.53495 11.909372 135.49624 " stroke="#000001" stroke-width="6" stroke-opacity="1" stroke-miterlimit="4"/><path fill="#fffbfb" d="M 289.28125 104.351562 C 289.28125 104.351562 286.390625 110.757812 286.390625 110.757812 C 286.390625 110.757812 281.410156 118.75 281.410156 118.75 C 280.5625 120.839844 279.09375 122.550781 277.734375 123.800781 C 275.765625 140.3125 274.054688 163.214844 274.710938 190.464844 C 277.367188 191.074219 280.023438 191.496094 282.640625 191.757812 C 285.121094 165.3125 290.480469 127.855469 290.480469 127.855469 C 296.296875 116.714844 298.082031 109.441406 298.210938 104.753906 C 295.097656 104.449219 292.117188 104.324219 289.277344 104.347656 C 289.277344 104.347656 289.28125 104.351562 289.28125 104.351562 Z M 289.28125 104.351562 " fill-opacity="1" fill-rule="nonzero"/><path fill="#f20000" d="M 281.613281 127.855469 C 281.613281 127.855469 278.488281 131.28125 278.488281 131.28125 C 278.488281 131.28125 276.519531 136.734375 276.519531 136.734375 C 276.519531 136.734375 272.679688 170.113281 274.914062 190.464844 C 274.914062 190.464844 275.359375 193.566406 277.914062 196.121094 C 277.914062 196.121094 279.726562 197.050781 282.84375 191.757812 C 282.84375 191.757812 286.515625 141.980469 284.140625 132.117188 C 284.140625 132.117188 281.617188 127.855469 281.617188 127.855469 C 281.617188 127.855469 281.613281 127.855469 281.613281 127.855469 Z M 281.613281 127.855469 " fill-opacity="1" fill-rule="nonzero"/><path fill="#f20000" d="M 281.414062 118.75 C 281.414062 118.75 280.507812 121.027344 277.738281 123.800781 C 277.738281 123.800781 278.289062 131.277344 278.289062 131.277344 C 278.289062 131.277344 283.941406 132.117188 283.941406 132.117188 C 283.941406 132.117188 286.777344 125.433594 286.777344 125.433594 C 286.777344 125.433594 284.164062 122.789062 281.417969 118.75 C 281.417969 118.75 281.414062 118.75 281.414062 118.75 Z M 281.414062 118.75 " fill-opacity="1" fill-rule="nonzero"/><path stroke-linecap="round" transform="matrix(0.306472, 0, 0, 0.306472, 281.112648, 131.70002)" fill="none" stroke-linejoin="round" d="M -9.225942 -1.366421 C -9.225942 -1.366421 9.21733 1.373941 9.21733 1.373941 " stroke="#000001" stroke-width="6" stroke-opacity="1" stroke-miterlimit="4"/><path fill="#fffbfb" d="M 281.414062 118.75 C 281.414062 118.75 286.394531 110.753906 286.394531 110.753906 C 286.394531 110.753906 289.28125 104.347656 289.28125 104.347656 C 286.183594 104.371094 283.242188 104.566406 280.484375 104.894531 C 279.660156 109.621094 278.671875 115.996094 277.738281 123.800781 C 279.097656 122.546875 280.5625 120.835938 281.414062 118.75 Z M 281.414062 118.75 " fill-opacity="1" fill-rule="nonzero"/><path fill="#000001" d="M 289.277344 96.183594 C 287.390625 94.796875 285.363281 93.015625 283.9375 90.960938 C 283.9375 90.960938 284.417969 101.277344 273.265625 106.851562 C 272.953125 107.007812 274.78125 110.175781 277.085938 113.425781 C 282.328125 112.816406 292.160156 109.875 289.277344 96.183594 Z M 289.277344 96.183594 " fill-opacity="1" fill-rule="nonzero"/><path fill="#fde6cb" d="M 294.269531 99.28125 C 294.269531 99.28125 291.917969 98.125 289.28125 96.1875 C 292.164062 109.875 282.328125 112.820312 277.089844 113.429688 C 278.480469 115.390625 280.042969 117.378906 281.417969 118.75 C 281.417969 118.75 295.199219 114.757812 294.273438 99.28125 C 294.273438 99.28125 294.269531 99.28125 294.269531 99.28125 Z M 294.269531 99.28125 " fill-opacity="1" fill-rule="nonzero"/><path fill="#fffbfb" d="M 281.414062 118.75 C 281.414062 118.75 285.210938 125.625 290.484375 127.855469 C 290.484375 127.855469 299.558594 112.875 298.214844 104.753906 C 298.214844 104.753906 294.269531 99.277344 294.269531 99.277344 C 294.269531 99.277344 295.878906 112.800781 281.414062 118.75 Z M 281.414062 118.75 " fill-opacity="1" fill-rule="nonzero"/><path stroke-linecap="round" transform="matrix(0.306472, 0, 0, 0.306472, 284.108404, 123.305757)" fill="none" stroke-linejoin="round" d="M -20.798091 1.615235 C -20.798091 1.615235 -13.265282 -6.503884 -8.804228 -14.865174 C -8.804228 -14.865174 4.897581 6.509649 20.79168 14.858193 " stroke="#000001" stroke-width="6" stroke-opacity="1" stroke-miterlimit="4"/><path fill="#000001" d="M 330.28125 113.617188 C 318.488281 108.300781 307.730469 105.683594 298.214844 104.753906 C 298.085938 109.441406 296.300781 116.714844 290.484375 127.855469 C 290.484375 127.855469 285.125 165.3125 282.644531 191.757812 C 303.011719 193.804688 321.148438 186.316406 321.148438 186.316406 C 318.015625 154.207031 330.28125 113.617188 330.28125 113.617188 Z M 330.28125 113.617188 " fill-opacity="1" fill-rule="nonzero"/><path fill="#000001" d="M 295.535156 107.414062 C 295.535156 107.414062 294.265625 99.28125 294.265625 99.28125 C 294.265625 99.28125 302.167969 100.257812 309.324219 107.414062 C 309.324219 107.414062 302.453125 130.457031 302.453125 130.457031 C 302.453125 130.457031 296.964844 131.574219 296.964844 131.574219 C 296.964844 131.574219 300.214844 136.59375 300.214844 136.59375 C 300.214844 136.59375 286.628906 165.886719 282.640625 191.757812 C 282.640625 191.757812 288.183594 136.777344 290.480469 127.855469 C 290.480469 127.855469 295.535156 107.414062 295.535156 107.414062 Z M 295.535156 107.414062 " fill-opacity="1" fill-rule="nonzero"/><path stroke-linecap="round" transform="matrix(0.306472, 0, 0, 0.306472, 295.982636, 149.585718)" fill="none" stroke-linejoin="round" d="M 43.532816 -137.603688 C 43.532816 -137.603688 21.112832 -62.415805 21.112832 -62.415805 C 21.112832 -62.415805 3.204886 -58.770487 3.204886 -58.770487 C 3.204886 -58.770487 13.809449 -42.392045 13.809449 -42.392045 C 13.809449 -42.392045 -39.532014 91.465074 -43.534217 137.605121 " stroke="#000001" stroke-width="6" stroke-opacity="1" stroke-miterlimit="4"/><path fill="#fde6cb" d="M 271.242188 85.179688 C 271.242188 85.179688 273.160156 84.507812 273.160156 84.507812 C 278.292969 82.703125 283.917969 85.398438 285.722656 90.535156 C 285.722656 90.535156 288.257812 97.746094 288.257812 97.746094 C 290.0625 102.878906 287.363281 108.503906 282.230469 110.308594 C 282.230469 110.308594 280.3125 110.980469 280.3125 110.980469 C 275.179688 112.785156 269.554688 110.089844 267.75 104.953125 C 267.75 104.953125 265.214844 97.742188 265.214844 97.742188 C 263.410156 92.609375 266.109375 86.984375 271.242188 85.179688 Z M 271.242188 85.179688 " fill-opacity="1" fill-rule="nonzero"/><path fill="#fffbfb" d="M 280.835938 100.105469 C 278.375 102.089844 275.238281 104.40625 271.800781 103.28125 C 268.484375 103.273438 269.707031 105.519531 269.707031 105.519531 C 270.816406 108.671875 275.59375 108.835938 278.238281 108.007812 C 281.273438 107.0625 284.457031 103.839844 283.867188 100.542969 C 283.867188 100.542969 283.421875 98.023438 280.835938 100.105469 Z M 280.835938 100.105469 " fill-opacity="1" fill-rule="nonzero"/><path fill="#000001" d="M 262.933594 91.972656 C 262.933594 91.972656 277.738281 86.546875 277.738281 86.546875 C 277.738281 86.546875 281.929688 85.15625 283.941406 90.960938 C 283.941406 90.960938 285.742188 96.8125 287.734375 96.183594 C 287.734375 96.183594 290.164062 94.445312 287.734375 90.023438 C 287.734375 90.023438 283.941406 81.859375 283.941406 81.859375 C 283.941406 81.859375 275.671875 80.550781 275.671875 80.550781 C 275.671875 80.550781 262.9375 85.109375 262.9375 85.109375 C 262.9375 85.109375 262.9375 91.976562 262.9375 91.976562 C 262.9375 91.976562 262.933594 91.972656 262.933594 91.972656 Z M 262.933594 91.972656 " fill-opacity="1" fill-rule="nonzero"/><path stroke-linecap="round" transform="matrix(0.306472, 0, 0, 0.306472, 198.908622, 201.126315)" fill-opacity="1" fill="#fffbfb" fill-rule="nonzero" stroke-linejoin="round" d="M -508.262023 -181.44174 C -508.262023 -181.44174 -87.903255 -189.318687 -87.903255 -189.318687 C -87.903255 -189.318687 508.259287 89.675645 508.259287 89.675645 C 508.259287 89.675645 7.741747 189.310105 7.741747 189.310105 C 7.741747 189.310105 -508.262023 -181.44174 -508.262023 -181.44174 Z M -508.262023 -181.44174 " stroke="#f20000" stroke-width="6" stroke-opacity="1" stroke-miterlimit="4"/><path fill="#000001" d="M 116.011719 173.164062 C 116.011719 173.164062 82.410156 148.859375 82.410156 148.859375 C 82.410156 148.859375 143.621094 145.519531 143.621094 145.519531 C 143.621094 145.519531 183.578125 167.757812 183.578125 167.757812 C 183.578125 167.757812 116.011719 173.164062 116.011719 173.164062 Z M 116.011719 173.164062 " fill-opacity="1" fill-rule="nonzero"/><path fill="#000001" d="M 317.492188 146.898438 C 317.492188 146.898438 309.398438 125.230469 320.363281 117.140625 C 320.363281 117.140625 324.800781 113.617188 330.28125 113.617188 C 330.28125 113.617188 336.027344 115.3125 344.640625 135.410156 C 344.640625 135.410156 356.648438 161.257812 356.648438 161.257812 C 356.648438 161.257812 362.652344 174.308594 356.648438 186.054688 C 356.648438 186.054688 329.542969 193.351562 331.847656 171.175781 C 331.847656 171.175781 317.492188 146.898438 317.492188 146.898438 Z M 317.492188 146.898438 " fill-opacity="1" fill-rule="nonzero"/><path stroke-linecap="round" transform="matrix(0.306472, 0, 0, 0.306472, 322.562028, 144.724461)" fill="none" stroke-linejoin="round" d="M -12.999245 -84.753173 C -28.740393 -72.644597 -31.735673 -51.652151 -27.73347 -32.64806 C -19.74181 12.357605 5.265586 48.351939 29.342533 84.754142 " stroke="#000001" stroke-width="6" stroke-opacity="1" stroke-miterlimit="4"/><path fill="#f20000" d="M 70.355469 79.777344 C 70.355469 79.777344 67.835938 75.15625 62.035156 78.648438 C 58.105469 81.515625 43.140625 102.683594 43.140625 134.414062 C 43.140625 134.414062 63.601562 142.800781 67.65625 123.34375 C 67.65625 123.34375 75.300781 100.921875 70.355469 79.78125 C 70.355469 79.78125 70.355469 79.777344 70.355469 79.777344 Z M 70.355469 79.777344 " fill-opacity="1" fill-rule="nonzero"/><path stroke-linecap="round" transform="matrix(0.306472, 0, 0, 0.306472, 69.452464, 102.678982)" fill="none" stroke-linejoin="round" d="M -7.887537 -64.644746 C -7.887537 -64.644746 7.879103 -60.833731 7.879103 -8.053087 C 7.879103 -8.053087 5.814272 35.219139 -4.815783 64.649351 " stroke="#000001" stroke-width="6" stroke-opacity="1" stroke-miterlimit="4"/><path fill="#fde6cb" d="M 175.90625 132.121094 C 175.90625 132.121094 171.304688 140.714844 171.304688 140.714844 C 171.304688 140.714844 164.144531 147.679688 164.144531 147.679688 C 164.144531 147.679688 159.542969 152.28125 164.144531 154.585938 C 164.144531 154.585938 166.574219 157.015625 169.003906 154.585938 C 169.003906 154.585938 166.96875 161.996094 174.253906 159.441406 C 174.253906 159.441406 177.382812 165.542969 182.953125 159.976562 C 182.953125 159.976562 185.367188 163.789062 185.367188 163.789062 C 186.324219 165.296875 187.847656 167.261719 189.699219 167.644531 C 194.492188 168.628906 195.597656 163.078125 194.59375 159.695312 C 194.59375 159.695312 191.550781 149.214844 194.59375 141.796875 C 194.59375 141.796875 187.15625 131.546875 187.15625 131.546875 C 187.15625 131.546875 175.902344 132.121094 175.902344 132.121094 C 175.902344 132.121094 175.90625 132.121094 175.90625 132.121094 Z M 175.90625 132.121094 " fill-opacity="1" fill-rule="nonzero"/><path fill="#fffbfb" d="M 187.742188 57.335938 C 187.742188 57.335938 181.636719 57.40625 181.636719 57.40625 C 181.636719 57.40625 172.460938 69.503906 174.566406 98.875 C 174.566406 98.875 182.8125 104.894531 182.8125 104.894531 C 182.8125 104.894531 192.886719 95.265625 192.886719 95.265625 C 192.886719 95.265625 187.742188 57.332031 187.742188 57.332031 C 187.742188 57.332031 187.742188 57.335938 187.742188 57.335938 Z M 187.742188 57.335938 " fill-opacity="1" fill-rule="nonzero"/><path fill="#fffbfb" d="M 174.566406 98.875 C 174.566406 98.875 171.308594 117.640625 171.308594 140.714844 C 171.308594 140.714844 183.628906 135.921875 194.597656 141.796875 C 194.597656 141.796875 194.835938 109.191406 189.757812 92.980469 C 189.757812 92.980469 178.339844 93.027344 174.566406 98.875 Z M 174.566406 98.875 " fill-opacity="1" fill-rule="nonzero"/><path stroke-linecap="round" transform="matrix(0.306472, 0, 0, 0.306472, 170.156035, 153.52083)" fill="none" stroke-linejoin="round" d="M -3.759331 3.475385 C -3.759331 3.475385 3.760732 -3.471113 3.760732 -3.471113 " stroke="#000001" stroke-width="6" stroke-opacity="1" stroke-miterlimit="4"/><path stroke-linecap="round" transform="matrix(0.306472, 0, 0, 0.306472, 175.356869, 158.264999)" fill="none" stroke-linejoin="round" d="M -3.598904 3.838548 C -3.598904 3.838548 3.602512 -3.834465 3.602512 -3.834465 " stroke="#000001" stroke-width="6" stroke-opacity="1" stroke-miterlimit="4"/><path stroke-linecap="round" transform="matrix(0.306472, 0, 0, 0.306472, 187.854786, 89.967749)" fill="none" stroke-linejoin="round" d="M -18.300841 -81.353618 C -18.300841 -81.353618 -7.938449 -23.079504 6.209466 9.843077 C 6.209466 9.843077 18.29255 81.347403 18.29255 81.347403 " stroke="#000001" stroke-width="6" stroke-opacity="1" stroke-miterlimit="4"/><path stroke-linecap="round" transform="matrix(0.306472, 0, 0, 0.306472, 183.547342, 94.58077)" fill="none" stroke-linejoin="round" d="M 20.26441 -5.208946 C 20.26441 -5.208946 -2.104591 -6.266853 -20.254709 5.242667 " stroke="#000001" stroke-width="6" stroke-opacity="1" stroke-miterlimit="4"/><path fill="#fde6cb" d="M 84.746094 138.203125 C 84.746094 138.203125 97.789062 139.800781 97.789062 139.800781 C 97.789062 139.800781 103.273438 141.800781 107.730469 141.800781 C 107.730469 141.800781 118.707031 139.863281 118.707031 148.054688 C 118.707031 148.054688 118.929688 151.308594 116.007812 151.308594 C 116.007812 151.308594 119.519531 154.023438 116.457031 157.089844 C 114.203125 159.34375 110.492188 159.023438 107.613281 158.617188 C 103.570312 158.042969 102.832031 160.101562 99.40625 161.75 C 98.042969 162.402344 96.351562 162.539062 94.871094 162.4375 C 89.714844 162.085938 84.457031 158.324219 81.144531 154.585938 C 81.144531 154.585938 77.546875 150.523438 84.742188 138.207031 C 84.742188 138.207031 84.746094 138.203125 84.746094 138.203125 Z M 84.746094 138.203125 " fill-opacity="1" fill-rule="nonzero"/><path stroke-linecap="round" transform="matrix(0.306472, 0, 0, 0.306472, 113.969033, 150.81928)" fill="none" stroke-linejoin="round" d="M 6.665165 1.583855 C 6.665165 1.583855 0.72559 -1.589866 -6.654268 -1.589866 " stroke="#000001" stroke-width="6" stroke-opacity="1" stroke-miterlimit="4"/><path fill="#f20000" d="M 51.957031 115.464844 C 49.992188 116.574219 48.492188 118.347656 47.722656 120.464844 C 47.722656 120.464844 46.289062 124.425781 46.289062 124.425781 C 46.289062 124.425781 43.144531 134.410156 43.144531 134.410156 C 43.144531 134.410156 58.664062 156.140625 83.402344 160.574219 C 83.402344 160.574219 85.191406 146.734375 97.789062 139.792969 C 97.789062 139.792969 67.65625 123.335938 67.65625 123.335938 C 67.65625 123.335938 62.300781 115.980469 62.300781 115.980469 C 61.417969 114.773438 60.042969 114.023438 58.554688 113.933594 C 56.253906 113.800781 53.964844 114.332031 51.957031 115.464844 Z M 51.957031 115.464844 " fill-opacity="1" fill-rule="nonzero"/><path stroke-linecap="round" transform="matrix(0.306472, 0, 0, 0.306472, 58.332131, 123.782025)" fill="none" stroke-linejoin="round" d="M 30.424065 -1.430065 C 30.424065 -1.430065 7.073633 -21.058703 -30.424715 7.925403 " stroke="#000001" stroke-width="6" stroke-opacity="1" stroke-miterlimit="4"/><path stroke-linecap="round" transform="matrix(0.306472, 0, 0, 0.306472, 83.012004, 131.730069)" fill="none" stroke-linejoin="round" d="M -48.205809 -26.331662 C -48.205809 -26.331662 48.216691 26.334269 48.216691 26.334269 " stroke="#000001" stroke-width="6" stroke-opacity="1" stroke-miterlimit="4"/><path fill="#fde6cb" d="M 260.332031 189.582031 C 261.339844 181.871094 252.90625 174.285156 241.390625 172.585938 C 230.046875 170.914062 219.921875 175.570312 218.414062 183.042969 C 226.734375 189.433594 247.53125 202.925781 260.332031 189.582031 Z M 260.332031 189.582031 " fill-opacity="1" fill-rule="nonzero"/><path fill="#f20000" d="M 218.417969 175.328125 C 218.417969 175.328125 213.519531 176.152344 213.519531 176.152344 C 213.519531 176.152344 214.808594 183.753906 214.808594 183.753906 C 214.808594 183.753906 246.277344 200.933594 246.277344 200.933594 C 246.277344 200.933594 262.027344 187.21875 262.027344 187.21875 C 262.027344 187.21875 260.988281 180.089844 260.988281 180.089844 C 260.988281 180.089844 247.609375 183.976562 247.609375 183.976562 C 247.609375 183.976562 218.417969 175.328125 218.417969 175.328125 Z M 218.417969 175.328125 " fill-opacity="1" fill-rule="nonzero"/><path fill="#fffbfb" d="M 213.519531 176.152344 C 213.519531 176.152344 229.203125 164.65625 229.203125 164.65625 C 229.203125 164.65625 260.988281 180.089844 260.988281 180.089844 C 260.988281 180.089844 244.042969 193.351562 244.042969 193.351562 C 244.042969 193.351562 213.519531 176.152344 213.519531 176.152344 Z M 213.519531 176.152344 " fill-opacity="1" fill-rule="nonzero"/><path fill="#f20000" d="M 209.015625 126.347656 C 208.015625 123.886719 205.382812 122.605469 203.167969 123.503906 C 200.953125 124.402344 199.957031 127.15625 200.953125 129.617188 C 200.953125 129.617188 219.347656 174.957031 219.347656 174.957031 C 219.347656 174.957031 226.472656 169.378906 226.472656 169.378906 C 226.472656 169.378906 209.011719 126.351562 209.011719 126.351562 C 209.011719 126.351562 209.015625 126.347656 209.015625 126.347656 Z M 209.015625 126.347656 " fill-opacity="1" fill-rule="nonzero"/><path stroke-linecap="round" transform="matrix(0.306472, 0, 0, 0.306472, 219.384608, 141.799811)" fill="none" stroke-linejoin="round" d="M -40.88186 -23.041367 C -40.88186 -23.041367 40.882891 23.034951 40.882891 23.034951 " stroke="#000001" stroke-width="6" stroke-opacity="1" stroke-miterlimit="4"/><path stroke-linecap="round" transform="matrix(0.306472, 0, 0, 0.306472, 223.270678, 153.519293)" fill="none" stroke-linejoin="round" d="M -40.879744 -23.031009 C -40.879744 -23.031009 40.885008 23.032562 40.885008 23.032562 " stroke="#000001" stroke-width="6" stroke-opacity="1" stroke-miterlimit="4"/><path stroke-linecap="round" transform="matrix(0.306472, 0, 0, 0.306472, 229.200917, 166.82169)" fill="none" stroke-linejoin="round" d="M -40.881543 -23.036279 C -40.881543 -23.036279 40.883208 23.027292 40.883208 23.027292 " stroke="#000001" stroke-width="6" stroke-opacity="1" stroke-miterlimit="4"/><path fill="#fffbfb" d="M 211.84375 134.414062 C 213.675781 134.414062 215.164062 135.898438 215.164062 137.730469 C 215.164062 139.5625 213.675781 141.050781 211.84375 141.050781 C 210.011719 141.050781 208.523438 139.5625 208.523438 137.730469 C 208.523438 135.898438 210.011719 134.414062 211.84375 134.414062 Z M 211.84375 134.414062 " fill-opacity="1" fill-rule="nonzero"/><path fill="#fffbfb" d="M 217.808594 137.394531 C 219.640625 137.394531 221.125 138.878906 221.125 140.714844 C 221.125 142.546875 219.640625 144.03125 217.808594 144.03125 C 215.976562 144.03125 214.488281 142.546875 214.488281 140.714844 C 214.488281 138.878906 215.976562 137.394531 217.808594 137.394531 Z M 217.808594 137.394531 " fill-opacity="1" fill-rule="nonzero"/><path fill="#fffbfb" d="M 219.382812 147.742188 C 221.214844 147.742188 222.703125 149.226562 222.703125 151.058594 C 222.703125 152.894531 221.214844 154.378906 219.382812 154.378906 C 217.550781 154.378906 216.0625 152.894531 216.0625 151.058594 C 216.0625 149.226562 217.550781 147.742188 219.382812 147.742188 Z M 219.382812 147.742188 " fill-opacity="1" fill-rule="nonzero"/><path fill="#fffbfb" d="M 225.777344 150.203125 C 227.613281 150.203125 229.097656 151.6875 229.097656 153.519531 C 229.097656 155.355469 227.613281 156.839844 225.777344 156.839844 C 223.945312 156.839844 222.460938 155.355469 222.460938 153.519531 C 222.460938 151.6875 223.945312 150.203125 225.777344 150.203125 Z M 225.777344 150.203125 " fill-opacity="1" fill-rule="nonzero"/><path fill="#fffbfb" d="M 224.726562 161.222656 C 226.558594 161.222656 228.042969 162.707031 228.042969 164.542969 C 228.042969 166.375 226.558594 167.859375 224.726562 167.859375 C 222.890625 167.859375 221.40625 166.375 221.40625 164.542969 C 221.40625 162.707031 222.890625 161.222656 224.726562 161.222656 Z M 224.726562 161.222656 " fill-opacity="1" fill-rule="nonzero"/><path fill="#f20000" d="M 227.832031 136.40625 C 226.832031 133.941406 224.199219 132.664062 221.984375 133.558594 C 219.769531 134.457031 218.773438 137.210938 219.773438 139.675781 C 219.773438 139.675781 238.167969 185.015625 238.167969 185.015625 C 238.167969 185.015625 245.289062 179.4375 245.289062 179.4375 C 245.289062 179.4375 227.828125 136.40625 227.828125 136.40625 C 227.828125 136.40625 227.832031 136.40625 227.832031 136.40625 Z M 227.832031 136.40625 " fill-opacity="1" fill-rule="nonzero"/><path stroke-linecap="round" transform="matrix(0.306472, 0, 0, 0.306472, 237.253452, 184.753359)" fill="none" stroke-linejoin="round" d="M -77.44242 -28.064619 C -77.44242 -28.064619 22.153802 28.055443 22.153802 28.055443 C 22.153802 28.055443 77.445383 -15.216783 77.445383 -15.216783 " stroke="#000001" stroke-width="6" stroke-opacity="1" stroke-miterlimit="4"/><path fill="#fde6cb" d="M 243.71875 195.070312 C 243.929688 194.535156 244.042969 193.960938 244.042969 193.351562 C 244.042969 190.742188 241.925781 188.625 239.316406 188.625 C 237.8125 188.625 236.472656 189.332031 235.605469 190.429688 C 235.753906 189.96875 235.835938 189.480469 235.835938 188.96875 C 235.835938 186.355469 233.71875 184.238281 231.109375 184.238281 C 229.628906 184.238281 228.308594 184.917969 227.441406 185.984375 C 227.65625 185.441406 227.777344 184.859375 227.777344 184.238281 C 227.777344 181.628906 225.660156 179.507812 223.046875 179.507812 C 220.835938 179.507812 218.984375 181.03125 218.46875 183.085938 C 218.453125 183.070312 218.429688 183.054688 218.410156 183.039062 C 218.378906 183.207031 218.34375 183.371094 218.320312 183.539062 C 217.171875 191.300781 225.644531 198.980469 237.242188 200.691406 C 248.839844 202.402344 259.167969 197.5 260.308594 189.738281 C 260.320312 189.683594 260.320312 189.632812 260.328125 189.578125 C 255.550781 194.558594 249.660156 195.796875 243.71875 195.066406 C 243.71875 195.066406 243.71875 195.070312 243.71875 195.070312 Z M 234.824219 191.890625 C 234.746094 192.125 234.691406 192.367188 234.65625 192.609375 C 234.53125 192.5625 234.410156 192.511719 234.289062 192.460938 C 234.484375 192.285156 234.664062 192.097656 234.824219 191.890625 Z M 226.722656 187.21875 C 226.566406 187.617188 226.457031 188.039062 226.410156 188.476562 C 226.199219 188.351562 225.988281 188.226562 225.777344 188.097656 C 226.132812 187.847656 226.449219 187.554688 226.722656 187.21875 Z M 226.722656 187.21875 " fill-opacity="1" fill-rule="nonzero"/><path stroke-linecap="round" transform="matrix(0.306472, 0, 0, 0.306472, 226.169902, 188.130679)" fill="none" stroke-linejoin="round" d="M 4.161592 -6.990522 C 4.161592 -6.990522 -4.16146 6.991697 -4.16146 6.991697 " stroke="#000001" stroke-width="6" stroke-opacity="1" stroke-miterlimit="4"/><path stroke-linecap="round" transform="matrix(0.306472, 0, 0, 0.306472, 234.266884, 192.847299)" fill="none" stroke-linejoin="round" d="M 4.380472 -7.888528 C 4.380472 -7.888528 -4.37594 7.890858 -4.37594 7.890858 " stroke="#000001" stroke-width="6" stroke-opacity="1" stroke-miterlimit="4"/><path fill="#fde6cb" d="M 309.660156 181.097656 C 309.660156 181.097656 289.28125 184.808594 283.9375 193.132812 C 283.9375 193.132812 279.378906 197.804688 282.511719 200.933594 C 282.511719 200.933594 284.859375 203.808594 287.730469 200.933594 C 287.730469 200.933594 285.066406 207.460938 295.535156 207.460938 C 295.535156 207.460938 296.609375 217.121094 308.355469 212.941406 C 308.355469 212.941406 319.058594 207.988281 323.496094 197.542969 C 323.496094 197.542969 309.660156 181.09375 309.660156 181.09375 C 309.660156 181.09375 309.660156 181.097656 309.660156 181.097656 Z M 309.660156 181.097656 " fill-opacity="1" fill-rule="nonzero"/><path stroke-linecap="round" transform="matrix(0.306472, 0, 0, 0.306472, 289.106939, 199.900728)" fill="none" stroke-linejoin="round" d="M -4.491344 3.370183 C -4.491344 3.370183 4.481748 -3.372382 4.481748 -3.372382 " stroke="#000001" stroke-width="6" stroke-opacity="1" stroke-miterlimit="4"/><path stroke-linecap="round" transform="matrix(0.306472, 0, 0, 0.306472, 296.963351, 206.451566)" fill="none" stroke-linejoin="round" d="M -4.660117 3.306266 C -4.660117 3.306266 4.657113 -3.296094 4.657113 -3.296094 " stroke="#000001" stroke-width="6" stroke-opacity="1" stroke-miterlimit="4"/><path fill="#000001" d="M 336.96875 165.171875 C 336.96875 165.171875 331.847656 171.175781 331.847656 171.175781 C 331.847656 171.175781 297.128906 183.371094 297.128906 183.371094 C 297.128906 183.371094 316.707031 187.882812 318.535156 207.464844 C 318.535156 207.464844 347.773438 199.632812 356.648438 186.054688 C 356.648438 186.054688 357.585938 176.507812 354.011719 168.199219 C 352.269531 164.152344 347.769531 162.046875 343.535156 163.269531 C 343.535156 163.269531 336.96875 165.167969 336.96875 165.167969 C 336.96875 165.167969 336.96875 165.171875 336.96875 165.171875 Z M 336.96875 165.171875 " fill-opacity="1" fill-rule="nonzero"/><path stroke-linecap="round" transform="matrix(0.306472, 0, 0, 0.306472, 314.249901, 188.903306)" fill="none" stroke-linejoin="round" d="M 55.865468 -57.257585 C 18.379867 -43.797947 -18.608646 -31.804084 -55.864822 -18.051291 C -55.533429 -17.987562 -47.669228 -21.072062 -55.864822 -18.051291 C -55.533429 -17.987562 -51.531226 -17.248302 -51.747906 -18.140513 C -51.990078 -19.121944 -55.405971 -18.216988 -55.864822 -18.051291 C -28.231777 -11.589136 -5.76081 9.518024 6.11834 34.818574 C 9.470504 41.969007 12.019678 49.514561 13.612911 57.26405 " stroke="#000001" stroke-width="6" stroke-opacity="1" stroke-miterlimit="4"/><path stroke-linecap="round" transform="matrix(0.306472, 0, 0, 0.306472, 341.093754, 173.166574)" fill="none" stroke-linejoin="round" d="M -30.169485 -6.495843 C -30.169485 -6.495843 -0.140217 -20.541791 30.16946 9.742394 " stroke="#000001" stroke-width="6" stroke-opacity="1" stroke-miterlimit="4"/><path stroke-linecap="round" transform="matrix(0.306472, 0, 0, 0.306472, 212.288574, 218.297019)" fill-opacity="1" fill="#fffbfb" fill-rule="nonzero" stroke-linejoin="round" d="M -264.284004 -85.130131 C -264.284004 -85.130131 -65.524919 -106.30102 -65.524919 -106.30102 C -65.524919 -106.30102 264.287194 57.432416 264.287194 57.432416 C 264.287194 57.432416 20.624411 106.300079 20.624411 106.300079 C 20.624411 106.300079 -264.284004 -85.130131 -264.284004 -85.130131 Z M -264.284004 -85.130131 " stroke="#000001" stroke-width="6" stroke-opacity="1" stroke-miterlimit="4"/><path stroke-linecap="round" transform="matrix(0.306472, 0, 0, 0.306472, 221.043847, 228.237439)" fill-opacity="1" fill="#fffbfb" fill-rule="nonzero" stroke-linejoin="round" d="M -50.13237 19.414706 C -50.13237 19.414706 -68.537405 7.650269 -68.537405 7.650269 C -68.537405 7.650269 -55.498381 6.082527 -55.498381 6.082527 C -55.498381 6.082527 -36.965887 16.266477 -36.965887 16.266477 C -36.965887 16.266477 -50.13237 19.414706 -50.13237 19.414706 Z M -50.13237 19.414706 " stroke="#f20000" stroke-width="6" stroke-opacity="1" stroke-miterlimit="4"/><path stroke-linecap="round" transform="matrix(0.306472, 0, 0, 0.306472, 207.758906, 222.600791)" fill-opacity="1" fill="#fffbfb" fill-rule="nonzero" stroke-linejoin="round" d="M -41.019776 15.221084 C -41.019776 15.221084 -59.463049 3.87726 -59.463049 3.87726 C -59.463049 3.87726 -48.272176 3.023287 -48.272176 3.023287 C -48.272176 3.023287 -31.03976 11.907158 -31.03976 11.907158 C -31.03976 11.907158 -41.019776 15.221084 -41.019776 15.221084 Z M -41.019776 15.221084 " stroke="#f20000" stroke-width="6" stroke-opacity="1" stroke-miterlimit="4"/><path stroke-linecap="round" transform="matrix(0.306472, 0, 0, 0.306472, 195.032663, 216.329763)" fill-opacity="1" fill="#fffbfb" fill-rule="nonzero" stroke-linejoin="round" d="M -31.07904 12.217944 C -31.07904 12.217944 -51.255751 0.644695 -51.255751 0.644695 C -51.255751 0.644695 -42.014996 -0.706367 -42.014996 -0.706367 C -42.014996 -0.706367 -22.50107 9.834466 -22.50107 9.834466 C -22.50107 9.834466 -31.07904 12.217944 -31.07904 12.217944 Z M -31.07904 12.217944 " stroke="#f20000" stroke-width="6" stroke-opacity="1" stroke-miterlimit="4"/><path stroke-linecap="round" transform="matrix(0.306472, 0, 0, 0.306472, 182.6086, 209.978763)" fill-opacity="1" fill="#fffbfb" fill-rule="nonzero" stroke-linejoin="round" d="M -25.552939 10.20226 C -25.552939 10.20226 -44.544284 0.336957 -44.544284 0.336957 C -44.544284 0.336957 -34.1564 -1.702382 -34.1564 -1.702382 C -34.1564 -1.702382 -17.956401 7.525627 -17.956401 7.525627 C -17.956401 7.525627 -25.552939 10.20226 -25.552939 10.20226 Z M -25.552939 10.20226 " stroke="#f20000" stroke-width="6" stroke-opacity="1" stroke-miterlimit="4"/><path stroke-linecap="round" transform="matrix(0.306472, 0, 0, 0.306472, 169.701845, 203.099995)" fill-opacity="1" fill="#fffbfb" fill-rule="nonzero" stroke-linejoin="round" d="M -17.215493 9.615498 C -17.215493 9.615498 -36.334297 -0.734147 -36.334297 -0.734147 C -36.334297 -0.734147 -24.710064 -2.110701 -24.710064 -2.110701 C -24.710064 -2.110701 -4.673558 6.92612 -4.673558 6.92612 C -4.673558 6.92612 -17.215493 9.615498 -17.215493 9.615498 Z M -17.215493 9.615498 " stroke="#f20000" stroke-width="6" stroke-opacity="1" stroke-miterlimit="4"/><path stroke-linecap="round" transform="matrix(0.306472, 0, 0, 0.306472, 206.318189, 204.562174)" fill="none" stroke-linejoin="round" d="M -106.586774 -31.991068 C -106.586774 -31.991068 -98.620606 -27.54276 -84.561912 -20.965892 " stroke="#f20000" stroke-width="6" stroke-opacity="1" stroke-miterlimit="4"/><path fill="#f20000" d="M 178.453125 194.875 C 178.453125 194.875 181.34375 197.832031 180.355469 199.953125 C 180.355469 199.953125 186.273438 198.402344 186.273438 198.402344 C 186.273438 198.402344 178.453125 194.875 178.453125 194.875 Z M 178.453125 194.875 " fill-opacity="1" fill-rule="nonzero"/><path fill="#000001" d="M 136.445312 117.390625 C 136.445312 117.390625 202.230469 114.894531 202.230469 114.894531 C 202.230469 114.894531 183.578125 167.757812 183.578125 167.757812 C 183.578125 167.757812 116.011719 173.164062 116.011719 173.164062 C 116.011719 173.164062 136.445312 117.390625 136.445312 117.390625 Z M 136.445312 117.390625 " fill-opacity="1" fill-rule="nonzero"/><path fill="#fffbfb" d="M 160.511719 136 C 164.945312 136 168.542969 139.597656 168.542969 144.03125 C 168.542969 148.46875 164.945312 152.066406 160.511719 152.066406 C 156.074219 152.066406 152.476562 148.46875 152.476562 144.03125 C 152.476562 139.597656 156.074219 136 160.511719 136 Z M 160.511719 136 " fill-opacity="1" fill-rule="nonzero"/><path stroke-linecap="round" transform="matrix(0.306472, 0, 0, 0.306472, 125.978127, 145.562355)" fill="none" stroke-linejoin="round" d="M -31.398182 86.940046 C -31.398182 86.940046 31.38797 -86.939102 31.38797 -86.939102 " stroke="#000001" stroke-width="6" stroke-opacity="1" stroke-miterlimit="4"/><path fill="#000001" d="M 279.15625 94.308594 C 279.828125 94.074219 280.558594 94.433594 280.792969 95.105469 C 281.023438 95.777344 280.664062 96.507812 279.992188 96.742188 C 279.320312 96.972656 278.589844 96.617188 278.355469 95.941406 C 278.125 95.269531 278.484375 94.539062 279.15625 94.308594 Z M 279.15625 94.308594 " fill-opacity="1" fill-rule="nonzero"/><path fill="#000001" d="M 269.488281 97.707031 C 270.160156 97.472656 270.894531 97.832031 271.125 98.503906 C 271.355469 99.175781 271 99.910156 270.328125 100.140625 C 269.65625 100.371094 268.921875 100.015625 268.691406 99.34375 C 268.460938 98.667969 268.816406 97.9375 269.488281 97.707031 Z M 269.488281 97.707031 " fill-opacity="1" fill-rule="nonzero"/><path stroke-linecap="round" transform="matrix(0.306472, 0, 0, 0.306472, 268.703581, 95.268196)" fill="none" stroke-linejoin="round" d="M -7.30487 3.292793 C -7.30487 3.292793 -3.468363 -7.018616 7.314642 -1.843793 " stroke="#000001" stroke-width="4" stroke-opacity="1" stroke-miterlimit="4"/><path stroke-linecap="round" transform="matrix(0.306472, 0, 0, 0.306472, 278.04333, 91.954304)" fill="none" stroke-linejoin="round" d="M -7.304562 3.297332 C -7.304562 3.297332 -3.468055 -7.014076 7.31495 -1.839253 " stroke="#000001" stroke-width="4" stroke-opacity="1" stroke-miterlimit="4"/></svg>