<svg xmlns="http://www.w3.org/2000/svg" xmlns:xlink="http://www.w3.org/1999/xlink" width="40" zoomAndPan="magnify" viewBox="0 0 30 30.000001" height="40" preserveAspectRatio="xMidYMid meet" version="1.0"><defs><g/><clipPath id="8391882a9f"><path d="M 1.269531 0.859375 L 28.78125 0.859375 L 28.78125 28.160156 L 1.269531 28.160156 Z M 1.269531 0.859375 " clip-rule="nonzero"/></clipPath><clipPath id="28fd2893b7"><path d="M 5.621094 0.859375 L 24.378906 0.859375 C 25.53125 0.859375 26.640625 1.320312 27.457031 2.136719 C 28.273438 2.953125 28.730469 4.0625 28.730469 5.214844 L 28.730469 23.804688 C 28.730469 26.210938 26.78125 28.160156 24.378906 28.160156 L 5.621094 28.160156 C 3.21875 28.160156 1.269531 26.210938 1.269531 23.804688 L 1.269531 5.214844 C 1.269531 2.8125 3.21875 0.859375 5.621094 0.859375 Z M 5.621094 0.859375 " clip-rule="nonzero"/></clipPath><clipPath id="9f668d9e33"><path d="M 1.269531 0.863281 L 28.75 0.863281 L 28.75 28.210938 L 1.269531 28.210938 Z M 1.269531 0.863281 " clip-rule="nonzero"/></clipPath><clipPath id="767eebdbbf"><path d="M 5.621094 0.863281 L 24.371094 0.863281 C 25.523438 0.863281 26.632812 1.324219 27.449219 2.140625 C 28.265625 2.957031 28.722656 4.0625 28.722656 5.21875 L 28.722656 23.800781 C 28.722656 26.207031 26.773438 28.15625 24.371094 28.15625 L 5.621094 28.15625 C 3.21875 28.15625 1.269531 26.207031 1.269531 23.800781 L 1.269531 5.21875 C 1.269531 2.8125 3.21875 0.863281 5.621094 0.863281 Z M 5.621094 0.863281 " clip-rule="nonzero"/></clipPath></defs><g clip-path="url(#8391882a9f)"><g clip-path="url(#28fd2893b7)"><path fill="#fe2424" d="M 1.269531 0.859375 L 28.78125 0.859375 L 28.78125 28.160156 L 1.269531 28.160156 Z M 1.269531 0.859375 " fill-opacity="1" fill-rule="nonzero"/></g></g><g clip-path="url(#9f668d9e33)"><g clip-path="url(#767eebdbbf)"><path stroke-linecap="butt" transform="matrix(0.725806, 0, 0, 0.725806, 1.267741, 0.864142)" fill="none" stroke-linejoin="miter" d="M 5.997952 -0.00118596 L 31.831286 -0.00118596 C 33.418959 -0.00118596 34.947432 0.633883 36.072258 1.75871 C 37.197084 2.883536 37.826772 4.406627 37.826772 5.999682 L 37.826772 31.601592 C 37.826772 34.91687 35.141182 37.60246 31.831286 37.60246 L 5.997952 37.60246 C 2.688056 37.60246 0.00246602 34.91687 0.00246602 31.601592 L 0.00246602 5.999682 C 0.00246602 2.684404 2.688056 -0.00118596 5.997952 -0.00118596 Z M 5.997952 -0.00118596 " stroke="#000000" stroke-width="2" stroke-opacity="1" stroke-miterlimit="4"/></g></g><g fill="#ffffff" fill-opacity="1"><g transform="translate(2.327419, 23.862363)"><g><path d="M 3.984375 -16.5625 C 3.304688 -16.5625 2.757812 -16.765625 2.34375 -17.171875 C 1.925781 -17.578125 1.71875 -18.097656 1.71875 -18.734375 C 1.71875 -19.367188 1.925781 -19.890625 2.34375 -20.296875 C 2.757812 -20.703125 3.304688 -20.90625 3.984375 -20.90625 C 4.429688 -20.90625 4.828125 -20.8125 5.171875 -20.625 C 5.523438 -20.4375 5.796875 -20.179688 5.984375 -19.859375 C 6.179688 -19.535156 6.28125 -19.160156 6.28125 -18.734375 C 6.28125 -18.316406 6.179688 -17.941406 5.984375 -17.609375 C 5.796875 -17.285156 5.523438 -17.03125 5.171875 -16.84375 C 4.828125 -16.65625 4.429688 -16.5625 3.984375 -16.5625 Z M 2.125 0 L 2.125 -14.78125 L 5.84375 -14.78125 L 5.84375 0 Z M 2.125 0 "/></g></g></g><g fill="#ffffff" fill-opacity="1"><g transform="translate(10.285262, 23.862363)"><g><path d="M 2.125 0 L 2.125 -14.78125 L 5.703125 -14.78125 L 5.703125 -12.609375 L 5.984375 -12.546875 C 6.898438 -14.222656 8.390625 -15.0625 10.453125 -15.0625 C 12.160156 -15.0625 13.414062 -14.597656 14.21875 -13.671875 C 15.019531 -12.742188 15.421875 -11.390625 15.421875 -9.609375 L 15.421875 0 L 11.703125 0 L 11.703125 -9.15625 C 11.703125 -10.132812 11.503906 -10.84375 11.109375 -11.28125 C 10.710938 -11.71875 10.082031 -11.9375 9.21875 -11.9375 C 8.15625 -11.9375 7.328125 -11.585938 6.734375 -10.890625 C 6.140625 -10.203125 5.84375 -9.125 5.84375 -7.65625 L 5.84375 0 Z M 2.125 0 "/></g></g></g></svg>