<svg xmlns="http://www.w3.org/2000/svg" xmlns:xlink="http://www.w3.org/1999/xlink" width="80" zoomAndPan="magnify" viewBox="0 0 60 60" height="80" preserveAspectRatio="xMidYMid meet" version="1.0"><defs><clipPath id="9e9e62ad7e"><path d="M 3.4375 9.078125 L 56.6875 9.078125 L 56.6875 38 L 3.4375 38 Z M 3.4375 9.078125 " clip-rule="nonzero"/></clipPath><clipPath id="38b03fded4"><path d="M 5 38 L 55 38 L 55 48.078125 L 5 48.078125 Z M 5 38 " clip-rule="nonzero"/></clipPath></defs><g clip-path="url(#9e9e62ad7e)"><path fill="#fe2424" d="M 54.785156 16.191406 L 42.390625 16.191406 L 42.390625 14.421875 C 42.390625 14.070312 42.355469 13.726562 42.289062 13.382812 C 42.21875 13.042969 42.117188 12.710938 41.984375 12.386719 C 41.851562 12.066406 41.6875 11.761719 41.492188 11.46875 C 41.300781 11.179688 41.078125 10.914062 40.832031 10.664062 C 40.585938 10.417969 40.320312 10.199219 40.027344 10.003906 C 39.738281 9.8125 39.433594 9.648438 39.109375 9.515625 C 38.789062 9.378906 38.457031 9.28125 38.113281 9.210938 C 37.773438 9.144531 37.425781 9.109375 37.078125 9.109375 L 22.914062 9.109375 C 22.566406 9.109375 22.21875 9.144531 21.878906 9.210938 C 21.535156 9.28125 21.203125 9.382812 20.882812 9.515625 C 20.558594 9.648438 20.253906 9.8125 19.964844 10.003906 C 19.671875 10.199219 19.40625 10.417969 19.160156 10.667969 C 18.914062 10.914062 18.691406 11.179688 18.5 11.472656 C 18.304688 11.761719 18.140625 12.066406 18.007812 12.390625 C 17.875 12.710938 17.773438 13.042969 17.703125 13.386719 C 17.636719 13.726562 17.601562 14.070312 17.601562 14.421875 L 17.601562 16.191406 L 5.207031 16.191406 C 4.972656 16.191406 4.746094 16.238281 4.53125 16.324219 C 4.3125 16.414062 4.121094 16.542969 3.953125 16.710938 C 3.789062 16.875 3.660156 17.066406 3.570312 17.285156 C 3.480469 17.5 3.4375 17.726562 3.4375 17.960938 L 3.4375 28.585938 C 3.4375 29.167969 3.492188 29.742188 3.609375 30.3125 C 3.722656 30.882812 3.890625 31.4375 4.113281 31.972656 C 4.335938 32.507812 4.609375 33.019531 4.929688 33.503906 C 5.253906 33.984375 5.621094 34.433594 6.03125 34.84375 C 6.441406 35.253906 6.890625 35.621094 7.375 35.945312 C 7.855469 36.265625 8.367188 36.539062 8.902344 36.761719 C 9.441406 36.984375 9.992188 37.152344 10.5625 37.265625 C 11.132812 37.382812 11.707031 37.4375 12.289062 37.4375 L 28.226562 37.4375 L 28.226562 36.554688 C 28.21875 36.316406 28.261719 36.085938 28.347656 35.863281 C 28.433594 35.640625 28.5625 35.445312 28.730469 35.273438 C 28.894531 35.101562 29.089844 34.972656 29.308594 34.878906 C 29.527344 34.785156 29.757812 34.738281 29.996094 34.738281 C 30.234375 34.738281 30.464844 34.785156 30.683594 34.878906 C 30.902344 34.972656 31.097656 35.101562 31.261719 35.273438 C 31.429688 35.445312 31.558594 35.640625 31.644531 35.863281 C 31.730469 36.085938 31.773438 36.316406 31.765625 36.554688 L 31.765625 37.4375 L 47.703125 37.4375 C 48.285156 37.4375 48.859375 37.382812 49.429688 37.265625 C 50 37.152344 50.550781 36.984375 51.089844 36.761719 C 51.625 36.539062 52.136719 36.265625 52.621094 35.945312 C 53.101562 35.621094 53.550781 35.253906 53.960938 34.84375 C 54.371094 34.433594 54.738281 33.984375 55.0625 33.503906 C 55.382812 33.019531 55.65625 32.507812 55.878906 31.972656 C 56.101562 31.4375 56.269531 30.882812 56.386719 30.3125 C 56.5 29.742188 56.554688 29.167969 56.558594 28.585938 L 56.558594 17.960938 C 56.558594 17.726562 56.511719 17.5 56.421875 17.285156 C 56.332031 17.066406 56.203125 16.875 56.039062 16.710938 C 55.871094 16.542969 55.679688 16.417969 55.464844 16.328125 C 55.246094 16.238281 55.019531 16.191406 54.785156 16.191406 Z M 21.144531 14.421875 C 21.144531 14.1875 21.1875 13.960938 21.277344 13.742188 C 21.367188 13.527344 21.496094 13.335938 21.664062 13.167969 C 21.828125 13.003906 22.019531 12.875 22.234375 12.785156 C 22.453125 12.695312 22.679688 12.648438 22.914062 12.648438 L 37.078125 12.648438 C 37.3125 12.648438 37.539062 12.695312 37.757812 12.785156 C 37.972656 12.875 38.164062 13.003906 38.332031 13.167969 C 38.496094 13.335938 38.625 13.527344 38.714844 13.742188 C 38.804688 13.960938 38.847656 14.1875 38.851562 14.421875 L 38.851562 16.191406 L 21.144531 16.191406 Z M 21.144531 14.421875 " fill-opacity="1" fill-rule="nonzero"/></g><g clip-path="url(#38b03fded4)"><path fill="#fe2424" d="M 31.765625 40.980469 L 31.765625 41.867188 C 31.773438 42.105469 31.730469 42.335938 31.644531 42.558594 C 31.558594 42.777344 31.429688 42.976562 31.261719 43.144531 C 31.097656 43.316406 30.902344 43.449219 30.683594 43.542969 C 30.464844 43.632812 30.234375 43.679688 29.996094 43.679688 C 29.757812 43.679688 29.527344 43.632812 29.308594 43.542969 C 29.089844 43.449219 28.894531 43.316406 28.730469 43.144531 C 28.5625 42.976562 28.433594 42.777344 28.347656 42.558594 C 28.261719 42.335938 28.21875 42.105469 28.226562 41.867188 L 28.226562 40.980469 L 12.289062 40.980469 C 9.691406 40.980469 7.332031 40.234375 5.207031 38.742188 L 5.207031 42.75 C 5.207031 43.101562 5.242188 43.445312 5.308594 43.789062 C 5.378906 44.128906 5.480469 44.460938 5.613281 44.785156 C 5.746094 45.105469 5.910156 45.410156 6.105469 45.703125 C 6.296875 45.992188 6.519531 46.257812 6.765625 46.507812 C 7.011719 46.753906 7.28125 46.972656 7.570312 47.167969 C 7.859375 47.359375 8.164062 47.523438 8.488281 47.65625 C 8.808594 47.792969 9.140625 47.890625 9.484375 47.960938 C 9.824219 48.027344 10.171875 48.0625 10.519531 48.0625 L 49.472656 48.0625 C 49.824219 48.0625 50.167969 48.027344 50.511719 47.960938 C 50.851562 47.890625 51.183594 47.792969 51.507812 47.65625 C 51.828125 47.523438 52.132812 47.359375 52.425781 47.167969 C 52.714844 46.972656 52.980469 46.753906 53.230469 46.507812 C 53.476562 46.257812 53.695312 45.992188 53.890625 45.703125 C 54.082031 45.410156 54.246094 45.105469 54.378906 44.785156 C 54.515625 44.460938 54.613281 44.128906 54.683594 43.789062 C 54.75 43.445312 54.785156 43.101562 54.785156 42.75 L 54.785156 38.742188 C 52.660156 40.234375 50.300781 40.980469 47.703125 40.980469 Z M 31.765625 40.980469 " fill-opacity="1" fill-rule="nonzero"/></g></svg>