<svg xmlns="http://www.w3.org/2000/svg" xmlns:xlink="http://www.w3.org/1999/xlink" width="80" zoomAndPan="magnify" viewBox="0 0 60 60" height="80" preserveAspectRatio="xMidYMid meet" version="1.0"><defs><clipPath id="55cb4bd7c9"><path d="M 35.878906 29.566406 L 58.5 29.566406 L 58.5 52.5 L 35.878906 52.5 Z M 35.878906 29.566406 " clip-rule="nonzero"/></clipPath><clipPath id="f45c692f91"><path d="M 6 5.25 L 49 5.25 L 49 52 L 6 52 Z M 6 5.25 " clip-rule="nonzero"/></clipPath></defs><g clip-path="url(#55cb4bd7c9)"><path fill="#fe2424" d="M 53.25 39.335938 L 46.59375 45.992188 C 46.1875 46.398438 45.65625 46.601562 45.121094 46.601562 C 44.589844 46.601562 44.058594 46.398438 43.652344 45.992188 L 40.386719 42.726562 C 39.574219 41.914062 39.574219 40.597656 40.386719 39.78125 C 41.195312 38.972656 42.515625 38.972656 43.328125 39.78125 L 45.121094 41.578125 L 50.308594 36.394531 C 51.121094 35.582031 52.4375 35.582031 53.25 36.394531 C 54.0625 37.207031 54.0625 38.523438 53.25 39.335938 Z M 47.339844 29.734375 C 41.011719 29.734375 35.878906 34.863281 35.878906 41.191406 C 35.878906 47.519531 41.011719 52.652344 47.339844 52.652344 C 53.667969 52.652344 58.796875 47.519531 58.796875 41.191406 C 58.796875 34.863281 53.667969 29.734375 47.339844 29.734375 " fill-opacity="1" fill-rule="nonzero"/></g><g clip-path="url(#f45c692f91)"><path fill="#fe2424" d="M 47.972656 13.917969 C 47.328125 13.355469 46.472656 13.101562 45.628906 13.21875 C 45.160156 13.285156 44.597656 13.335938 43.972656 13.335938 C 41.777344 13.335938 38.777344 12.722656 36.179688 10.042969 C 33.109375 6.875 30.347656 5.398438 27.492188 5.398438 C 24.636719 5.398438 21.875 6.875 18.804688 10.042969 C 15.464844 13.492188 11.453125 13.515625 9.359375 13.21875 C 8.511719 13.101562 7.65625 13.355469 7.011719 13.917969 C 6.367188 14.472656 6 15.28125 6 16.136719 L 6 22.707031 C 6.003906 22.914062 6.136719 27.933594 8.695312 34.015625 C 11.0625 39.640625 16.046875 47.269531 26.335938 51.648438 C 26.703125 51.804688 27.097656 51.878906 27.492188 51.878906 C 27.890625 51.878906 28.28125 51.804688 28.652344 51.648438 C 30.910156 50.683594 32.914062 49.566406 34.6875 48.34375 C 34.214844 47.511719 33.816406 46.621094 33.515625 45.691406 C 31.773438 46.9375 29.789062 48.066406 27.535156 49.027344 C 27.507812 49.039062 27.476562 49.039062 27.449219 49.027344 C 19.933594 45.824219 14.519531 40.4375 11.363281 33.011719 C 8.984375 27.417969 8.847656 22.691406 8.847656 22.675781 L 8.847656 16.136719 C 8.847656 16.125 8.847656 16.09375 8.882812 16.0625 C 8.90625 16.042969 8.929688 16.039062 8.945312 16.039062 L 8.960938 16.039062 C 11.589844 16.410156 16.632812 16.378906 20.851562 12.023438 C 23.316406 9.480469 25.488281 8.246094 27.492188 8.246094 C 28.492188 8.246094 29.539062 8.550781 30.640625 9.179688 C 31.746094 9.808594 32.902344 10.75 34.132812 12.023438 C 38.355469 16.378906 43.394531 16.410156 46.023438 16.039062 C 46.039062 16.035156 46.070312 16.03125 46.105469 16.0625 C 46.136719 16.09375 46.136719 16.125 46.136719 16.136719 L 46.136719 22.644531 C 46.136719 22.699219 46.089844 24.3125 45.570312 26.765625 C 46.152344 26.691406 46.738281 26.65625 47.339844 26.65625 C 47.726562 26.65625 48.117188 26.671875 48.496094 26.703125 C 48.941406 24.347656 48.984375 22.808594 48.984375 22.675781 L 48.984375 16.136719 C 48.984375 15.28125 48.617188 14.472656 47.972656 13.917969 " fill-opacity="1" fill-rule="nonzero"/></g><path fill="#fe2424" d="M 30.324219 28.617188 L 30.324219 33.546875 C 30.324219 35.113281 29.058594 36.378906 27.492188 36.378906 C 25.925781 36.378906 24.660156 35.113281 24.660156 33.546875 L 24.660156 28.617188 C 23.714844 27.8125 23.101562 26.628906 23.101562 25.289062 C 23.101562 22.867188 25.070312 20.898438 27.492188 20.898438 C 29.917969 20.898438 31.882812 22.867188 31.882812 25.289062 C 31.882812 26.628906 31.269531 27.8125 30.324219 28.617188 Z M 31.578125 14.667969 C 29.21875 12.234375 27.9375 11.96875 27.492188 11.96875 C 27.050781 11.96875 25.765625 12.234375 23.40625 14.667969 C 19.78125 18.410156 15.691406 19.617188 12.40625 19.867188 L 12.40625 22.769531 C 12.425781 23.210938 12.683594 27.1875 14.636719 31.789062 C 17.226562 37.882812 21.550781 42.429688 27.492188 45.308594 C 29.53125 44.320312 31.296875 43.167969 32.824219 41.921875 C 32.808594 41.679688 32.800781 41.4375 32.800781 41.191406 C 32.800781 35.164062 36.496094 29.976562 41.738281 27.78125 C 42.453125 25.082031 42.570312 23.121094 42.578125 22.753906 L 42.578125 19.867188 C 39.296875 19.617188 35.203125 18.410156 31.578125 14.667969 " fill-opacity="1" fill-rule="nonzero"/></svg>