<svg xmlns="http://www.w3.org/2000/svg" xmlns:xlink="http://www.w3.org/1999/xlink" width="40" zoomAndPan="magnify" viewBox="0 0 30 30.000001" height="40" preserveAspectRatio="xMidYMid meet" version="1.0"><defs><clipPath id="86b3d3e934"><path d="M 1.269531 0.859375 L 28.78125 0.859375 L 28.78125 28.160156 L 1.269531 28.160156 Z M 1.269531 0.859375 " clip-rule="nonzero"/></clipPath><clipPath id="e5043a7c3a"><path d="M 5.621094 0.859375 L 24.378906 0.859375 C 25.53125 0.859375 26.640625 1.320312 27.457031 2.136719 C 28.273438 2.953125 28.730469 4.0625 28.730469 5.214844 L 28.730469 23.804688 C 28.730469 26.210938 26.78125 28.160156 24.378906 28.160156 L 5.621094 28.160156 C 3.21875 28.160156 1.269531 26.210938 1.269531 23.804688 L 1.269531 5.214844 C 1.269531 2.8125 3.21875 0.859375 5.621094 0.859375 Z M 5.621094 0.859375 " clip-rule="nonzero"/></clipPath><clipPath id="c5e10ad1e6"><path d="M 1.269531 0.863281 L 28.75 0.863281 L 28.75 28.210938 L 1.269531 28.210938 Z M 1.269531 0.863281 " clip-rule="nonzero"/></clipPath><clipPath id="a04a9c44c7"><path d="M 5.621094 0.863281 L 24.371094 0.863281 C 25.523438 0.863281 26.632812 1.324219 27.449219 2.140625 C 28.265625 2.957031 28.722656 4.0625 28.722656 5.21875 L 28.722656 23.800781 C 28.722656 26.207031 26.773438 28.15625 24.371094 28.15625 L 5.621094 28.15625 C 3.21875 28.15625 1.269531 26.207031 1.269531 23.800781 L 1.269531 5.21875 C 1.269531 2.8125 3.21875 0.863281 5.621094 0.863281 Z M 5.621094 0.863281 " clip-rule="nonzero"/></clipPath><clipPath id="8e399da032"><path d="M 3.386719 5.546875 L 26.613281 5.546875 L 26.613281 23.691406 L 3.386719 23.691406 Z M 3.386719 5.546875 " clip-rule="nonzero"/></clipPath></defs><g clip-path="url(#86b3d3e934)"><g clip-path="url(#e5043a7c3a)"><path fill="#fe2424" d="M 1.269531 0.859375 L 28.78125 0.859375 L 28.78125 28.160156 L 1.269531 28.160156 Z M 1.269531 0.859375 " fill-opacity="1" fill-rule="nonzero"/></g></g><g clip-path="url(#c5e10ad1e6)"><g clip-path="url(#a04a9c44c7)"><path stroke-linecap="butt" transform="matrix(0.725806, 0, 0, 0.725806, 1.267741, 0.864142)" fill="none" stroke-linejoin="miter" d="M 5.997952 -0.00118596 L 31.831286 -0.00118596 C 33.418959 -0.00118596 34.947432 0.633883 36.072258 1.75871 C 37.197084 2.883536 37.826772 4.406627 37.826772 5.999682 L 37.826772 31.601592 C 37.826772 34.91687 35.141182 37.60246 31.831286 37.60246 L 5.997952 37.60246 C 2.688056 37.60246 0.00246602 34.91687 0.00246602 31.601592 L 0.00246602 5.999682 C 0.00246602 2.684404 2.688056 -0.00118596 5.997952 -0.00118596 Z M 5.997952 -0.00118596 " stroke="#000000" stroke-width="2" stroke-opacity="1" stroke-miterlimit="4"/></g></g><g clip-path="url(#8e399da032)"><path fill="#ffffff" d="M 18.667969 5.550781 L 15 9.867188 L 11.332031 5.550781 L 3.386719 5.550781 L 11.027344 14.515625 L 3.386719 23.480469 L 11.332031 23.480469 L 15 19.164062 L 18.667969 23.480469 L 26.613281 23.480469 L 18.972656 14.515625 L 26.613281 5.550781 Z M 18.667969 5.550781 " fill-opacity="1" fill-rule="nonzero"/></g></svg>