<svg xmlns="http://www.w3.org/2000/svg" xmlns:xlink="http://www.w3.org/1999/xlink" width="40" zoomAndPan="magnify" viewBox="0 0 30 30.000001" height="40" preserveAspectRatio="xMidYMid meet" version="1.0"><defs><clipPath id="e05b12ca5f"><path d="M 1.269531 0.859375 L 28.78125 0.859375 L 28.78125 28.160156 L 1.269531 28.160156 Z M 1.269531 0.859375 " clip-rule="nonzero"/></clipPath><clipPath id="881bb50408"><path d="M 5.621094 0.859375 L 24.378906 0.859375 C 25.53125 0.859375 26.640625 1.320312 27.457031 2.136719 C 28.273438 2.953125 28.730469 4.0625 28.730469 5.214844 L 28.730469 23.804688 C 28.730469 26.210938 26.78125 28.160156 24.378906 28.160156 L 5.621094 28.160156 C 3.21875 28.160156 1.269531 26.210938 1.269531 23.804688 L 1.269531 5.214844 C 1.269531 2.8125 3.21875 0.859375 5.621094 0.859375 Z M 5.621094 0.859375 " clip-rule="nonzero"/></clipPath><clipPath id="05c6690acf"><path d="M 1.269531 0.863281 L 28.75 0.863281 L 28.75 28.210938 L 1.269531 28.210938 Z M 1.269531 0.863281 " clip-rule="nonzero"/></clipPath><clipPath id="e3e33a44c4"><path d="M 5.621094 0.863281 L 24.371094 0.863281 C 25.523438 0.863281 26.632812 1.324219 27.449219 2.140625 C 28.265625 2.957031 28.722656 4.0625 28.722656 5.21875 L 28.722656 23.800781 C 28.722656 26.207031 26.773438 28.15625 24.371094 28.15625 L 5.621094 28.15625 C 3.21875 28.15625 1.269531 26.207031 1.269531 23.800781 L 1.269531 5.21875 C 1.269531 2.8125 3.21875 0.863281 5.621094 0.863281 Z M 5.621094 0.863281 " clip-rule="nonzero"/></clipPath><clipPath id="4f21a5c770"><path d="M 3.386719 6.238281 L 26.613281 6.238281 L 26.613281 23.65625 L 3.386719 23.65625 Z M 3.386719 6.238281 " clip-rule="nonzero"/></clipPath></defs><g clip-path="url(#e05b12ca5f)"><g clip-path="url(#881bb50408)"><path fill="#fe2424" d="M 1.269531 0.859375 L 28.78125 0.859375 L 28.78125 28.160156 L 1.269531 28.160156 Z M 1.269531 0.859375 " fill-opacity="1" fill-rule="nonzero"/></g></g><g clip-path="url(#05c6690acf)"><g clip-path="url(#e3e33a44c4)"><path stroke-linecap="butt" transform="matrix(0.725806, 0, 0, 0.725806, 1.267741, 0.864135)" fill="none" stroke-linejoin="miter" d="M 5.997952 -0.0011762 L 31.831286 -0.0011762 C 33.418959 -0.0011762 34.947432 0.633893 36.072258 1.75872 C 37.197084 2.883546 37.826772 4.406636 37.826772 5.999692 L 37.826772 31.601602 C 37.826772 34.91688 35.141182 37.60247 31.831286 37.60247 L 5.997952 37.60247 C 2.688056 37.60247 0.00246602 34.91688 0.00246602 31.601602 L 0.00246602 5.999692 C 0.00246602 2.684414 2.688056 -0.0011762 5.997952 -0.0011762 Z M 5.997952 -0.0011762 " stroke="#000000" stroke-width="2" stroke-opacity="1" stroke-miterlimit="4"/></g></g><g clip-path="url(#4f21a5c770)"><path fill="#ffffff" d="M 10.726562 11.25 C 10.726562 10.738281 11.015625 10.265625 11.460938 10.015625 C 11.910156 9.765625 12.460938 9.777344 12.898438 10.046875 L 18.601562 13.558594 C 19.023438 13.816406 19.277344 14.265625 19.277344 14.761719 C 19.277344 15.253906 19.023438 15.703125 18.605469 15.964844 L 12.632812 19.640625 C 12.4375 19.761719 12.210938 19.824219 11.984375 19.824219 C 11.777344 19.824219 11.558594 19.773438 11.371094 19.667969 C 10.980469 19.449219 10.726562 19.035156 10.726562 18.585938 Z M 7.707031 23.417969 L 22.316406 23.417969 C 24.6875 23.417969 26.609375 21.527344 26.609375 19.15625 L 26.609375 10.503906 C 26.609375 8.132812 24.6875 6.238281 22.316406 6.238281 L 7.707031 6.238281 C 5.339844 6.238281 3.390625 8.132812 3.390625 10.503906 L 3.390625 19.15625 C 3.390625 21.527344 5.339844 23.417969 7.707031 23.417969 " fill-opacity="1" fill-rule="nonzero"/></g></svg>