<svg xmlns="http://www.w3.org/2000/svg" xmlns:xlink="http://www.w3.org/1999/xlink" width="80" zoomAndPan="magnify" viewBox="0 0 60 60" height="80" preserveAspectRatio="xMidYMid meet" version="1.0"><defs><clipPath id="9f9b562bab"><path d="M 14 19 L 21 19 L 21 49.523438 L 14 49.523438 Z M 14 19 " clip-rule="nonzero"/></clipPath><clipPath id="e66a3e275d"><path d="M 23 23 L 29 23 L 29 49.523438 L 23 49.523438 Z M 23 23 " clip-rule="nonzero"/></clipPath><clipPath id="233e2d3430"><path d="M 31 23 L 38 23 L 38 49.523438 L 31 49.523438 Z M 31 23 " clip-rule="nonzero"/></clipPath><clipPath id="29e4b747ec"><path d="M 5 24 L 12 24 L 12 49.523438 L 5 49.523438 Z M 5 24 " clip-rule="nonzero"/></clipPath><clipPath id="dfb8690175"><path d="M 40 37 L 47 37 L 47 49.523438 L 40 49.523438 Z M 40 37 " clip-rule="nonzero"/></clipPath><clipPath id="0cb5cd7164"><path d="M 3.105469 9.773438 L 49 9.773438 L 49 24 L 3.105469 24 Z M 3.105469 9.773438 " clip-rule="nonzero"/></clipPath></defs><g clip-path="url(#9f9b562bab)"><path fill="#000000" d="M 20.195312 19.621094 L 14.363281 22.628906 L 14.367188 49.539062 L 20.199219 49.539062 Z M 20.195312 19.621094 " fill-opacity="1" fill-rule="evenodd"/></g><g clip-path="url(#e66a3e275d)"><path fill="#000000" d="M 23.046875 23.636719 L 23.050781 49.539062 L 28.882812 49.539062 L 28.878906 26.640625 Z M 23.046875 23.636719 " fill-opacity="1" fill-rule="evenodd"/></g><g clip-path="url(#233e2d3430)"><path fill="#000000" d="M 37.558594 23.65625 L 31.722656 26.640625 L 31.734375 49.542969 L 37.566406 49.539062 Z M 37.558594 23.65625 " fill-opacity="1" fill-rule="evenodd"/></g><g clip-path="url(#29e4b747ec)"><path fill="#000000" d="M 11.511719 24.101562 L 5.683594 27.109375 L 5.6875 49.539062 L 11.527344 49.539062 Z M 11.511719 24.101562 " fill-opacity="1" fill-rule="evenodd"/></g><g clip-path="url(#dfb8690175)"><path fill="#000000" d="M 40.410156 37.484375 L 40.410156 49.539062 L 46.25 49.539062 L 46.246094 40.691406 C 46.050781 40.660156 45.859375 40.617188 45.664062 40.5625 L 45.660156 40.5625 C 43.671875 40.03125 41.859375 38.945312 40.410156 37.484375 Z M 40.410156 37.484375 " fill-opacity="1" fill-rule="evenodd"/></g><path fill="#000000" d="M 48.644531 23.222656 C 49.203125 23.214844 49.765625 23.292969 50.308594 23.433594 C 53.613281 24.324219 55.574219 27.734375 54.6875 31.050781 C 53.800781 34.363281 50.402344 36.335938 47.09375 35.449219 C 43.792969 34.554688 41.828125 31.144531 42.714844 27.832031 C 43.144531 26.207031 44.214844 24.828125 45.679688 24.007812 C 46.585938 23.5 47.605469 23.230469 48.644531 23.222656 Z M 49.046875 19.984375 C 48.8125 19.976562 48.578125 19.976562 48.339844 19.988281 C 46.855469 20.042969 45.40625 20.445312 44.109375 21.175781 C 41.882812 22.417969 40.253906 24.519531 39.59375 26.988281 C 38.246094 32.039062 41.230469 37.226562 46.265625 38.582031 C 47.980469 39.035156 49.792969 38.992188 51.492188 38.464844 L 51.679688 38.839844 C 52.179688 39.933594 53.484375 40.222656 54.542969 39.605469 C 55.601562 38.992188 56.011719 37.714844 55.316406 36.734375 L 55.09375 36.394531 C 56.40625 35.179688 57.347656 33.617188 57.8125 31.890625 C 59.160156 26.84375 56.175781 21.652344 51.144531 20.300781 C 50.457031 20.117188 49.757812 20.007812 49.046875 19.984375 Z M 49.046875 19.984375 " fill-opacity="1" fill-rule="nonzero"/><path fill="#000000" d="M 56.066406 39.535156 C 55.769531 39.847656 55.410156 40.136719 54.988281 40.382812 C 54.566406 40.625 54.140625 40.796875 53.714844 40.894531 L 55.898438 45.703125 C 56.492188 46.914062 57.652344 46.894531 58.472656 46.417969 C 59.292969 45.945312 59.894531 44.941406 59.148438 43.828125 Z M 56.066406 39.535156 " fill-opacity="1" fill-rule="nonzero"/><g clip-path="url(#0cb5cd7164)"><path fill="#000000" d="M 30.300781 18.382812 C 31.304688 18.382812 32.101562 19.175781 32.101562 20.183594 C 32.101562 21.191406 31.304688 21.984375 30.300781 21.984375 C 29.292969 21.984375 28.5 21.191406 28.5 20.183594 C 28.5 19.175781 29.292969 18.382812 30.300781 18.382812 Z M 7.085938 18.382812 C 8.089844 18.382812 8.886719 19.175781 8.886719 20.183594 C 8.886719 21.191406 8.089844 21.984375 7.085938 21.984375 C 6.078125 21.984375 5.285156 21.191406 5.285156 20.183594 C 5.285156 19.175781 6.082031 18.382812 7.085938 18.382812 Z M 44.84375 11.78125 C 45.847656 11.78125 46.640625 12.578125 46.640625 13.585938 C 46.640625 14.589844 45.847656 15.390625 44.84375 15.390625 C 43.839844 15.390625 43.042969 14.59375 43.042969 13.585938 C 43.042969 12.578125 43.839844 11.78125 44.84375 11.78125 Z M 19.671875 11.78125 C 20.679688 11.78125 21.46875 12.578125 21.46875 13.585938 C 21.46875 14.589844 20.679688 15.390625 19.671875 15.390625 C 18.667969 15.390625 17.875 14.59375 17.875 13.585938 C 17.875 12.578125 18.667969 11.78125 19.671875 11.78125 Z M 19.671875 9.8125 C 17.605469 9.8125 15.898438 11.507812 15.898438 13.585938 C 15.898438 13.710938 15.925781 13.835938 15.9375 13.957031 L 9.476562 17.296875 C 8.824219 16.753906 7.996094 16.40625 7.085938 16.40625 C 5.019531 16.40625 3.316406 18.109375 3.316406 20.183594 C 3.316406 22.257812 5.019531 23.964844 7.085938 23.964844 C 9.152344 23.964844 10.847656 22.257812 10.847656 20.183594 C 10.847656 19.742188 10.757812 19.324219 10.617188 18.925781 L 16.648438 15.8125 C 17.34375 16.746094 18.4375 17.367188 19.671875 17.367188 C 20.914062 17.367188 22.011719 16.742188 22.699219 15.804688 L 27.003906 18.40625 C 26.714844 18.9375 26.535156 19.539062 26.535156 20.183594 C 26.535156 22.257812 28.234375 23.964844 30.300781 23.964844 C 32.367188 23.964844 34.066406 22.257812 34.066406 20.183594 C 34.066406 20.117188 34.050781 20.054688 34.050781 19.988281 L 41.914062 15.925781 C 42.605469 16.792969 43.65625 17.367188 44.84375 17.367188 C 46.910156 17.367188 48.613281 15.660156 48.613281 13.585938 C 48.613281 11.507812 46.910156 9.8125 44.84375 9.8125 C 42.777344 9.8125 41.078125 11.507812 41.078125 13.585938 C 41.078125 13.765625 41.113281 13.9375 41.136719 14.113281 L 33.429688 18.09375 C 32.75 17.078125 31.597656 16.40625 30.300781 16.40625 C 29.605469 16.40625 28.957031 16.613281 28.394531 16.949219 L 23.402344 13.917969 C 23.410156 13.804688 23.433594 13.699219 23.433594 13.585938 C 23.433594 11.507812 21.742188 9.8125 19.671875 9.8125 Z M 19.671875 9.8125 " fill-opacity="1" fill-rule="evenodd"/></g></svg>