<svg xmlns="http://www.w3.org/2000/svg" xmlns:xlink="http://www.w3.org/1999/xlink" width="80" zoomAndPan="magnify" viewBox="0 0 60 60" height="80" preserveAspectRatio="xMidYMid meet" version="1.0"><defs><clipPath id="e37f6f0230"><path d="M 4.433594 8.265625 L 55.433594 8.265625 L 55.433594 51.765625 L 4.433594 51.765625 Z M 4.433594 8.265625 " clip-rule="nonzero"/></clipPath></defs><g clip-path="url(#e37f6f0230)"><path fill="#000000" d="M 27.046875 19.589844 C 27.046875 20.058594 26.664062 20.441406 26.199219 20.441406 L 25.996094 20.441406 C 25.527344 20.441406 25.148438 20.058594 25.148438 19.589844 C 25.148438 19.121094 25.527344 18.738281 25.996094 18.738281 L 26.199219 18.738281 C 26.664062 18.738281 27.046875 19.121094 27.046875 19.589844 Z M 31.984375 18.738281 L 31.78125 18.738281 C 31.316406 18.738281 30.933594 19.121094 30.933594 19.589844 C 30.933594 20.058594 31.316406 20.441406 31.78125 20.441406 L 31.984375 20.441406 C 32.453125 20.441406 32.835938 20.058594 32.835938 19.589844 C 32.835938 19.121094 32.453125 18.738281 31.984375 18.738281 Z M 37.566406 20.441406 L 37.773438 20.441406 C 38.238281 20.441406 38.621094 20.058594 38.621094 19.589844 C 38.621094 19.121094 38.238281 18.738281 37.773438 18.738281 L 37.566406 18.738281 C 37.101562 18.738281 36.71875 19.121094 36.71875 19.589844 C 36.71875 20.058594 37.101562 20.441406 37.566406 20.441406 Z M 43.355469 20.441406 L 43.558594 20.441406 C 44.023438 20.441406 44.40625 20.058594 44.40625 19.589844 C 44.40625 19.121094 44.023438 18.738281 43.558594 18.738281 L 43.355469 18.738281 C 42.886719 18.738281 42.507812 19.121094 42.507812 19.589844 C 42.507812 20.058594 42.886719 20.441406 43.355469 20.441406 Z M 49.140625 20.441406 L 49.34375 20.441406 C 49.8125 20.441406 50.191406 20.058594 50.191406 19.589844 C 50.191406 19.121094 49.8125 18.738281 49.34375 18.738281 L 49.140625 18.738281 C 48.675781 18.738281 48.292969 19.121094 48.292969 19.589844 C 48.292969 20.058594 48.675781 20.441406 49.140625 20.441406 Z M 4.480469 42.949219 L 4.480469 34.4375 C 4.480469 33.015625 5.632812 31.863281 7.042969 31.863281 L 32.589844 31.863281 C 32.503906 31.644531 32.46875 31.40625 32.503906 31.160156 L 33.070312 27.589844 C 33.113281 27.335938 33.046875 27.089844 32.875 26.894531 C 32.707031 26.699219 32.476562 26.585938 32.214844 26.585938 L 22.484375 26.585938 C 21.066406 26.585938 19.921875 25.429688 19.921875 24.015625 L 19.921875 15.511719 C 19.921875 14.089844 21.074219 12.941406 22.484375 12.941406 L 52.824219 12.941406 C 54.238281 12.941406 55.386719 14.097656 55.386719 15.511719 L 55.386719 24.023438 C 55.386719 25.445312 54.230469 26.59375 52.824219 26.59375 L 41.769531 26.59375 C 41.554688 26.59375 41.351562 26.671875 41.199219 26.808594 L 35.445312 31.863281 L 37.390625 31.863281 C 38.808594 31.863281 39.953125 33.023438 39.953125 34.4375 L 39.953125 42.949219 C 39.953125 44.371094 38.796875 45.519531 37.390625 45.519531 L 27.660156 45.519531 C 27.402344 45.519531 27.167969 45.628906 26.996094 45.824219 C 26.828125 46.019531 26.757812 46.269531 26.800781 46.523438 L 27.371094 50.082031 C 27.464844 50.667969 27.191406 51.238281 26.664062 51.527344 C 26.453125 51.648438 26.214844 51.707031 25.988281 51.707031 C 25.65625 51.707031 25.332031 51.589844 25.070312 51.359375 L 18.671875 45.730469 C 18.511719 45.597656 18.308594 45.519531 18.105469 45.519531 L 7.042969 45.519531 C 5.625 45.519531 4.480469 44.363281 4.480469 42.949219 Z M 34.167969 25.796875 C 34.65625 26.367188 34.863281 27.125 34.742188 27.871094 L 34.308594 30.605469 L 40.070312 25.53125 C 40.539062 25.121094 41.140625 24.894531 41.757812 24.894531 L 52.816406 24.894531 C 53.289062 24.894531 53.679688 24.5 53.679688 24.023438 L 53.679688 15.511719 C 53.679688 15.035156 53.289062 14.644531 52.816406 14.644531 L 22.484375 14.644531 C 22.007812 14.644531 21.617188 15.035156 21.617188 15.511719 L 21.617188 24.023438 C 21.617188 24.5 22.007812 24.894531 22.484375 24.894531 L 32.214844 24.894531 C 32.96875 24.894531 33.675781 25.226562 34.167969 25.796875 Z M 6.175781 42.949219 C 6.175781 43.425781 6.566406 43.816406 7.042969 43.816406 L 18.097656 43.816406 C 18.714844 43.816406 19.320312 44.046875 19.785156 44.457031 L 25.546875 49.527344 L 25.113281 46.796875 C 24.996094 46.054688 25.207031 45.296875 25.691406 44.71875 C 26.183594 44.148438 26.886719 43.816406 27.640625 43.816406 L 37.375 43.816406 C 37.847656 43.816406 38.238281 43.425781 38.238281 42.949219 L 38.238281 34.4375 C 38.238281 33.957031 37.847656 33.566406 37.375 33.566406 L 7.042969 33.566406 C 6.566406 33.566406 6.175781 33.957031 6.175781 34.4375 Z M 33.664062 39.371094 L 33.871094 39.371094 C 34.335938 39.371094 34.71875 38.988281 34.71875 38.523438 C 34.71875 38.054688 34.335938 37.671875 33.871094 37.671875 L 33.664062 37.671875 C 33.199219 37.671875 32.816406 38.054688 32.816406 38.523438 C 32.816406 38.988281 33.199219 39.371094 33.664062 39.371094 Z M 27.878906 39.371094 L 28.082031 39.371094 C 28.550781 39.371094 28.929688 38.988281 28.929688 38.523438 C 28.929688 38.054688 28.550781 37.671875 28.082031 37.671875 L 27.878906 37.671875 C 27.414062 37.671875 27.03125 38.054688 27.03125 38.523438 C 27.03125 38.988281 27.414062 39.371094 27.878906 39.371094 Z M 22.09375 39.371094 L 22.296875 39.371094 C 22.761719 39.371094 23.144531 38.988281 23.144531 38.523438 C 23.144531 38.054688 22.761719 37.671875 22.296875 37.671875 L 22.09375 37.671875 C 21.625 37.671875 21.246094 38.054688 21.246094 38.523438 C 21.246094 38.988281 21.625 39.371094 22.09375 39.371094 Z M 16.304688 39.371094 L 16.511719 39.371094 C 16.976562 39.371094 17.359375 38.988281 17.359375 38.523438 C 17.359375 38.054688 16.976562 37.671875 16.511719 37.671875 L 16.304688 37.671875 C 15.839844 37.671875 15.457031 38.054688 15.457031 38.523438 C 15.457031 38.988281 15.839844 39.371094 16.304688 39.371094 Z M 10.519531 39.371094 L 10.722656 39.371094 C 11.191406 39.371094 11.570312 38.988281 11.570312 38.523438 C 11.570312 38.054688 11.191406 37.671875 10.722656 37.671875 L 10.519531 37.671875 C 10.054688 37.671875 9.671875 38.054688 9.671875 38.523438 C 9.671875 38.988281 10.054688 39.371094 10.519531 39.371094 Z M 55.394531 44.632812 C 55.394531 48.523438 52.238281 51.683594 48.367188 51.683594 C 44.5 51.683594 41.34375 48.515625 41.34375 44.632812 C 41.34375 40.753906 44.5 37.585938 48.367188 37.585938 C 52.238281 37.585938 55.394531 40.753906 55.394531 44.632812 Z M 50.863281 42.011719 C 50.53125 41.679688 49.996094 41.679688 49.667969 42.011719 L 48.367188 43.3125 L 47.070312 42.011719 C 46.738281 41.679688 46.207031 41.679688 45.875 42.011719 C 45.542969 42.34375 45.542969 42.878906 45.875 43.210938 L 47.171875 44.515625 L 45.875 45.816406 C 45.542969 46.148438 45.542969 46.683594 45.875 47.015625 C 46.042969 47.1875 46.257812 47.265625 46.476562 47.265625 C 46.699219 47.265625 46.910156 47.179688 47.078125 47.015625 L 48.378906 45.714844 L 49.675781 47.015625 C 49.84375 47.1875 50.058594 47.265625 50.277344 47.265625 C 50.5 47.265625 50.710938 47.179688 50.878906 47.015625 C 51.210938 46.683594 51.210938 46.148438 50.878906 45.816406 L 49.582031 44.515625 L 50.878906 43.210938 C 51.210938 42.878906 51.210938 42.34375 50.878906 42.011719 Z M 4.769531 15.289062 C 4.769531 11.398438 7.925781 8.242188 11.792969 8.242188 C 15.660156 8.242188 18.816406 11.410156 18.816406 15.289062 C 18.816406 19.171875 15.660156 22.339844 11.792969 22.339844 C 7.925781 22.339844 4.769531 19.171875 4.769531 15.289062 Z M 10.519531 17.664062 C 10.671875 17.785156 10.851562 17.84375 11.039062 17.84375 C 11.25 17.84375 11.460938 17.757812 11.632812 17.605469 L 14.90625 14.414062 C 15.246094 14.082031 15.246094 13.546875 14.921875 13.214844 C 14.59375 12.871094 14.058594 12.871094 13.726562 13.195312 L 10.976562 15.878906 L 9.289062 14.582031 C 8.917969 14.292969 8.382812 14.371094 8.101562 14.746094 C 7.820312 15.121094 7.890625 15.65625 8.261719 15.9375 L 10.535156 17.675781 Z M 10.519531 17.664062 " fill-opacity="1" fill-rule="nonzero"/></g></svg>