<svg xmlns="http://www.w3.org/2000/svg" xmlns:xlink="http://www.w3.org/1999/xlink" width="80" zoomAndPan="magnify" viewBox="0 0 60 60" height="80" preserveAspectRatio="xMidYMid meet" version="1.0"><defs><clipPath id="c3d6a2ce08"><path d="M 20 3.261719 L 40 3.261719 L 40 16 L 20 16 Z M 20 3.261719 " clip-rule="nonzero"/></clipPath><clipPath id="a22dfd6dc7"><path d="M 3.261719 20 L 16 20 L 16 40 L 3.261719 40 Z M 3.261719 20 " clip-rule="nonzero"/></clipPath></defs><path fill="#000000" d="M 32.6875 33.933594 L 32.6875 37.769531 L 41.089844 37.769531 L 41.089844 33.933594 L 38.808594 33.933594 L 38.808594 24.078125 L 41.089844 24.078125 L 41.089844 20.242188 L 32.6875 20.242188 L 32.6875 24.078125 L 35.074219 24.078125 L 35.074219 33.933594 Z M 32.6875 33.933594 " fill-opacity="1" fill-rule="nonzero"/><path fill="#000000" d="M 30.09375 37.769531 L 30.09375 26.707031 C 30.09375 23.164062 27.253906 20.285156 23.714844 20.285156 C 20.175781 20.285156 17.335938 23.164062 17.335938 26.707031 L 17.335938 37.769531 L 21.070312 37.769531 L 21.070312 32.792969 L 26.464844 32.792969 L 26.464844 37.769531 Z M 21.070312 29.160156 L 21.070312 26.707031 C 21.070312 25.210938 22.273438 23.996094 23.769531 23.996094 C 25.261719 23.996094 26.464844 25.210938 26.464844 26.707031 L 26.464844 29.160156 Z M 21.070312 29.160156 " fill-opacity="1" fill-rule="nonzero"/><path fill="#000000" d="M 49.117188 45.875 C 50.871094 41.34375 50.003906 37.214844 46.703125 33.699219 C 46.089844 36.40625 44.84375 38.875 43.121094 40.933594 C 42.382812 43.769531 41.644531 46.605469 40.90625 49.4375 C 40.597656 50.621094 40.289062 51.808594 39.972656 53.027344 C 40.089844 53.039062 40.125 53.046875 40.15625 53.042969 C 40.21875 53.035156 40.285156 53.027344 40.351562 53.015625 C 44.546875 52.199219 47.582031 49.84375 49.117188 45.875 Z M 49.117188 45.875 " fill-opacity="1" fill-rule="nonzero"/><path fill="#000000" d="M 44.46875 20.691406 C 45.894531 22.941406 46.808594 25.546875 47.058594 28.34375 C 48.539062 30.867188 50.019531 33.394531 51.503906 35.921875 C 52.125 36.976562 52.742188 38.03125 53.382812 39.117188 C 53.472656 39.042969 53.5 39.023438 53.519531 39 C 53.5625 38.949219 53.605469 38.898438 53.640625 38.84375 C 56.03125 35.296875 56.511719 31.484375 54.789062 27.59375 C 52.824219 23.152344 49.292969 20.839844 44.46875 20.691406 Z M 44.46875 20.691406 " fill-opacity="1" fill-rule="nonzero"/><path fill="#000000" d="M 53.027344 19.800781 C 53.039062 19.683594 53.046875 19.652344 53.042969 19.621094 C 53.035156 19.554688 53.027344 19.488281 53.015625 19.425781 C 52.199219 15.226562 49.84375 12.191406 45.875 10.65625 C 41.34375 8.90625 37.210938 9.769531 33.699219 13.070312 C 36.40625 13.683594 38.875 14.933594 40.933594 16.652344 C 43.769531 17.390625 46.605469 18.128906 49.4375 18.867188 C 50.621094 19.175781 51.808594 19.484375 53.027344 19.800781 Z M 53.027344 19.800781 " fill-opacity="1" fill-rule="nonzero"/><g clip-path="url(#c3d6a2ce08)"><path fill="#000000" d="M 39 6.253906 C 38.949219 6.210938 38.898438 6.171875 38.84375 6.132812 C 35.296875 3.742188 31.484375 3.265625 27.59375 4.984375 C 23.152344 6.949219 20.839844 10.484375 20.691406 15.304688 C 22.941406 13.882812 25.546875 12.964844 28.34375 12.71875 C 30.867188 11.234375 33.394531 9.753906 35.921875 8.269531 C 36.976562 7.652344 38.03125 7.03125 39.117188 6.394531 C 39.042969 6.304688 39.023438 6.273438 39 6.253906 Z M 39 6.253906 " fill-opacity="1" fill-rule="nonzero"/></g><path fill="#000000" d="M 16.652344 18.839844 C 17.390625 16.007812 18.128906 13.171875 18.867188 10.335938 C 19.175781 9.152344 19.484375 7.96875 19.800781 6.75 C 19.683594 6.738281 19.652344 6.730469 19.621094 6.734375 C 19.554688 6.738281 19.488281 6.746094 19.425781 6.757812 C 15.226562 7.574219 12.191406 9.933594 10.65625 13.898438 C 8.90625 18.429688 9.769531 22.5625 13.070312 26.078125 C 13.683594 23.367188 14.933594 20.898438 16.652344 18.839844 Z M 16.652344 18.839844 " fill-opacity="1" fill-rule="nonzero"/><g clip-path="url(#a22dfd6dc7)"><path fill="#000000" d="M 15.304688 39.082031 C 13.882812 36.832031 12.964844 34.226562 12.71875 31.433594 C 11.234375 28.90625 9.753906 26.378906 8.269531 23.855469 C 7.652344 22.800781 7.03125 21.742188 6.394531 20.65625 C 6.304688 20.734375 6.273438 20.75 6.253906 20.773438 C 6.210938 20.824219 6.171875 20.875 6.132812 20.929688 C 3.742188 24.476562 3.265625 28.289062 4.984375 32.179688 C 6.949219 36.621094 10.484375 38.933594 15.304688 39.082031 Z M 15.304688 39.082031 " fill-opacity="1" fill-rule="nonzero"/></g><path fill="#000000" d="M 13.898438 49.117188 C 18.429688 50.871094 22.5625 50.007812 26.078125 46.703125 C 23.367188 46.09375 20.902344 44.84375 18.839844 43.121094 C 16.007812 42.382812 13.171875 41.644531 10.335938 40.90625 C 9.152344 40.597656 7.96875 40.292969 6.75 39.976562 C 6.738281 40.09375 6.730469 40.125 6.734375 40.15625 C 6.738281 40.222656 6.746094 40.285156 6.757812 40.351562 C 7.574219 44.546875 9.933594 47.585938 13.898438 49.117188 Z M 13.898438 49.117188 " fill-opacity="1" fill-rule="nonzero"/><path fill="#000000" d="M 20.65625 53.382812 C 20.734375 53.472656 20.75 53.5 20.773438 53.519531 C 20.824219 53.5625 20.875 53.605469 20.929688 53.640625 C 24.476562 56.03125 28.289062 56.511719 32.179688 54.789062 C 36.621094 52.824219 38.933594 49.292969 39.082031 44.46875 C 36.832031 45.894531 34.226562 46.808594 31.433594 47.054688 C 28.90625 48.539062 26.378906 50.019531 23.855469 51.503906 C 22.800781 52.125 21.742188 52.742188 20.65625 53.382812 Z M 20.65625 53.382812 " fill-opacity="1" fill-rule="nonzero"/></svg>