<svg xmlns="http://www.w3.org/2000/svg" xmlns:xlink="http://www.w3.org/1999/xlink" width="50" zoomAndPan="magnify" viewBox="0 0 37.5 37.499999" height="50" preserveAspectRatio="xMidYMid meet" version="1.0"><defs><clipPath id="c950173e89"><path d="M 2.0625 5 L 22 5 L 22 33.152344 L 2.0625 33.152344 Z M 2.0625 5 " clip-rule="nonzero"/></clipPath><clipPath id="73d23036a4"><path d="M 24 15 L 34.628906 15 L 34.628906 19 L 24 19 Z M 24 15 " clip-rule="nonzero"/></clipPath><clipPath id="83c0af0b8e"><path d="M 20 31 L 22 31 L 22 33.152344 L 20 33.152344 Z M 20 31 " clip-rule="nonzero"/></clipPath></defs><g clip-path="url(#c950173e89)"><path fill="#fe2424" d="M 8.652344 29.132812 C 8.140625 29.03125 7.601562 29.03125 7.117188 29.007812 C 6.296875 28.980469 5.53125 28.980469 4.890625 28.546875 C 4.632812 28.367188 4.480469 28.035156 4.558594 27.726562 L 4.660156 27.214844 C 4.738281 26.753906 4.761719 26.011719 4.582031 25.476562 L 4.429688 25.117188 C 4.429688 25.117188 4.941406 24.628906 4.941406 24.628906 C 5.25 24.324219 5.171875 23.710938 4.761719 23.554688 L 4.171875 23.324219 L 4.507812 22.277344 C 4.609375 21.945312 4.507812 21.558594 4.226562 21.355469 C 4.121094 21.277344 3.96875 21.226562 3.839844 21.175781 C 3.507812 21.101562 3.277344 20.996094 3.203125 20.84375 C 3.125 20.664062 3.203125 20.433594 3.226562 20.382812 L 5.476562 17.003906 C 5.65625 16.722656 5.707031 16.390625 5.582031 16.085938 C 4.558594 13.089844 7.347656 9.175781 9.800781 7.691406 C 12.875 5.824219 17.914062 5.414062 20.726562 8 C 20.933594 8.203125 21.265625 8.179688 21.445312 7.972656 C 21.648438 7.769531 21.625 7.4375 21.417969 7.257812 C 18.222656 4.289062 12.746094 4.699219 9.265625 6.820312 C 6.578125 8.460938 3.378906 12.808594 4.609375 16.417969 C 4.609375 16.441406 4.609375 16.441406 4.609375 16.441406 L 2.332031 19.847656 C 2.179688 20.078125 2.125 20.382812 2.125 20.664062 C 2.125 20.871094 2.179688 21.074219 2.253906 21.277344 C 2.460938 21.6875 2.84375 21.996094 3.429688 22.148438 L 3.046875 23.324219 C 3.046875 23.351562 3.023438 23.375 3.023438 23.429688 C 2.996094 23.734375 3.175781 23.941406 3.277344 24.042969 C 3.40625 24.171875 3.609375 24.222656 3.765625 24.296875 C 3.660156 24.402344 3.507812 24.503906 3.429688 24.65625 C 3.304688 24.835938 3.277344 25.066406 3.355469 25.269531 L 3.558594 25.832031 C 3.660156 26.140625 3.660156 26.703125 3.609375 27.035156 L 3.507812 27.546875 C 3.378906 28.289062 3.6875 29.03125 4.300781 29.414062 C 5.195312 30.003906 6.144531 30.03125 7.066406 30.03125 C 7.550781 30.03125 7.984375 30.054688 8.421875 30.132812 C 9.957031 30.4375 10.980469 31.4375 11.132812 32.820312 C 11.160156 33.101562 11.414062 33.304688 11.695312 33.277344 C 11.976562 33.253906 12.183594 32.996094 12.15625 32.714844 C 11.953125 30.898438 10.621094 29.542969 8.652344 29.132812 Z M 8.652344 29.132812 " fill-opacity="1" fill-rule="nonzero"/></g><path fill="#fe2424" d="M 28.992188 15.367188 C 29.835938 15.367188 30.527344 14.675781 30.527344 13.832031 C 30.527344 12.988281 29.835938 12.296875 28.992188 12.296875 C 28.328125 12.296875 27.738281 12.734375 27.535156 13.320312 L 23.851562 13.320312 C 24.003906 13.652344 24.132812 13.988281 24.257812 14.34375 L 27.558594 14.34375 C 27.765625 14.933594 28.328125 15.367188 28.992188 15.367188 Z M 28.992188 13.320312 C 29.273438 13.320312 29.503906 13.550781 29.503906 13.832031 C 29.503906 14.113281 29.273438 14.34375 28.992188 14.34375 C 28.710938 14.34375 28.480469 14.113281 28.480469 13.832031 C 28.480469 13.550781 28.710938 13.320312 28.992188 13.320312 Z M 28.992188 13.320312 " fill-opacity="1" fill-rule="nonzero"/><path fill="#fe2424" d="M 29.941406 24.066406 C 29.632812 24.066406 29.351562 24.144531 29.09375 24.273438 L 26.253906 21.917969 C 25.972656 21.664062 25.617188 21.507812 25.257812 21.507812 L 23.285156 21.507812 C 23.058594 21.867188 22.800781 22.199219 22.492188 22.53125 C 22.492188 22.53125 25.230469 22.53125 25.230469 22.53125 C 25.359375 22.53125 25.488281 22.609375 25.5625 22.6875 L 28.351562 24.988281 C 28.226562 25.246094 28.148438 25.527344 28.148438 25.832031 C 28.148438 26.832031 28.941406 27.625 29.941406 27.625 C 30.9375 27.625 31.730469 26.832031 31.730469 25.832031 C 31.730469 24.835938 30.9375 24.066406 29.941406 24.066406 Z M 29.941406 26.625 C 29.503906 26.625 29.171875 26.292969 29.171875 25.859375 C 29.171875 25.425781 29.503906 25.089844 29.941406 25.089844 C 30.375 25.089844 30.707031 25.425781 30.707031 25.859375 C 30.707031 26.292969 30.375 26.625 29.941406 26.625 Z M 29.941406 26.625 " fill-opacity="1" fill-rule="nonzero"/><g clip-path="url(#73d23036a4)"><path fill="#fe2424" d="M 33.085938 15.113281 C 32.269531 15.113281 31.601562 15.648438 31.371094 16.390625 L 24.617188 16.390625 C 24.617188 16.570312 24.644531 16.722656 24.644531 16.902344 C 24.644531 17.082031 24.644531 17.234375 24.617188 17.414062 L 31.371094 17.414062 C 31.601562 18.15625 32.269531 18.695312 33.085938 18.695312 C 34.085938 18.695312 34.878906 17.902344 34.878906 16.902344 C 34.878906 15.90625 34.085938 15.113281 33.085938 15.113281 Z M 33.085938 17.671875 C 32.652344 17.671875 32.320312 17.339844 32.320312 16.902344 C 32.320312 16.46875 32.652344 16.136719 33.085938 16.136719 C 33.523438 16.136719 33.855469 16.46875 33.855469 16.902344 C 33.855469 17.339844 33.523438 17.671875 33.085938 17.671875 Z M 33.085938 17.671875 " fill-opacity="1" fill-rule="nonzero"/></g><path fill="#fe2424" d="M 16.25 21.558594 C 16.863281 21.558594 17.402344 21.175781 17.605469 20.613281 C 17.785156 20.691406 17.992188 20.742188 18.195312 20.742188 C 18.578125 20.742188 18.9375 20.589844 19.21875 20.304688 L 19.5 20.023438 C 19.78125 19.742188 19.933594 19.386719 19.933594 19 C 19.933594 18.796875 19.882812 18.59375 19.808594 18.414062 C 20.34375 18.207031 20.726562 17.695312 20.726562 17.058594 L 20.726562 16.648438 C 20.726562 16.035156 20.34375 15.496094 19.78125 15.292969 C 19.882812 15.085938 19.933594 14.855469 19.910156 14.625 C 19.882812 14.269531 19.730469 13.933594 19.472656 13.679688 L 19.191406 13.398438 C 18.910156 13.117188 18.554688 12.964844 18.167969 12.964844 C 17.964844 12.964844 17.761719 13.015625 17.582031 13.089844 C 17.375 12.554688 16.863281 12.144531 16.226562 12.144531 L 15.816406 12.144531 C 15.203125 12.144531 14.664062 12.527344 14.460938 13.089844 C 14.28125 13.015625 14.074219 12.964844 13.871094 12.964844 C 13.488281 12.964844 13.128906 13.117188 12.847656 13.398438 L 12.566406 13.679688 C 12.132812 14.113281 12.027344 14.78125 12.257812 15.292969 C 11.746094 15.496094 11.335938 16.035156 11.335938 16.648438 L 11.335938 17.058594 C 11.335938 17.671875 11.722656 18.207031 12.285156 18.414062 C 12.027344 18.925781 12.132812 19.589844 12.589844 20.023438 L 12.875 20.304688 C 13.15625 20.589844 13.511719 20.742188 13.898438 20.742188 C 14.101562 20.742188 14.304688 20.691406 14.484375 20.613281 C 14.691406 21.152344 15.203125 21.558594 15.839844 21.558594 Z M 15.433594 20.179688 L 15.433594 19.820312 C 15.433594 19.742188 15.378906 19.667969 15.277344 19.640625 C 15.148438 19.589844 14.996094 19.566406 14.867188 19.488281 C 14.742188 19.4375 14.535156 19.257812 14.382812 19.386719 L 14.125 19.640625 C 14.050781 19.71875 13.972656 19.742188 13.898438 19.742188 C 13.792969 19.742188 13.691406 19.691406 13.589844 19.617188 L 13.308594 19.335938 C 13.15625 19.179688 13.128906 18.925781 13.28125 18.796875 L 13.539062 18.539062 C 13.589844 18.488281 13.613281 18.386719 13.5625 18.3125 C 13.460938 18.105469 13.359375 17.902344 13.28125 17.671875 C 13.257812 17.59375 13.179688 17.515625 13.101562 17.515625 L 12.746094 17.515625 C 12.539062 17.515625 12.386719 17.339844 12.386719 17.109375 L 12.386719 16.648438 C 12.386719 16.417969 12.539062 16.238281 12.746094 16.238281 L 13.101562 16.238281 C 13.179688 16.238281 13.257812 16.1875 13.28125 16.085938 C 13.332031 15.855469 13.4375 15.648438 13.5625 15.445312 C 13.613281 15.367188 13.589844 15.265625 13.539062 15.214844 L 13.28125 14.957031 C 13.128906 14.804688 13.15625 14.574219 13.308594 14.421875 L 13.589844 14.140625 C 13.667969 14.0625 13.792969 14.011719 13.898438 14.011719 C 14 14.011719 14.074219 14.039062 14.125 14.113281 C 14.125 14.113281 14.382812 14.371094 14.382812 14.371094 C 14.433594 14.421875 14.535156 14.445312 14.613281 14.394531 C 14.816406 14.292969 15.023438 14.191406 15.253906 14.113281 C 15.328125 14.089844 15.40625 14.011719 15.40625 13.933594 L 15.40625 13.578125 C 15.40625 13.371094 15.585938 13.21875 15.816406 13.21875 L 16.226562 13.21875 C 16.457031 13.21875 16.632812 13.371094 16.632812 13.578125 L 16.632812 13.933594 C 16.632812 14.011719 16.683594 14.089844 16.789062 14.113281 C 17.019531 14.164062 17.222656 14.269531 17.425781 14.394531 C 17.503906 14.445312 17.605469 14.421875 17.65625 14.371094 L 17.914062 14.113281 C 18.222656 13.808594 18.554688 14.242188 18.757812 14.445312 C 18.910156 14.601562 18.9375 14.855469 18.785156 14.984375 L 18.527344 15.242188 C 18.476562 15.292969 18.449219 15.394531 18.503906 15.46875 C 18.605469 15.675781 18.707031 15.878906 18.785156 16.109375 C 18.808594 16.1875 18.886719 16.265625 18.960938 16.265625 L 19.320312 16.265625 C 19.527344 16.265625 19.679688 16.441406 19.679688 16.671875 L 19.679688 17.082031 C 19.679688 17.3125 19.527344 17.492188 19.320312 17.492188 L 18.960938 17.492188 C 18.886719 17.492188 18.808594 17.542969 18.785156 17.644531 C 18.734375 17.875 18.628906 18.082031 18.503906 18.285156 C 18.449219 18.363281 18.476562 18.464844 18.527344 18.515625 L 18.785156 18.769531 C 18.9375 18.925781 18.910156 19.15625 18.757812 19.308594 L 18.503906 19.617188 C 18.425781 19.691406 18.296875 19.742188 18.195312 19.742188 C 18.09375 19.742188 18.015625 19.71875 17.964844 19.640625 L 17.710938 19.386719 C 17.65625 19.335938 17.554688 19.308594 17.480469 19.359375 C 17.273438 19.460938 17.070312 19.566406 16.839844 19.640625 C 16.761719 19.667969 16.683594 19.742188 16.683594 19.820312 L 16.683594 20.179688 C 16.683594 20.382812 16.507812 20.535156 16.277344 20.535156 L 15.867188 20.535156 C 15.609375 20.535156 15.433594 20.382812 15.433594 20.179688 Z M 15.433594 20.179688 " fill-opacity="1" fill-rule="nonzero"/><path fill="#fe2424" d="M 18.09375 16.851562 C 18.09375 15.726562 17.171875 14.804688 16.046875 14.804688 C 14.921875 14.804688 14 15.726562 14 16.851562 C 14 17.976562 14.921875 18.898438 16.046875 18.898438 C 17.171875 18.925781 18.09375 18.003906 18.09375 16.851562 Z M 14.996094 16.851562 C 14.996094 16.289062 15.457031 15.828125 16.019531 15.828125 C 16.582031 15.828125 17.042969 16.289062 17.042969 16.851562 C 17.042969 17.414062 16.582031 17.875 16.019531 17.875 C 15.457031 17.875 14.996094 17.441406 14.996094 16.851562 Z M 14.996094 16.851562 " fill-opacity="1" fill-rule="nonzero"/><path fill="#fe2424" d="M 21.0625 26.882812 C 20.78125 26.882812 20.550781 27.113281 20.550781 27.394531 L 20.550781 30.207031 C 20.550781 30.488281 20.78125 30.71875 21.0625 30.71875 C 21.34375 30.71875 21.574219 30.488281 21.574219 30.207031 L 21.574219 27.394531 C 21.574219 27.113281 21.34375 26.882812 21.0625 26.882812 Z M 21.0625 26.882812 " fill-opacity="1" fill-rule="nonzero"/><g clip-path="url(#83c0af0b8e)"><path fill="#fe2424" d="M 21.0625 31.742188 C 20.78125 31.742188 20.550781 31.972656 20.550781 32.253906 L 20.550781 32.765625 C 20.550781 33.046875 20.78125 33.277344 21.0625 33.277344 C 21.34375 33.277344 21.574219 33.046875 21.574219 32.765625 L 21.574219 32.253906 C 21.574219 31.972656 21.34375 31.742188 21.0625 31.742188 Z M 21.0625 31.742188 " fill-opacity="1" fill-rule="nonzero"/></g><path fill="#fe2424" d="M 9.800781 16.902344 C 9.800781 13.707031 12.183594 11.019531 15.277344 10.582031 C 15.148438 10.761719 15.148438 10.992188 15.277344 11.171875 C 15.433594 11.402344 15.765625 11.453125 15.996094 11.273438 L 17.019531 10.507812 C 17.144531 10.40625 17.222656 10.25 17.222656 10.097656 C 17.222656 9.945312 17.144531 9.789062 17.019531 9.6875 L 15.996094 8.921875 C 15.765625 8.742188 15.457031 8.792969 15.277344 9.023438 C 15.148438 9.175781 15.148438 9.382812 15.226562 9.558594 C 11.59375 10.019531 8.777344 13.140625 8.777344 16.902344 C 8.777344 20.304688 11.082031 23.171875 14.203125 24.042969 C 14.179688 23.941406 14.152344 23.8125 14.152344 23.710938 C 14.152344 23.480469 14.203125 23.222656 14.304688 23.019531 C 11.695312 22.199219 9.800781 19.769531 9.800781 16.902344 Z M 9.800781 16.902344 " fill-opacity="1" fill-rule="nonzero"/><path fill="#fe2424" d="M 23.621094 16.902344 C 23.621094 13.5 21.316406 10.632812 18.222656 9.765625 C 18.246094 9.867188 18.246094 9.996094 18.246094 10.097656 C 18.246094 10.351562 18.195312 10.582031 18.066406 10.789062 C 20.703125 11.605469 22.597656 14.039062 22.597656 16.902344 C 22.597656 20.128906 20.214844 22.789062 17.121094 23.222656 C 17.25 23.042969 17.25 22.789062 17.121094 22.609375 C 16.941406 22.378906 16.632812 22.328125 16.402344 22.507812 L 15.378906 23.273438 C 15.253906 23.375 15.175781 23.53125 15.175781 23.683594 C 15.175781 23.835938 15.253906 23.992188 15.378906 24.09375 L 16.402344 24.859375 C 16.632812 25.015625 16.941406 24.988281 17.121094 24.757812 C 17.25 24.605469 17.25 24.398438 17.171875 24.246094 C 20.804688 23.785156 23.621094 20.664062 23.621094 16.902344 Z M 23.621094 16.902344 " fill-opacity="1" fill-rule="nonzero"/><path fill="#fe2424" d="M 25.230469 12.324219 C 25.617188 12.324219 25.972656 12.167969 26.230469 11.914062 L 29.042969 9.585938 C 29.300781 9.738281 29.605469 9.816406 29.941406 9.816406 C 30.9375 9.816406 31.730469 9.023438 31.730469 8.023438 C 31.730469 7.027344 30.9375 6.234375 29.941406 6.234375 C 28.941406 6.234375 28.148438 7.027344 28.148438 8.023438 C 28.148438 8.304688 28.226562 8.585938 28.351562 8.816406 L 25.589844 11.121094 C 25.488281 11.199219 25.386719 11.273438 25.257812 11.273438 L 22.492188 11.273438 C 22.773438 11.605469 23.03125 11.941406 23.285156 12.296875 L 25.230469 12.296875 Z M 29.941406 7.28125 C 30.375 7.28125 30.707031 7.617188 30.707031 8.050781 C 30.707031 8.484375 30.375 8.816406 29.941406 8.816406 C 29.503906 8.816406 29.171875 8.484375 29.171875 8.050781 C 29.171875 7.617188 29.53125 7.28125 29.941406 7.28125 Z M 29.941406 7.28125 " fill-opacity="1" fill-rule="nonzero"/><path fill="#fe2424" d="M 27.558594 20.484375 C 27.765625 21.074219 28.328125 21.507812 28.992188 21.507812 C 29.835938 21.507812 30.527344 20.816406 30.527344 19.972656 C 30.527344 19.128906 29.835938 18.4375 28.992188 18.4375 C 28.328125 18.4375 27.765625 18.875 27.558594 19.460938 L 24.234375 19.460938 C 24.132812 19.820312 23.976562 20.152344 23.824219 20.484375 Z M 28.992188 19.460938 C 29.273438 19.460938 29.503906 19.691406 29.503906 19.972656 C 29.503906 20.253906 29.273438 20.484375 28.992188 20.484375 C 28.710938 20.484375 28.480469 20.253906 28.480469 19.972656 C 28.480469 19.691406 28.710938 19.460938 28.992188 19.460938 Z M 28.992188 19.460938 " fill-opacity="1" fill-rule="nonzero"/></svg>