<svg xmlns="http://www.w3.org/2000/svg" xmlns:xlink="http://www.w3.org/1999/xlink" width="50" zoomAndPan="magnify" viewBox="0 0 37.5 37.499999" height="50" preserveAspectRatio="xMidYMid meet" version="1.0"><defs><clipPath id="4b2759770e"><path d="M 1.679688 10 L 16 10 L 16 28 L 1.679688 28 Z M 1.679688 10 " clip-rule="nonzero"/></clipPath><clipPath id="843a1c2f63"><path d="M 13 8 L 34.242188 8 L 34.242188 29.464844 L 13 29.464844 Z M 13 8 " clip-rule="nonzero"/></clipPath></defs><path fill="#fe2424" d="M 14.40625 26.117188 C 14.378906 26.117188 14.351562 26.113281 14.320312 26.109375 C 7.453125 25.246094 5.121094 17.867188 5.023438 17.554688 C 4.964844 17.355469 4.996094 17.148438 5.109375 16.976562 C 5.234375 16.789062 8.273438 12.347656 14.363281 11.867188 C 14.738281 11.84375 15.0625 12.117188 15.089844 12.492188 C 15.121094 12.867188 14.84375 13.191406 14.46875 13.222656 C 9.863281 13.585938 7.15625 16.566406 6.433594 17.472656 C 6.945312 18.828125 9.253906 24.105469 14.488281 24.765625 C 14.859375 24.8125 15.125 25.148438 15.078125 25.523438 C 15.035156 25.863281 14.742188 26.117188 14.40625 26.117188 Z M 14.40625 26.117188 " fill-opacity="1" fill-rule="nonzero"/><g clip-path="url(#4b2759770e)"><path fill="#fe2424" d="M 14.40625 27.800781 C 14.382812 27.800781 14.363281 27.800781 14.34375 27.796875 C 5.136719 26.925781 1.863281 17.632812 1.726562 17.238281 C 1.644531 16.992188 1.707031 16.722656 1.894531 16.539062 C 2.128906 16.304688 7.730469 10.828125 14.359375 10.28125 C 14.734375 10.261719 15.0625 10.527344 15.09375 10.902344 C 15.125 11.277344 14.84375 11.605469 14.472656 11.636719 C 9.183594 12.066406 4.425781 16.066406 3.171875 17.203125 C 3.894531 18.941406 7.183594 25.753906 14.46875 26.445312 C 14.84375 26.480469 15.117188 26.8125 15.082031 27.1875 C 15.050781 27.535156 14.753906 27.800781 14.40625 27.800781 Z M 14.40625 27.800781 " fill-opacity="1" fill-rule="nonzero"/></g><path fill="#fe2424" d="M 14.40625 24.324219 C 14.367188 24.324219 14.324219 24.320312 14.285156 24.3125 C 9.003906 23.355469 7.523438 17.976562 7.464844 17.746094 C 7.40625 17.527344 7.464844 17.289062 7.613281 17.121094 C 7.71875 17.007812 10.164062 14.316406 14.238281 13.828125 C 14.257812 13.828125 14.277344 13.824219 14.292969 13.820312 C 14.679688 13.78125 15.019531 14.046875 15.0625 14.417969 C 15.09375 14.730469 14.925781 15.011719 14.65625 15.121094 C 14.601562 15.144531 14.539062 15.164062 14.476562 15.167969 C 11.574219 15.492188 9.582031 17.117188 8.890625 17.761719 C 9.289062 18.894531 10.777344 22.296875 14.527344 22.976562 C 14.894531 23.042969 15.140625 23.398438 15.074219 23.765625 C 15.015625 24.09375 14.726562 24.324219 14.40625 24.324219 Z M 14.40625 24.324219 " fill-opacity="1" fill-rule="nonzero"/><path fill="#fe2424" d="M 15.976562 23.039062 C 15.367188 23.039062 14.769531 22.941406 14.203125 22.75 C 13.847656 22.628906 13.65625 22.246094 13.773438 21.890625 C 13.894531 21.539062 14.28125 21.347656 14.632812 21.464844 C 15.0625 21.609375 15.515625 21.679688 15.976562 21.679688 C 18.960938 21.679688 21.90625 18.3125 22.847656 17.128906 C 21.933594 16.070312 19.101562 13.195312 15.246094 13.195312 C 15.164062 13.195312 15.082031 13.199219 14.996094 13.199219 C 14.796875 13.203125 14.613281 13.210938 14.464844 13.222656 C 14.09375 13.25 13.761719 12.976562 13.730469 12.601562 C 13.699219 12.230469 13.976562 11.902344 14.347656 11.871094 C 14.53125 11.855469 14.746094 11.847656 14.960938 11.84375 C 20.554688 11.679688 24.109375 16.511719 24.257812 16.71875 C 24.429688 16.953125 24.433594 17.273438 24.261719 17.507812 C 24.101562 17.734375 20.28125 23.039062 15.976562 23.039062 Z M 15.976562 23.039062 " fill-opacity="1" fill-rule="nonzero"/><path fill="#fe2424" d="M 18.113281 20.117188 C 18.078125 20.117188 18.039062 20.113281 18 20.105469 C 17.804688 20.070312 17.628906 19.953125 17.527344 19.78125 L 17.316406 19.417969 C 16.285156 17.652344 15.9375 17.058594 14.335938 16.863281 C 13.964844 16.816406 13.699219 16.480469 13.746094 16.109375 C 13.792969 15.734375 14.144531 15.46875 14.5 15.515625 C 16.625 15.777344 17.328125 16.765625 18.289062 18.398438 L 19.882812 17.042969 C 19.171875 16.34375 17.617188 15.125 15.476562 15.125 L 15.296875 15.121094 C 15.019531 15.121094 14.75 15.140625 14.480469 15.167969 C 14.109375 15.203125 13.773438 14.941406 13.730469 14.570312 C 13.691406 14.199219 13.960938 13.863281 14.332031 13.820312 C 14.648438 13.785156 14.96875 13.765625 15.296875 13.765625 L 15.492188 13.769531 C 19.144531 13.769531 21.308594 16.574219 21.398438 16.695312 C 21.617188 16.980469 21.570312 17.386719 21.296875 17.621094 L 18.554688 19.953125 C 18.429688 20.058594 18.273438 20.117188 18.113281 20.117188 Z M 18.113281 20.117188 " fill-opacity="1" fill-rule="nonzero"/><path fill="#fe2424" d="M 14.40625 22.785156 C 14.332031 22.785156 14.257812 22.773438 14.1875 22.746094 C 11.117188 21.691406 10.113281 18.203125 10.070312 18.054688 C 10.011719 17.839844 10.0625 17.613281 10.203125 17.441406 C 10.277344 17.347656 12.078125 15.207031 14.480469 15.503906 C 14.851562 15.503906 15.121094 15.804688 15.121094 16.179688 C 15.121094 16.554688 14.78125 16.855469 14.40625 16.855469 C 13.085938 16.6875 11.984375 17.585938 11.5 18.042969 C 11.8125 18.855469 12.738281 20.816406 14.628906 21.464844 C 14.984375 21.585938 15.167969 21.972656 15.050781 22.324219 C 14.949219 22.609375 14.6875 22.785156 14.40625 22.785156 Z M 14.40625 22.785156 " fill-opacity="1" fill-rule="nonzero"/><path fill="#fe2424" d="M 15.738281 27.871094 C 15.257812 27.871094 14.808594 27.847656 14.355469 27.796875 C 13.984375 27.753906 13.714844 27.417969 13.757812 27.046875 C 13.800781 26.671875 14.136719 26.402344 14.507812 26.445312 C 14.910156 26.492188 15.3125 26.515625 15.738281 26.515625 C 19.914062 26.515625 27.332031 24.453125 31.078125 21.796875 C 30.703125 21.570312 30.246094 21.316406 29.863281 21.101562 C 29.378906 20.832031 28.9375 20.585938 28.59375 20.375 C 25.242188 23.253906 21.203125 26.199219 15.640625 26.199219 C 15.214844 26.199219 14.769531 26.160156 14.339844 26.109375 C 13.964844 26.066406 13.699219 25.730469 13.742188 25.359375 C 13.789062 24.984375 14.132812 24.714844 14.496094 24.761719 C 14.875 24.808594 15.265625 24.84375 15.640625 24.84375 C 20.433594 24.84375 23.960938 22.609375 28.101562 19.007812 C 28.351562 18.792969 28.71875 18.785156 28.976562 18.996094 C 29.207031 19.183594 29.90625 19.574219 30.523438 19.917969 C 31.65625 20.550781 32.371094 20.957031 32.699219 21.292969 C 32.832031 21.425781 32.902344 21.609375 32.898438 21.796875 C 32.886719 21.988281 32.800781 22.164062 32.65625 22.285156 C 28.949219 25.433594 20.519531 27.871094 15.738281 27.871094 Z M 15.738281 27.871094 " fill-opacity="1" fill-rule="nonzero"/><path fill="#fe2424" d="M 15.890625 24.445312 C 15.375 24.445312 14.851562 24.398438 14.300781 24.300781 C 13.933594 24.238281 13.6875 23.886719 13.75 23.519531 C 13.816406 23.148438 14.167969 22.902344 14.535156 22.964844 C 15.007812 23.046875 15.453125 23.089844 15.890625 23.089844 C 20.421875 23.089844 24.921875 18.441406 26.207031 17 C 25.007812 15.632812 20.785156 11.398438 15 11.601562 L 14.449219 11.636719 C 14.070312 11.652344 13.753906 11.375 13.730469 11 C 13.703125 10.628906 13.988281 10.304688 14.363281 10.28125 L 14.933594 10.246094 C 22.515625 9.984375 27.433594 16.328125 27.636719 16.597656 C 27.828125 16.847656 27.820312 17.191406 27.621094 17.433594 C 27.390625 17.722656 21.863281 24.445312 15.890625 24.445312 Z M 15.890625 24.445312 " fill-opacity="1" fill-rule="nonzero"/><g clip-path="url(#843a1c2f63)"><path fill="#fe2424" d="M 33.574219 29.707031 L 14.582031 29.707031 C 14.207031 29.707031 13.902344 29.402344 13.902344 29.027344 L 13.902344 8.675781 C 13.902344 8.304688 14.207031 8 14.582031 8 L 33.574219 8 C 33.949219 8 34.253906 8.304688 34.253906 8.675781 L 34.253906 29.027344 C 34.253906 29.402344 33.949219 29.707031 33.574219 29.707031 Z M 15.257812 28.347656 L 32.894531 28.347656 L 32.894531 9.355469 L 15.257812 9.355469 Z M 15.257812 28.347656 " fill-opacity="1" fill-rule="nonzero"/></g></svg>