<svg xmlns="http://www.w3.org/2000/svg" xmlns:xlink="http://www.w3.org/1999/xlink" width="50" zoomAndPan="magnify" viewBox="0 0 37.5 37.499999" height="50" preserveAspectRatio="xMidYMid meet" version="1.0"><defs><clipPath id="4f5392f6c0"><path d="M 4.441406 5 L 34 5 L 34 33.675781 L 4.441406 33.675781 Z M 4.441406 5 " clip-rule="nonzero"/></clipPath></defs><g clip-path="url(#4f5392f6c0)"><path fill="#fe2424" d="M 9.1875 23.777344 C 9.738281 24.277344 10.085938 25 10.085938 25.804688 C 10.085938 27.3125 8.859375 28.539062 7.351562 28.539062 C 5.84375 28.539062 4.617188 27.3125 4.617188 25.804688 C 4.617188 24.296875 5.84375 23.070312 7.351562 23.070312 C 7.667969 23.070312 7.972656 23.125 8.253906 23.222656 L 8.886719 22.164062 C 5.335938 18.34375 5.421875 12.359375 9.140625 8.640625 C 12.945312 4.835938 19.125 4.835938 22.929688 8.640625 C 23.921875 9.632812 24.65625 10.785156 25.132812 12.015625 L 26.792969 10.171875 C 26.441406 9.714844 26.234375 9.140625 26.234375 8.519531 C 26.234375 7.011719 27.460938 5.785156 28.96875 5.785156 C 30.476562 5.785156 31.703125 7.011719 31.703125 8.519531 C 31.703125 10.027344 30.476562 11.253906 28.96875 11.253906 C 28.472656 11.253906 28.007812 11.121094 27.605469 10.890625 L 25.507812 13.214844 C 26.078125 15.5625 25.769531 18.082031 24.578125 20.246094 L 33.042969 28.710938 C 33.550781 29.21875 33.835938 29.90625 33.835938 30.625 C 33.835938 31.34375 33.550781 32.03125 33.042969 32.539062 C 32.535156 33.050781 31.84375 33.335938 31.125 33.335938 C 30.410156 33.335938 29.71875 33.050781 29.210938 32.539062 L 20.746094 24.074219 C 17.25 26.003906 12.8125 25.625 9.6875 22.9375 Z M 24.304688 12.929688 C 23.898438 11.640625 23.1875 10.425781 22.164062 9.40625 C 18.78125 6.023438 13.289062 6.023438 9.90625 9.40625 C 6.679688 12.632812 6.53125 17.785156 9.464844 21.1875 L 11.863281 17.152344 C 11.238281 16.652344 10.839844 15.882812 10.839844 15.019531 C 10.839844 13.511719 12.0625 12.285156 13.574219 12.285156 C 15.082031 12.285156 16.308594 13.511719 16.308594 15.019531 C 16.308594 15.117188 16.304688 15.214844 16.292969 15.308594 L 18.265625 16.453125 C 18.765625 15.863281 19.515625 15.484375 20.351562 15.484375 C 20.835938 15.484375 21.289062 15.613281 21.683594 15.832031 Z M 23.984375 21.183594 C 23.671875 21.621094 23.324219 22.039062 22.929688 22.429688 C 22.539062 22.824219 22.125 23.171875 21.6875 23.484375 L 23.152344 24.949219 L 25.449219 22.648438 Z M 10.25 21.988281 C 13.652344 25.042969 18.894531 24.933594 22.164062 21.664062 C 24.191406 19.636719 25.003906 16.851562 24.601562 14.21875 L 22.507812 16.539062 C 22.871094 17.003906 23.085938 17.585938 23.085938 18.222656 C 23.085938 19.730469 21.859375 20.953125 20.351562 20.953125 C 18.84375 20.953125 17.617188 19.730469 17.617188 18.222656 C 17.617188 17.9375 17.660156 17.660156 17.742188 17.402344 L 15.957031 16.363281 C 15.484375 17.195312 14.59375 17.753906 13.574219 17.753906 C 13.316406 17.753906 13.066406 17.71875 12.828125 17.652344 Z M 23.917969 25.714844 L 29.976562 31.773438 C 30.28125 32.078125 30.695312 32.25 31.125 32.25 C 31.558594 32.25 31.972656 32.078125 32.273438 31.773438 C 32.582031 31.46875 32.753906 31.058594 32.753906 30.625 C 32.753906 30.195312 32.582031 29.78125 32.273438 29.476562 L 26.214844 23.417969 Z M 5.699219 25.804688 C 5.699219 26.714844 6.441406 27.457031 7.351562 27.457031 C 8.261719 27.457031 9 26.714844 9 25.804688 C 9 24.894531 8.261719 24.152344 7.351562 24.152344 C 6.441406 24.152344 5.699219 24.894531 5.699219 25.804688 Z M 27.320312 8.519531 C 27.320312 9.429688 28.058594 10.171875 28.96875 10.171875 C 29.878906 10.171875 30.621094 9.429688 30.621094 8.519531 C 30.621094 7.609375 29.878906 6.871094 28.96875 6.871094 C 28.058594 6.871094 27.320312 7.609375 27.320312 8.519531 Z M 15.695312 9.039062 C 15.394531 9.054688 15.140625 8.824219 15.125 8.527344 C 15.109375 8.230469 15.339844 7.972656 15.636719 7.957031 C 17.710938 7.851562 19.820312 8.585938 21.402344 10.167969 C 21.613281 10.382812 21.613281 10.722656 21.402344 10.9375 C 21.191406 11.148438 20.847656 11.148438 20.636719 10.9375 C 19.28125 9.578125 17.472656 8.949219 15.695312 9.039062 Z M 11.921875 15.019531 C 11.921875 15.929688 12.664062 16.671875 13.574219 16.671875 C 14.484375 16.671875 15.226562 15.929688 15.226562 15.019531 C 15.226562 14.109375 14.484375 13.371094 13.574219 13.371094 C 12.664062 13.371094 11.921875 14.109375 11.921875 15.019531 Z M 18.703125 18.222656 C 18.703125 19.132812 19.441406 19.871094 20.351562 19.871094 C 21.261719 19.871094 22.003906 19.132812 22.003906 18.222656 C 22.003906 17.308594 21.261719 16.570312 20.351562 16.570312 C 19.441406 16.570312 18.703125 17.308594 18.703125 18.222656 Z M 18.703125 18.222656 " fill-opacity="1" fill-rule="evenodd"/></g></svg>