<svg xmlns="http://www.w3.org/2000/svg" xmlns:xlink="http://www.w3.org/1999/xlink" width="50" zoomAndPan="magnify" viewBox="0 0 37.5 37.499999" height="50" preserveAspectRatio="xMidYMid meet" version="1.0"><defs><clipPath id="59e7c5a362"><path d="M 5.449219 5 L 33.574219 5 L 33.574219 33 L 5.449219 33 Z M 5.449219 5 " clip-rule="nonzero"/></clipPath><clipPath id="5fc7ae9a04"><path d="M 13 3.589844 L 26 3.589844 L 26 16 L 13 16 Z M 13 3.589844 " clip-rule="nonzero"/></clipPath><clipPath id="5fc436c8fb"><path d="M 18 19 L 29 19 L 29 33.195312 L 18 33.195312 Z M 18 19 " clip-rule="nonzero"/></clipPath></defs><path fill="#fe2424" d="M 16.984375 22.625 L 12.328125 23.875 C 12.117188 23.933594 11.945312 24.179688 11.945312 24.421875 L 11.945312 27.328125 C 11.945312 27.570312 12.117188 27.726562 12.328125 27.667969 L 16.976562 26.421875 L 16.976562 25.347656 L 13.121094 26.382812 L 13.121094 24.734375 L 16.980469 23.699219 Z M 26.605469 20.082031 C 26.558594 20.074219 26.507812 20.074219 26.453125 20.089844 L 23.480469 20.886719 L 24.730469 21.625 L 25.667969 21.371094 L 25.667969 22.179688 L 26.839844 22.875 L 26.839844 20.433594 C 26.839844 20.25 26.746094 20.117188 26.605469 20.082031 Z M 26.605469 20.082031 " fill-opacity="1" fill-rule="evenodd"/><g clip-path="url(#59e7c5a362)"><path fill="#fe2424" d="M 12.140625 10.882812 L 8.347656 11.898438 C 6.789062 12.316406 5.515625 13.925781 5.515625 15.488281 L 5.515625 30.699219 C 5.515625 32.257812 6.789062 33.1875 8.347656 32.773438 L 17.347656 30.359375 C 17.074219 29.976562 16.972656 29.691406 16.972656 29.277344 L 8.347656 31.589844 C 7.421875 31.839844 6.699219 31.304688 6.699219 30.382812 L 6.699219 15.171875 C 6.699219 14.246094 7.421875 13.332031 8.347656 13.082031 L 12.140625 12.066406 Z M 31.28125 5.882812 C 31.011719 5.871094 30.730469 5.902344 30.4375 5.980469 L 26.648438 6.996094 L 26.648438 8.179688 L 30.4375 7.164062 C 31.363281 6.914062 32.089844 7.445312 32.089844 8.367188 L 32.089844 23.582031 C 32.089844 24.503906 31.363281 25.421875 30.4375 25.671875 L 29.3125 25.972656 L 28.699219 27.320312 L 30.4375 26.851562 C 31.996094 26.4375 33.273438 24.820312 33.273438 23.261719 L 33.273438 8.050781 C 33.273438 6.78125 32.429688 5.933594 31.28125 5.882812 Z M 31.28125 5.882812 " fill-opacity="1" fill-rule="evenodd"/></g><g clip-path="url(#5fc7ae9a04)"><path fill="#fe2424" d="M 19.394531 3.980469 C 16.289062 4.8125 13.777344 8 13.777344 11.101562 C 13.777344 12.589844 14.367188 13.863281 15.421875 14.632812 C 16.476562 15.402344 17.902344 15.613281 19.394531 15.214844 C 20.882812 14.816406 22.3125 13.839844 23.367188 12.503906 C 24.417969 11.167969 25.011719 9.582031 25.011719 8.089844 C 25.011719 6.601562 24.417969 5.332031 23.363281 4.558594 C 22.308594 3.789062 20.882812 3.582031 19.394531 3.980469 Z M 19.546875 6.257812 C 19.640625 6.238281 19.734375 6.226562 19.828125 6.222656 C 20.597656 6.203125 21.066406 6.855469 20.882812 7.679688 C 20.699219 8.5 19.929688 9.1875 19.164062 9.207031 C 18.398438 9.226562 17.925781 8.578125 18.109375 7.75 C 18.265625 7.042969 18.867188 6.417969 19.546875 6.257812 Z M 18.066406 10.496094 L 20.722656 9.78125 C 21.339844 9.617188 21.894531 9.867188 22.070312 10.382812 L 22.292969 11.023438 C 22.515625 11.679688 21.957031 12.242188 21.179688 12.648438 C 19.996094 13.265625 18.820312 13.585938 17.609375 13.601562 C 16.832031 13.617188 16.269531 13.351562 16.496094 12.578125 L 16.71875 11.8125 C 16.894531 11.203125 17.449219 10.660156 18.066406 10.496094 Z M 18.066406 10.496094 " fill-opacity="1" fill-rule="evenodd"/></g><path fill="#fe2424" d="M 26.605469 14.535156 C 26.558594 14.523438 26.507812 14.527344 26.453125 14.539062 L 12.328125 18.324219 C 12.117188 18.382812 11.945312 18.628906 11.945312 18.875 L 11.945312 21.777344 C 11.945312 22.019531 12.117188 22.175781 12.328125 22.117188 L 17.113281 20.835938 L 17.703125 19.605469 L 13.121094 20.832031 L 13.121094 19.183594 L 25.667969 15.824219 L 25.667969 17.46875 L 20.199219 18.9375 L 21.445312 19.675781 L 26.453125 18.335938 C 26.667969 18.277344 26.839844 18.03125 26.839844 17.785156 L 26.839844 14.882812 C 26.839844 14.699219 26.746094 14.566406 26.605469 14.535156 Z M 26.605469 14.535156 " fill-opacity="1" fill-rule="evenodd"/><g clip-path="url(#5fc436c8fb)"><path fill="#fe2424" d="M 19.675781 20.988281 L 26.988281 25.117188 L 25.050781 25.742188 C 24.78125 25.832031 24.65625 26.148438 24.796875 26.394531 L 26.910156 30.128906 L 24.652344 30.773438 L 22.261719 26.816406 C 22.160156 26.644531 21.949219 26.558594 21.75 26.617188 L 19.691406 27.242188 Z M 18.832031 19.910156 L 18.113281 21.410156 C 18.085938 21.46875 18.074219 21.53125 18.074219 21.597656 L 18.0625 29.339844 C 18.058594 29.644531 18.351562 29.867188 18.640625 29.78125 L 20.953125 29.082031 L 23.34375 33.039062 C 23.453125 33.214844 23.660156 33.292969 23.859375 33.234375 L 26.992188 32.335938 C 27.117188 32.296875 27.21875 32.210938 27.273438 32.09375 L 27.972656 30.621094 C 28.054688 30.484375 28.054688 30.316406 27.972656 30.179688 L 26.46875 27.589844 L 27.402344 27.335938 C 27.519531 27.300781 27.609375 27.164062 27.660156 27.050781 L 28.367188 25.484375 L 28.371094 25.484375 C 28.375 25.480469 28.375 25.476562 28.375 25.472656 C 28.46875 25.28125 28.410156 25.046875 28.238281 24.917969 L 19.507812 19.742188 C 19.207031 19.5625 18.941406 19.683594 18.832031 19.910156 Z M 18.832031 19.910156 " fill-opacity="1" fill-rule="nonzero"/></g></svg>